<svg width="65" height="65" viewBox="0 0 65 65" fill="none" xmlns="http://www.w3.org/2000/svg">
<g clip-path="url(#clip0_1_1242)">
<path d="M11.75 2.2206C11.75 1.82547 11.5805 1.46172 11.3154 1.1966C11.1215 1.00285 10.7954 0.771973 10.311 0.771973C9.51562 0.771973 8.875 1.42172 8.875 2.2206V6.39985H11.75V2.2206Z" fill="black"/>
<path d="M23.4134 22.5249L15.2329 8.8999H7.08301L15.2635 22.5249H23.4134Z" fill="black"/>
<path d="M4.18075 8.8999H0.75V22.5249H12.3612L4.18075 8.8999Z" fill="black"/>
<path d="M11.75 25.0249H8.875V30.6499H11.75V25.0249Z" fill="black"/>
<path d="M56.125 25.0249H53.25V30.6499H56.125V25.0249Z" fill="black"/>
<path d="M56.125 2.2206C56.125 1.8266 55.9964 1.46297 55.73 1.19647C55.5364 1.00285 55.189 0.771973 54.7029 0.771973C53.9097 0.771973 53.25 1.42172 53.25 2.2206V6.39985H56.125V2.2206Z" fill="black"/>
<path d="M56.5701 22.5249L48.3896 8.8999H40.2397L48.4202 22.5249H56.5701Z" fill="black"/>
<path d="M45.5179 22.5249L37.3374 8.8999H29.1875L37.3681 22.5249H45.5179Z" fill="black"/>
<path d="M34.4658 22.5249L26.2851 8.8999H18.1353L26.3158 22.5249H34.4658Z" fill="black"/>
<path d="M7.5935 46.7267C7.71163 46.7267 7.8255 46.7749 7.93388 46.7749H12.3614L4.18075 33.1499H0.75V46.7749H7.25313C7.36138 46.7749 7.47525 46.7267 7.5935 46.7267Z" fill="black"/>
<path d="M18.1353 33.1499L26.3158 46.7749H34.4658L26.2851 33.1499H18.1353Z" fill="black"/>
<path d="M57.4065 61.3999H52.0516C51.9547 61.3999 51.8609 61.3999 51.7704 61.3999H49.125V64.2749H60.25V61.3999H57.6878C57.5973 61.3999 57.5034 61.3999 57.4065 61.3999Z" fill="black"/>
<path d="M56.125 49.2749H53.25V58.8999H56.125V49.2749Z" fill="black"/>
<path d="M51.292 33.1499L59.4725 46.7749H64.2502V33.1499H51.292Z" fill="black"/>
<path d="M51.292 8.8999L59.4725 22.5249H64.2502V8.8999H51.292Z" fill="black"/>
<path d="M52.0517 46.7267C52.1699 46.7267 52.2837 46.7749 52.3921 46.7749H56.5701L48.3896 33.1499H40.2397L48.4202 46.7749H51.7115C51.8197 46.7749 51.9336 46.7267 52.0517 46.7267Z" fill="black"/>
<path d="M7.24313 33.1499H7.08301L15.2635 46.7749H23.4134L15.2329 33.1499C15.2329 33.1499 7.35426 33.1499 7.24313 33.1499Z" fill="black"/>
<path d="M12.9484 61.3999H7.5935C7.49663 61.3999 7.40275 61.3999 7.31225 61.3999H4.75V64.2749H15.75V61.3999H13.2296C13.1391 61.3999 13.0452 61.3999 12.9484 61.3999Z" fill="black"/>
<path d="M29.1875 33.1499L37.368 46.7749H45.518L37.3375 33.1499H29.1875Z" fill="black"/>
<path d="M11.75 49.2749H8.875V58.8999H11.75V49.2749Z" fill="black"/>
</g>
<defs>
<clipPath id="clip0_1_1242">
<rect width="64" height="64" fill="white" transform="translate(0.5 0.524902)"/>
</clipPath>
</defs>
</svg>
