<svg width="64" height="65" viewBox="0 0 64 65" fill="none" xmlns="http://www.w3.org/2000/svg">
<g clip-path="url(#clip0_1_1279)">
<path d="M32 64.5249C49.6731 64.5249 64 50.198 64 32.5249C64 14.8518 49.6731 0.524902 32 0.524902C14.3269 0.524902 0 14.8518 0 32.5249C0 50.198 14.3269 64.5249 32 64.5249Z" fill="black"/>
<path d="M42.6834 47.24C35.1244 53.64 23.7858 52.6825 17.3858 45.1234C10.9858 37.5644 11.9433 26.2258 19.5023 19.8258C27.011 13.4258 38.4 14.3833 44.7999 21.9423L41.5748 24.6132L51.2503 26.125L51.3511 16.2982L48.1763 18.9691C40.1637 9.49509 25.9527 8.33604 16.5291 16.2982C7.10546 24.3612 5.89601 38.5723 13.9086 48.0463C21.9212 57.5203 36.1322 58.6793 45.5559 50.7171L42.6834 47.24Z" fill="white"/>
<path d="M32 43.4602V46.5343H29.9338V43.5106C28.0189 43.5106 26.2047 43.0571 24.5417 42.2004V38.2697C25.0961 38.7232 25.9023 39.1264 27.011 39.5295C28.1197 39.9327 29.0772 40.1343 29.9338 40.1846V34.9941C27.7165 34.1878 26.2047 33.2807 25.3984 32.3232C24.5921 31.3658 24.189 30.2067 24.189 28.7957C24.189 27.2839 24.6929 26.024 25.7512 24.9658C26.8094 23.9075 28.2205 23.3028 29.9338 23.1516V20.4807H32V23.0508C34.0157 23.1516 35.5275 23.4539 36.485 24.0083V27.8382C35.1748 27.0319 33.663 26.528 32 26.3768V31.7689C34.0661 32.5248 35.5779 33.3815 36.485 34.339C37.3921 35.2965 37.8457 36.4555 37.8457 37.8161C37.8457 39.3784 37.3417 40.6886 36.3338 41.6461C35.326 42.6539 33.8646 43.2587 32 43.4602ZM29.9338 31.013V26.4776C28.6236 26.7295 27.9685 27.3846 27.9685 28.5437C27.9685 29.5012 28.6236 30.3579 29.9338 31.013ZM32 35.8004V40.1343C33.3606 39.9327 34.0157 39.2272 34.0157 38.1185C34.0661 37.161 33.3606 36.4051 32 35.8004Z" fill="white"/>
</g>
<defs>
<clipPath id="clip0_1_1279">
<rect width="64" height="64" fill="white" transform="translate(0 0.524902)"/>
</clipPath>
</defs>
</svg>
