<svg width="86" height="47" viewBox="0 0 86 47" fill="none" xmlns="http://www.w3.org/2000/svg">
<g clip-path="url(#clip0_1_1287)">
<path d="M67.08 39.2371H39.4998C38.5499 39.2371 37.7798 40.0071 37.7798 40.9571V44.3885C37.7798 45.3384 38.5499 46.1085 39.4998 46.1085H67.08C68.0299 46.1085 68.8 45.3384 68.8 44.3885V40.9571C68.8 40.0071 68.0299 39.2371 67.08 39.2371Z" fill="black"/>
<path fill-rule="evenodd" clip-rule="evenodd" d="M29.0848 46.1085H25.6448C25.1886 46.1085 24.7511 45.9273 24.4286 45.6047C24.106 45.2822 23.9248 44.8447 23.9248 44.3885V40.9485C23.9248 40.4923 24.106 40.0549 24.4286 39.7323C24.7511 39.4097 25.1886 39.2285 25.6448 39.2285H29.0848C29.541 39.2285 29.9785 39.4097 30.301 39.7323C30.6236 40.0549 30.8048 40.4923 30.8048 40.9485V44.3885C30.8172 44.6177 30.7812 44.8468 30.6992 45.0611C30.6171 45.2754 30.4909 45.4701 30.3286 45.6323C30.1663 45.7946 29.9717 45.9208 29.7574 46.0029C29.5431 46.0849 29.3139 46.1209 29.0848 46.1085Z" fill="black"/>
<path fill-rule="evenodd" clip-rule="evenodd" d="M29.0848 30.7574H25.6448C25.1886 30.7574 24.7511 30.5762 24.4286 30.2537C24.106 29.9311 23.9248 29.4936 23.9248 29.0374V25.5974C23.9248 25.1413 24.106 24.7038 24.4286 24.3812C24.7511 24.0587 25.1886 23.8774 25.6448 23.8774H29.0848C29.541 23.8774 29.9785 24.0587 30.301 24.3812C30.6236 24.7038 30.8048 25.1413 30.8048 25.5974V29.0374C30.8172 29.2666 30.7812 29.4958 30.6992 29.7101C30.6171 29.9244 30.4909 30.119 30.3286 30.2812C30.1663 30.4435 29.9717 30.5698 29.7574 30.6518C29.5431 30.7339 29.3139 30.7699 29.0848 30.7574Z" fill="black"/>
<path d="M67.08 23.8862H39.4998C38.5499 23.8862 37.7798 24.6563 37.7798 25.6062V29.0376C37.7798 29.9876 38.5499 30.7576 39.4998 30.7576H67.08C68.0299 30.7576 68.8 29.9876 68.8 29.0376V25.6062C68.8 24.6563 68.0299 23.8862 67.08 23.8862Z" fill="black"/>
<path d="M67.08 8.53516H44.6512C43.7012 8.53516 42.9312 9.30523 42.9312 10.2552V13.6866C42.9312 14.6365 43.7012 15.4066 44.6512 15.4066H67.08C68.0299 15.4066 68.8 14.6365 68.8 13.6866V10.2552C68.8 9.30523 68.0299 8.53516 67.08 8.53516Z" fill="black"/>
<path fill-rule="evenodd" clip-rule="evenodd" d="M40.8931 3.16869L39.0699 1.34549C38.9539 1.21934 38.813 1.11864 38.6561 1.04976C38.4991 0.980879 38.3296 0.945312 38.1583 0.945312C37.9869 0.945312 37.8174 0.980879 37.6605 1.04976C37.5036 1.11864 37.3627 1.21934 37.2467 1.34549L25.8689 12.6201L21.2507 8.11369C21.1347 7.98754 20.9938 7.88684 20.8369 7.81796C20.6799 7.74908 20.5104 7.71351 20.3391 7.71351C20.1677 7.71351 19.9982 7.74908 19.8413 7.81796C19.6844 7.88684 19.5435 7.98754 19.4275 8.11369L17.6043 9.93689C17.4781 10.0529 17.3774 10.1938 17.3086 10.3507C17.2397 10.5076 17.2041 10.6771 17.2041 10.8485C17.2041 11.0199 17.2397 11.1894 17.3086 11.3463C17.3774 11.5032 17.4781 11.6441 17.6043 11.7601L23.9339 18.0897C24.4176 18.5728 25.0734 18.8442 25.7571 18.8442C26.4408 18.8442 27.0965 18.5728 27.5803 18.0897L40.8931 5.00049C41.1033 4.74151 41.218 4.41813 41.218 4.08459C41.218 3.75105 41.1033 3.42766 40.8931 3.16869Z" fill="black"/>
</g>
<defs>
<clipPath id="clip0_1_1287">
<rect width="86" height="46" fill="white" transform="translate(0 0.524902)"/>
</clipPath>
</defs>
</svg>
