<svg width="55" height="56" viewBox="0 0 55 56" fill="none" xmlns="http://www.w3.org/2000/svg">
<path fill-rule="evenodd" clip-rule="evenodd" d="M27.6388 0.333377H27.3615C24.9655 0.333297 22.9676 0.333244 21.3815 0.546471C19.7074 0.771564 18.196 1.26668 16.9814 2.48127C15.7668 3.69586 15.2717 5.20732 15.0466 6.88143C14.8937 8.01842 14.8505 10.7373 14.8383 13.0685C9.4456 13.2446 6.20779 13.8741 3.95768 16.1242C0.833496 19.2484 0.833496 24.2768 0.833496 34.3334C0.833496 44.3899 0.833496 49.4184 3.95768 52.5424C7.08187 55.6667 12.1102 55.6667 22.1668 55.6667H32.8335C42.89 55.6667 47.9186 55.6667 51.0426 52.5424C54.1668 49.4184 54.1668 44.3899 54.1668 34.3334C54.1668 24.2768 54.1668 19.2484 51.0426 16.1242C48.7924 13.8741 45.5548 13.2446 40.162 13.0685C40.1498 10.7373 40.1066 8.01842 39.9538 6.88143C39.7287 5.20732 39.2335 3.69586 38.0188 2.48127C36.8044 1.26668 35.293 0.771564 33.6188 0.546471C32.0327 0.333244 30.0348 0.333297 27.6388 0.333377ZM36.1612 13.0051C36.1492 10.7473 36.1108 8.31756 35.9895 7.41444C35.8239 6.18386 35.538 5.65722 35.1906 5.3097C34.8431 4.96218 34.3164 4.67626 33.0858 4.51082C31.7978 4.33764 30.0708 4.33338 27.5002 4.33338C24.9295 4.33338 23.2026 4.33764 21.9145 4.51082C20.684 4.67626 20.1573 4.96218 19.8098 5.3097C19.4623 5.65722 19.1764 6.18386 19.0109 7.41444C18.8895 8.31756 18.8511 10.7473 18.839 13.0051C19.8828 13 20.9904 13 22.1668 13H32.8335C34.01 13 35.1175 13 36.1612 13.0051ZM27.5002 21.6667C28.6047 21.6667 29.5002 22.5621 29.5002 23.6667V23.6939C32.4036 24.4254 34.8335 26.7147 34.8335 29.8888C34.8335 30.9934 33.938 31.8888 32.8335 31.8888C31.729 31.8888 30.8335 30.9934 30.8335 29.8888C30.8335 28.8648 29.698 27.4446 27.5002 27.4446C25.3023 27.4446 24.1668 28.8648 24.1668 29.8888C24.1668 30.9131 25.3023 32.3334 27.5002 32.3334C31.1932 32.3334 34.8335 34.8928 34.8335 38.7779C34.8335 41.952 32.4036 44.2414 29.5002 44.9728V45C29.5002 46.1046 28.6047 47 27.5002 47C26.3956 47 25.5002 46.1046 25.5002 45V44.9728C22.5967 44.2414 20.1668 41.952 20.1668 38.7779C20.1668 37.6734 21.0623 36.7779 22.1668 36.7779C23.2714 36.7779 24.1668 37.6734 24.1668 38.7779C24.1668 39.8019 25.3023 41.2222 27.5002 41.2222C29.698 41.2222 30.8335 39.8019 30.8335 38.7779C30.8335 37.7536 29.698 36.3334 27.5002 36.3334C23.8071 36.3334 20.1668 33.7742 20.1668 29.8888C20.1668 26.7147 22.5967 24.4254 25.5002 23.6939V23.6667C25.5002 22.5621 26.3956 21.6667 27.5002 21.6667Z" fill="#94763E"/>
</svg>
