<svg width="64" height="64" viewBox="0 0 64 64" fill="none" xmlns="http://www.w3.org/2000/svg">
<g clip-path="url(#clip0_159_9773)">
<path d="M32 64C49.6731 64 64 49.6731 64 32C64 14.3269 49.6731 0 32 0C14.3269 0 0 14.3269 0 32C0 49.6731 14.3269 64 32 64Z" fill="#D6C486"/>
<path d="M42.6834 46.7149C35.1244 53.1149 23.7858 52.1575 17.3858 44.5984C10.9858 37.0394 11.9433 25.7008 19.5023 19.3008C27.011 12.9008 38.4 13.8583 44.7999 21.4173L41.5748 24.0882L51.2503 25.6L51.3511 15.7732L48.1763 18.4441C40.1637 8.97007 25.9527 7.81101 16.5291 15.7732C7.10546 23.8362 5.89601 38.0472 13.9086 47.5212C21.9212 56.9953 36.1322 58.1543 45.5559 50.1921L42.6834 46.7149Z" fill="#94763E"/>
<path d="M32 42.9355V46.0095H29.9338V42.9859C28.0189 42.9859 26.2047 42.5323 24.5417 41.6756V37.7449C25.0961 38.1985 25.9023 38.6016 27.011 39.0048C28.1197 39.4079 29.0772 39.6095 29.9338 39.6599V34.4693C27.7165 33.663 26.2047 32.7559 25.3984 31.7985C24.5921 30.841 24.189 29.6819 24.189 28.2709C24.189 26.7591 24.6929 25.4992 25.7512 24.441C26.8094 23.3827 28.2205 22.778 29.9338 22.6268V19.9559H32V22.526C34.0157 22.6268 35.5275 22.9292 36.485 23.4835V27.3134C35.1748 26.5071 33.663 26.0032 32 25.852V31.2441C34.0661 32 35.5779 32.8567 36.485 33.8142C37.3921 34.7717 37.8457 35.9307 37.8457 37.2914C37.8457 38.8536 37.3417 40.1638 36.3338 41.1213C35.326 42.1292 33.8646 42.7339 32 42.9355ZM29.9338 30.4882V25.9528C28.6236 26.2048 27.9685 26.8599 27.9685 28.0189C27.9685 28.9764 28.6236 29.8331 29.9338 30.4882ZM32 35.2756V39.6095C33.3606 39.4079 34.0157 38.7024 34.0157 37.5937C34.0661 36.6362 33.3606 35.8803 32 35.2756Z" fill="white"/>
</g>
<defs>
<clipPath id="clip0_159_9773">
<rect width="64" height="64" fill="white"/>
</clipPath>
</defs>
</svg>
