<svg width="65" height="64" viewBox="0 0 65 64" fill="none" xmlns="http://www.w3.org/2000/svg">
<g id="barrier-svgrepo-com 1" clip-path="url(#clip0_159_9637)">
<g id="Barrier">
<g id="XMLID_332_">
<path id="XMLID_335_" d="M11.75 1.69576C11.75 1.30063 11.5805 0.936881 11.3154 0.671756C11.1215 0.478006 10.7954 0.247131 10.311 0.247131C9.51562 0.247131 8.875 0.896881 8.875 1.69576V5.87501H11.75V1.69576Z" fill="#94763E"/>
<path id="XMLID_336_" d="M23.4134 22L15.2329 8.375H7.08301L15.2635 22H23.4134Z" fill="#94763E"/>
<path id="XMLID_337_" d="M4.18075 8.375H0.75V22H12.3612L4.18075 8.375Z" fill="#94763E"/>
<path id="XMLID_338_" d="M11.75 24.5H8.875V30.125H11.75V24.5Z" fill="#94763E"/>
<path id="XMLID_339_" d="M56.125 24.5H53.25V30.125H56.125V24.5Z" fill="#94763E"/>
<path id="XMLID_340_" d="M56.125 1.69576C56.125 1.30176 55.9964 0.938131 55.73 0.671631C55.5364 0.478006 55.189 0.247131 54.7029 0.247131C53.9097 0.247131 53.25 0.896881 53.25 1.69576V5.87501H56.125V1.69576Z" fill="#94763E"/>
<path id="XMLID_341_" d="M56.5701 22L48.3896 8.375H40.2397L48.4202 22H56.5701Z" fill="#94763E"/>
<path id="XMLID_342_" d="M45.5179 22L37.3374 8.375H29.1875L37.3681 22H45.5179Z" fill="#94763E"/>
<path id="XMLID_343_" d="M34.4658 22L26.2851 8.375H18.1353L26.3158 22H34.4658Z" fill="#94763E"/>
<path id="XMLID_344_" d="M7.5935 46.2018C7.71163 46.2018 7.8255 46.25 7.93388 46.25H12.3614L4.18075 32.625H0.75V46.25H7.25313C7.36138 46.25 7.47525 46.2018 7.5935 46.2018Z" fill="#94763E"/>
<path id="XMLID_345_" d="M18.1353 32.625L26.3158 46.25H34.4658L26.2851 32.625H18.1353Z" fill="#94763E"/>
<path id="XMLID_346_" d="M57.4065 60.875H52.0516C51.9547 60.875 51.8609 60.875 51.7704 60.875H49.125V63.75H60.25V60.875H57.6878C57.5973 60.875 57.5034 60.875 57.4065 60.875Z" fill="#94763E"/>
<path id="XMLID_347_" d="M56.125 48.75H53.25V58.375H56.125V48.75Z" fill="#94763E"/>
<path id="XMLID_348_" d="M51.292 32.625L59.4725 46.25H64.2502V32.625H51.292Z" fill="#94763E"/>
<path id="XMLID_349_" d="M51.292 8.375L59.4725 22H64.2502V8.375H51.292Z" fill="#94763E"/>
<path id="XMLID_350_" d="M52.0517 46.2018C52.1699 46.2018 52.2837 46.25 52.3921 46.25H56.5701L48.3896 32.625H40.2397L48.4202 46.25H51.7115C51.8197 46.25 51.9336 46.2018 52.0517 46.2018Z" fill="#94763E"/>
<path id="XMLID_351_" d="M7.24313 32.625H7.08301L15.2635 46.25H23.4134L15.2329 32.625C15.2329 32.625 7.35426 32.625 7.24313 32.625Z" fill="#94763E"/>
<path id="XMLID_352_" d="M12.9484 60.875H7.5935C7.49663 60.875 7.40275 60.875 7.31225 60.875H4.75V63.75H15.75V60.875H13.2296C13.1391 60.875 13.0452 60.875 12.9484 60.875Z" fill="#94763E"/>
<path id="XMLID_353_" d="M29.1875 32.625L37.368 46.25H45.518L37.3375 32.625H29.1875Z" fill="#94763E"/>
<path id="XMLID_354_" d="M11.75 48.75H8.875V58.375H11.75V48.75Z" fill="#94763E"/>
</g>
</g>
</g>
<defs>
<clipPath id="clip0_159_9637">
<rect width="64" height="64" fill="white" transform="translate(0.5)"/>
</clipPath>
</defs>
</svg>
