<svg width="65" height="65" viewBox="0 0 65 65" fill="none" xmlns="http://www.w3.org/2000/svg">
<path fill-rule="evenodd" clip-rule="evenodd" d="M32.6388 3.85816H32.3615C29.9655 3.85808 27.9676 3.85802 26.3815 4.07125C24.7074 4.29634 23.196 4.79146 21.9814 6.00605C20.7668 7.22064 20.2717 8.7321 20.0466 10.4062C19.8937 11.5432 19.8505 14.2621 19.8383 16.5932C14.4456 16.7694 11.2078 17.3989 8.95768 19.649C5.8335 22.7732 5.8335 27.8016 5.8335 37.8582C5.8335 47.9147 5.8335 52.9432 8.95768 56.0672C12.0819 59.1915 17.1102 59.1915 27.1668 59.1915H37.8335C47.89 59.1915 52.9186 59.1915 56.0426 56.0672C59.1668 52.9432 59.1668 47.9147 59.1668 37.8582C59.1668 27.8016 59.1668 22.7732 56.0426 19.649C53.7924 17.3989 50.5548 16.7694 45.162 16.5932C45.1498 14.2621 45.1066 11.5432 44.9538 10.4062C44.7287 8.7321 44.2335 7.22064 43.0188 6.00605C41.8044 4.79146 40.293 4.29634 38.6188 4.07125C37.0327 3.85802 35.0348 3.85808 32.6388 3.85816ZM41.1612 16.5298C41.1492 14.2721 41.1108 11.8423 40.9895 10.9392C40.8239 9.70864 40.538 9.182 40.1906 8.83448C39.8431 8.48696 39.3164 8.20104 38.0858 8.0356C36.7978 7.86242 35.0708 7.85816 32.5002 7.85816C29.9295 7.85816 28.2026 7.86242 26.9145 8.0356C25.684 8.20104 25.1573 8.48696 24.8098 8.83448C24.4623 9.182 24.1764 9.70864 24.0109 10.9392C23.8895 11.8423 23.8511 14.2721 23.839 16.5298C24.8828 16.5248 25.9904 16.5248 27.1668 16.5248H37.8335C39.01 16.5248 40.1175 16.5248 41.1612 16.5298ZM32.5002 25.1915C33.6047 25.1915 34.5002 26.0869 34.5002 27.1915V27.2187C37.4036 27.9502 39.8335 30.2395 39.8335 33.4136C39.8335 34.5182 38.938 35.4136 37.8335 35.4136C36.729 35.4136 35.8335 34.5182 35.8335 33.4136C35.8335 32.3896 34.698 30.9694 32.5002 30.9694C30.3023 30.9694 29.1668 32.3896 29.1668 33.4136C29.1668 34.4379 30.3023 35.8582 32.5002 35.8582C36.1932 35.8582 39.8335 38.4176 39.8335 42.3027C39.8335 45.4768 37.4036 47.7662 34.5002 48.4976V48.5248C34.5002 49.6294 33.6047 50.5248 32.5002 50.5248C31.3956 50.5248 30.5002 49.6294 30.5002 48.5248V48.4976C27.5967 47.7662 25.1668 45.4768 25.1668 42.3027C25.1668 41.1982 26.0623 40.3027 27.1668 40.3027C28.2714 40.3027 29.1668 41.1982 29.1668 42.3027C29.1668 43.3267 30.3023 44.747 32.5002 44.747C34.698 44.747 35.8335 43.3267 35.8335 42.3027C35.8335 41.2784 34.698 39.8582 32.5002 39.8582C28.8071 39.8582 25.1668 37.299 25.1668 33.4136C25.1668 30.2395 27.5967 27.9502 30.5002 27.2187V27.1915C30.5002 26.0869 31.3956 25.1915 32.5002 25.1915Z" fill="black"/>
</svg>
