<svg width="86" height="46" viewBox="0 0 86 46" fill="none" xmlns="http://www.w3.org/2000/svg">
<path d="M67.08 38.7122H39.4998C38.5499 38.7122 37.7798 39.4822 37.7798 40.4322V43.8636C37.7798 44.8135 38.5499 45.5836 39.4998 45.5836H67.08C68.0299 45.5836 68.8 44.8135 68.8 43.8636V40.4322C68.8 39.4822 68.0299 38.7122 67.08 38.7122Z" fill="#94763E"/>
<path fill-rule="evenodd" clip-rule="evenodd" d="M29.0848 45.5836H25.6448C25.1886 45.5836 24.7511 45.4024 24.4286 45.0798C24.106 44.7573 23.9248 44.3198 23.9248 43.8636V40.4236C23.9248 39.9674 24.106 39.53 24.4286 39.2074C24.7511 38.8848 25.1886 38.7036 25.6448 38.7036H29.0848C29.541 38.7036 29.9785 38.8848 30.301 39.2074C30.6236 39.53 30.8048 39.9674 30.8048 40.4236V43.8636C30.8172 44.0927 30.7812 44.3219 30.6992 44.5362C30.6171 44.7505 30.4909 44.9452 30.3286 45.1074C30.1663 45.2697 29.9717 45.3959 29.7574 45.478C29.5431 45.56 29.3139 45.596 29.0848 45.5836Z" fill="#94763E"/>
<path fill-rule="evenodd" clip-rule="evenodd" d="M29.0848 30.2327H25.6448C25.1886 30.2327 24.7511 30.0514 24.4286 29.7289C24.106 29.4063 23.9248 28.9688 23.9248 28.5127V25.0727C23.9248 24.6165 24.106 24.179 24.4286 23.8564C24.7511 23.5339 25.1886 23.3527 25.6448 23.3527H29.0848C29.541 23.3527 29.9785 23.5339 30.301 23.8564C30.6236 24.179 30.8048 24.6165 30.8048 25.0727V28.5127C30.8172 28.7418 30.7812 28.971 30.6992 29.1853C30.6171 29.3996 30.4909 29.5942 30.3286 29.7565C30.1663 29.9187 29.9717 30.045 29.7574 30.127C29.5431 30.2091 29.3139 30.2451 29.0848 30.2327Z" fill="#94763E"/>
<path d="M67.08 23.3612H39.4998C38.5499 23.3612 37.7798 24.1313 37.7798 25.0812V28.5126C37.7798 29.4625 38.5499 30.2326 39.4998 30.2326H67.08C68.0299 30.2326 68.8 29.4625 68.8 28.5126V25.0812C68.8 24.1313 68.0299 23.3612 67.08 23.3612Z" fill="#94763E"/>
<path d="M67.08 8.01025H44.6512C43.7012 8.01025 42.9312 8.78032 42.9312 9.73025V13.1617C42.9312 14.1116 43.7012 14.8817 44.6512 14.8817H67.08C68.0299 14.8817 68.8 14.1116 68.8 13.1617V9.73025C68.8 8.78032 68.0299 8.01025 67.08 8.01025Z" fill="#94763E"/>
<path fill-rule="evenodd" clip-rule="evenodd" d="M40.8931 2.64366L39.0699 0.820464C38.9539 0.694318 38.813 0.593619 38.6561 0.524737C38.4991 0.455855 38.3296 0.420288 38.1583 0.420288C37.9869 0.420288 37.8174 0.455855 37.6605 0.524737C37.5036 0.593619 37.3627 0.694318 37.2467 0.820464L25.8689 12.0951L21.2507 7.58867C21.1347 7.46252 20.9938 7.36182 20.8369 7.29294C20.6799 7.22406 20.5104 7.18849 20.3391 7.18849C20.1677 7.18849 19.9982 7.22406 19.8413 7.29294C19.6844 7.36182 19.5435 7.46252 19.4275 7.58867L17.6043 9.41187C17.4781 9.52786 17.3774 9.66877 17.3086 9.82568C17.2397 9.9826 17.2041 10.1521 17.2041 10.3235C17.2041 10.4948 17.2397 10.6643 17.3086 10.8212C17.3774 10.9782 17.4781 11.1191 17.6043 11.2351L23.9339 17.5647C24.4176 18.0478 25.0734 18.3192 25.7571 18.3192C26.4408 18.3192 27.0965 18.0478 27.5803 17.5647L40.8931 4.47546C41.1033 4.21649 41.218 3.8931 41.218 3.55956C41.218 3.22603 41.1033 2.90264 40.8931 2.64366Z" fill="#94763E"/>
</svg>
