
<svg width="80" height="80" viewBox="0 0 80 80" fill="none" xmlns="http://www.w3.org/2000/svg">
<path opacity="0.3" d="M80 40C80 62.0914 62.0914 80 40 80C17.9086 80 0 62.0914 0 40C0 17.9086 17.9086 0 40 0C62.0914 0 80 17.9086 80 40ZM10.9071 40C10.9071 56.0675 23.9325 69.0929 40 69.0929C56.0675 69.0929 69.0929 56.0675 69.0929 40C69.0929 23.9325 56.0675 10.9071 40 10.9071C23.9325 10.9071 10.9071 23.9325 10.9071 40Z" fill="#0F1E43"/>
<ellipse cx="40" cy="40" rx="29" ry="29" fill="#0F1E43"/>
<path d="M51.4299 35.4165H44.5353V40.013H51.4299V35.4165Z" fill="#D6C486"/>
<path d="M50.2808 24.5H49.1317C48.8144 24.5 48.5571 24.7572 48.5571 25.0746V27.3728C48.5571 27.6901 48.8144 27.9473 49.1317 27.9473H50.2808C50.5981 27.9473 50.8553 27.6901 50.8553 27.3728V25.0746C50.8553 24.7572 50.5981 24.5 50.2808 24.5Z" fill="#D6C486"/>
<path d="M25 54.3768H41.9666C41.5916 53.8424 41.2847 53.2634 41.053 52.6531H26.7237C26.5713 52.6531 26.4251 52.5926 26.3174 52.4848C26.2096 52.3771 26.1491 52.231 26.1491 52.0786V34.842C26.1491 34.6896 26.2096 34.5434 26.3174 34.4357C26.4251 34.3279 26.5713 34.2674 26.7237 34.2674H52.004C52.1564 34.2674 52.3025 34.3279 52.4103 34.4357C52.518 34.5434 52.5786 34.6896 52.5786 34.842V42.8225C52.9842 43.0568 53.3687 43.3259 53.7277 43.6269V32.5437H25V54.3768Z" fill="#D6C486"/>
<path d="M44.5354 42.8225C45.5695 42.2186 46.7265 41.8559 47.9203 41.7614C49.1141 41.6669 50.3138 41.843 51.43 42.2767V41.1621H44.5354V42.8225ZM48.5572 42.8857C47.1936 42.8857 45.8606 43.2901 44.7268 44.0477C43.593 44.8053 42.7093 45.8821 42.1874 47.1419C41.6656 48.4017 41.529 49.788 41.7951 51.1254C42.0611 52.4629 42.7178 53.6914 43.682 54.6556C44.6462 55.6199 45.8747 56.2765 47.2122 56.5425C48.5496 56.8086 49.9359 56.672 51.1957 56.1502C52.4555 55.6283 53.5323 54.7446 54.2899 53.6108C55.0475 52.477 55.4519 51.144 55.4519 49.7804C55.4504 47.9523 54.7235 46.1995 53.4308 44.9068C52.1381 43.6141 50.3854 42.8872 48.5572 42.8857ZM47.2398 53.6339C47.132 53.7416 46.9859 53.8021 46.8336 53.8021C46.6812 53.8021 46.5351 53.7416 46.4274 53.6339L43.5546 50.7611L44.367 49.9487L46.8336 52.4153L52.7475 46.5014L53.5599 47.3138L47.2398 53.6339Z" fill="#D6C486"/>
<path d="M29.5963 24.5H28.4472C28.1299 24.5 27.8727 24.7572 27.8727 25.0746V27.3728C27.8727 27.6901 28.1299 27.9473 28.4472 27.9473H29.5963C29.9137 27.9473 30.1709 27.6901 30.1709 27.3728V25.0746C30.1709 24.7572 29.9137 24.5 29.5963 24.5Z" fill="#D6C486"/>
<path d="M26.7237 27.3728H25V31.3947H53.7277V27.3728H52.004C52.0027 27.8295 51.8206 28.2671 51.4977 28.5901C51.1747 28.913 50.7371 29.0951 50.2804 29.0964H49.1313C48.6745 29.0951 48.2369 28.913 47.9139 28.5901C47.591 28.2671 47.409 27.8295 47.4076 27.3728H31.3201C31.3187 27.8295 31.1367 28.2671 30.8137 28.5901C30.4908 28.913 30.0532 29.0951 29.5964 29.0964H28.4473C27.9906 29.0951 27.553 28.913 27.23 28.5901C26.9071 28.2671 26.725 27.8295 26.7237 27.3728Z" fill="#D6C486"/>
<path d="M34.1931 47.4821H27.2985V51.504H34.1931V47.4821Z" fill="#D6C486"/>
<path d="M35.3423 47.4821V51.504H40.7029C40.5784 50.9379 40.5148 50.36 40.5133 49.7804C40.5138 49.0019 40.628 48.2276 40.8523 47.4821H35.3423Z" fill="#D6C486"/>
<path d="M34.1931 41.1621H27.2985V46.333H34.1931V41.1621Z" fill="#D6C486"/>
<path d="M34.1931 35.4165H27.2985V40.013H34.1931V35.4165Z" fill="#D6C486"/>
<path d="M43.386 43.6269V41.1621H35.3423V46.333H41.3004C41.7951 45.2929 42.5062 44.3703 43.386 43.6269Z" fill="#D6C486"/>
<path d="M43.386 35.4165H35.3423V40.013H43.386V35.4165Z" fill="#D6C486"/>
</svg>
