<svg width="80" height="80" viewBox="0 0 80 80" fill="none" xmlns="http://www.w3.org/2000/svg">
<path opacity="0.3" d="M80 40C80 62.0914 62.0914 80 40 80C17.9086 80 0 62.0914 0 40C0 17.9086 17.9086 0 40 0C62.0914 0 80 17.9086 80 40ZM10.9071 40C10.9071 56.0675 23.9325 69.0929 40 69.0929C56.0675 69.0929 69.0929 56.0675 69.0929 40C69.0929 23.9325 56.0675 10.9071 40 10.9071C23.9325 10.9071 10.9071 23.9325 10.9071 40Z" fill="#979797" fill-opacity="0.6"/>
<ellipse cx="40" cy="40" rx="29" ry="29" fill="black"/>
<path d="M51.4298 35.4165H44.5352V40.0129H51.4298V35.4165Z" fill="white"/>
<path d="M50.2808 24.5H49.1317C48.8144 24.5 48.5571 24.7572 48.5571 25.0746V27.3728C48.5571 27.6901 48.8144 27.9473 49.1317 27.9473H50.2808C50.5981 27.9473 50.8553 27.6901 50.8553 27.3728V25.0746C50.8553 24.7572 50.5981 24.5 50.2808 24.5Z" fill="white"/>
<path d="M25 54.3768H41.9666C41.5916 53.8425 41.2847 53.2634 41.053 52.6531H26.7237C26.5713 52.6531 26.4251 52.5926 26.3174 52.4849C26.2096 52.3771 26.1491 52.231 26.1491 52.0786V34.842C26.1491 34.6896 26.2096 34.5435 26.3174 34.4357C26.4251 34.328 26.5713 34.2674 26.7237 34.2674H52.004C52.1564 34.2674 52.3025 34.328 52.4103 34.4357C52.518 34.5435 52.5786 34.6896 52.5786 34.842V42.8225C52.9842 43.0568 53.3687 43.3259 53.7277 43.6269V32.5438H25V54.3768Z" fill="white"/>
<path d="M44.5354 42.8225C45.5695 42.2186 46.7265 41.8559 47.9203 41.7614C49.1141 41.6669 50.3138 41.843 51.43 42.2767V41.162H44.5354V42.8225ZM48.5572 42.8857C47.1936 42.8857 45.8606 43.2901 44.7268 44.0477C43.593 44.8053 42.7093 45.8821 42.1874 47.1419C41.6656 48.4017 41.529 49.788 41.7951 51.1254C42.0611 52.4629 42.7178 53.6914 43.682 54.6556C44.6462 55.6198 45.8747 56.2765 47.2122 56.5425C48.5496 56.8085 49.9359 56.672 51.1957 56.1502C52.4555 55.6283 53.5323 54.7446 54.2899 53.6108C55.0475 52.477 55.4519 51.144 55.4519 49.7804C55.4504 47.9522 54.7235 46.1995 53.4308 44.9068C52.1381 43.6141 50.3854 42.8872 48.5572 42.8857ZM47.2398 53.6339C47.132 53.7416 46.9859 53.8021 46.8336 53.8021C46.6812 53.8021 46.5351 53.7416 46.4274 53.6339L43.5546 50.7611L44.367 49.9487L46.8336 52.4153L52.7475 46.5014L53.5599 47.3138L47.2398 53.6339Z" fill="white"/>
<path d="M29.5962 24.5H28.4471C28.1298 24.5 27.8726 24.7572 27.8726 25.0746V27.3728C27.8726 27.6901 28.1298 27.9473 28.4471 27.9473H29.5962C29.9135 27.9473 30.1708 27.6901 30.1708 27.3728V25.0746C30.1708 24.7572 29.9135 24.5 29.5962 24.5Z" fill="white"/>
<path d="M26.7237 27.3728H25V31.3947H53.7277V27.3728H52.004C52.0027 27.8295 51.8206 28.2672 51.4977 28.5901C51.1747 28.9131 50.7371 29.0951 50.2804 29.0965H49.1313C48.6745 29.0951 48.2369 28.9131 47.9139 28.5901C47.591 28.2672 47.409 27.8295 47.4076 27.3728H31.3201C31.3187 27.8295 31.1367 28.2672 30.8137 28.5901C30.4908 28.9131 30.0532 29.0951 29.5964 29.0965H28.4473C27.9906 29.0951 27.553 28.9131 27.23 28.5901C26.9071 28.2672 26.725 27.8295 26.7237 27.3728Z" fill="white"/>
<path d="M34.1932 47.4822H27.2986V51.5041H34.1932V47.4822Z" fill="white"/>
<path d="M35.3423 47.4822V51.5041H40.7029C40.5784 50.9379 40.5148 50.3601 40.5133 49.7804C40.5138 49.0019 40.628 48.2277 40.8523 47.4822H35.3423Z" fill="white"/>
<path d="M34.1932 41.162H27.2986V46.333H34.1932V41.162Z" fill="white"/>
<path d="M34.1932 35.4165H27.2986V40.0129H34.1932V35.4165Z" fill="white"/>
<path d="M43.386 43.6269V41.162H35.3423V46.333H41.3004C41.7951 45.2928 42.5062 44.3702 43.386 43.6269Z" fill="white"/>
<path d="M43.386 35.4165H35.3423V40.0129H43.386V35.4165Z" fill="white"/>
</svg>
