
<svg width="80" height="80" viewBox="0 0 80 80" fill="none" xmlns="http://www.w3.org/2000/svg">
<path opacity="0.3" d="M80 40C80 62.0914 62.0914 80 40 80C17.9086 80 0 62.0914 0 40C0 17.9086 17.9086 0 40 0C62.0914 0 80 17.9086 80 40ZM10.9071 40C10.9071 56.0675 23.9325 69.0929 40 69.0929C56.0675 69.0929 69.0929 56.0675 69.0929 40C69.0929 23.9325 56.0675 10.9071 40 10.9071C23.9325 10.9071 10.9071 23.9325 10.9071 40Z" fill="#0F1E43"/>
<ellipse cx="40" cy="40" rx="29" ry="29" fill="#0F1E43"/>
<g clip-path="url(#clip0_149_8770)">
<path d="M45.684 51.1234C41.2999 51.1178 37.0971 49.3737 33.9972 46.2737C30.8972 43.1738 29.1531 38.971 29.1475 34.5869C29.1475 33.2769 29.6679 32.0205 30.5942 31.0942C31.5205 30.1679 32.7769 29.6475 34.0869 29.6475C34.3643 29.6454 34.6413 29.6705 34.9138 29.7226C35.1772 29.7616 35.4361 29.8264 35.6869 29.9159C35.8633 29.9778 36.0204 30.0847 36.1428 30.2259C36.2652 30.3671 36.3487 30.5379 36.3849 30.7213L37.856 37.1641C37.8956 37.3389 37.8908 37.521 37.8421 37.6935C37.7933 37.8661 37.7021 38.0237 37.5768 38.152C37.4372 38.3023 37.4264 38.313 36.1057 39.0003C37.1634 41.3206 39.0191 43.1839 41.3351 44.2511C42.033 42.9196 42.0438 42.9089 42.1941 42.7693C42.3224 42.644 42.48 42.5528 42.6525 42.504C42.8251 42.4552 43.0071 42.4504 43.182 42.4901L49.6248 43.9612C49.8023 44.0024 49.9664 44.0881 50.1017 44.2102C50.2369 44.3323 50.3389 44.4868 50.3979 44.6592C50.4886 44.914 50.5568 45.1763 50.6019 45.443C50.6452 45.7129 50.6667 45.9858 50.6664 46.2591C50.6466 47.5636 50.1115 48.8072 49.1781 49.7185C48.2446 50.6299 46.9885 51.1349 45.684 51.1234Z" fill="#D6C486"/>
</g>
<defs>
<clipPath id="clip0_149_8770">
<rect x="27" y="27.5" width="25.7712" height="25.7712" rx="12.8856" fill="white"/>
</clipPath>
</defs>
</svg>
