<svg width="24" height="24" viewBox="0 0 24 24" fill="none" xmlns="http://www.w3.org/2000/svg">
<path d="M20.6292 12.9933C20.3798 12.9933 20.1191 12.914 19.8698 12.8573C19.3649 12.7461 18.8687 12.5983 18.3851 12.4153C17.8593 12.224 17.2814 12.234 16.7625 12.4432C16.2436 12.6524 15.8204 13.0462 15.5744 13.5487L15.3251 14.0587C14.2212 13.4446 13.2068 12.6819 12.3103 11.792C11.4204 10.8955 10.6577 9.88114 10.0436 8.77726L10.5196 8.45992C11.0221 8.21388 11.4159 7.79071 11.6251 7.27181C11.8343 6.75292 11.8443 6.17498 11.653 5.6492C11.473 5.1646 11.3254 4.66862 11.211 4.1645C11.1543 3.91517 11.109 3.6545 11.075 3.39382C10.9373 2.59551 10.5192 1.87257 9.89586 1.35519C9.27251 0.837811 8.48492 0.559994 7.67491 0.571771H4.27485C3.78641 0.567185 3.30272 0.667894 2.8567 0.867044C2.41068 1.06619 2.0128 1.35911 1.69016 1.72585C1.36752 2.09258 1.12768 2.52453 0.986977 2.99229C0.846275 3.46005 0.80801 3.95263 0.874788 4.43651C1.47857 9.18456 3.64701 13.5961 7.03758 16.9744C10.4281 20.3527 14.8476 22.505 19.5978 23.0915H20.0285C20.8642 23.0927 21.6712 22.7861 22.2952 22.2302C22.6537 21.9095 22.9402 21.5164 23.1355 21.0768C23.3309 20.6372 23.4308 20.1612 23.4285 19.6801V16.2801C23.4147 15.4928 23.128 14.7348 22.6174 14.1354C22.1069 13.536 21.4042 13.1323 20.6292 12.9933ZM21.1958 19.7935C21.1956 19.9544 21.1612 20.1134 21.0947 20.26C21.0283 20.4065 20.9314 20.5373 20.8105 20.6435C20.6842 20.7534 20.5362 20.8355 20.376 20.8843C20.2159 20.9331 20.0473 20.9476 19.8811 20.9268C15.6366 20.3826 11.6941 18.4408 8.67535 15.4077C5.65663 12.3746 3.73357 8.4229 3.2095 4.17584C3.19146 4.00982 3.20727 3.84187 3.25597 3.68214C3.30467 3.5224 3.38525 3.3742 3.49284 3.24649C3.59904 3.12559 3.72978 3.0287 3.87634 2.96226C4.0229 2.89582 4.18193 2.86135 4.34285 2.86115H7.74292C8.00647 2.85528 8.26383 2.94148 8.47069 3.1049C8.67755 3.26832 8.82097 3.49874 8.87627 3.7565C8.9216 4.06628 8.97827 4.37229 9.04627 4.67451C9.1772 5.27195 9.35144 5.85907 9.56762 6.43121L7.98092 7.16789C7.84525 7.23014 7.72322 7.31857 7.62183 7.42811C7.52043 7.53764 7.44167 7.66613 7.39007 7.80619C7.33847 7.94625 7.31504 8.09513 7.32114 8.24427C7.32723 8.3934 7.36272 8.53987 7.42558 8.67525C9.0567 12.1691 11.8652 14.9776 15.3591 16.6087C15.635 16.7221 15.9445 16.7221 16.2204 16.6087C16.3618 16.5582 16.4916 16.48 16.6025 16.3789C16.7134 16.2777 16.8031 16.1555 16.8664 16.0194L17.5691 14.4327C18.155 14.6422 18.753 14.8163 19.3598 14.954C19.662 15.022 19.968 15.0787 20.2778 15.124C20.5356 15.1793 20.766 15.3228 20.9294 15.5296C21.0928 15.7365 21.179 15.9938 21.1732 16.2574L21.1958 19.7935Z" fill="#fff"/>
</svg>
