<svg xmlns="http://www.w3.org/2000/svg" width="27" height="26" viewBox="0 0 27 26" fill="none">
  <g clip-path="url(#clip0_685_1292)">
    <path d="M19.2982 23.6235C14.9142 23.6179 10.7114 21.8738 7.61142 18.7738C4.51146 15.6739 2.7674 11.4711 2.76172 7.08705C2.76172 5.77703 3.28213 4.52065 4.20846 3.59432C5.13479 2.66799 6.39116 2.14758 7.70119 2.14758C7.9786 2.14547 8.25554 2.17065 8.52801 2.22275C8.79143 2.26173 9.05038 2.32647 9.30115 2.41603C9.47752 2.47792 9.63468 2.58476 9.75709 2.72601C9.87951 2.86726 9.96293 3.03801 9.99912 3.22138L11.4702 9.66417C11.5099 9.83905 11.5051 10.0211 11.4563 10.1936C11.4076 10.3662 11.3164 10.5238 11.191 10.6521C11.0514 10.8024 11.0407 10.8131 9.71993 11.5004C10.7776 13.8207 12.6334 15.6841 14.9493 16.7512C15.6473 15.4197 15.658 15.409 15.8084 15.2694C15.9366 15.1441 16.0942 15.0529 16.2668 15.0041C16.4394 14.9553 16.6214 14.9506 16.7963 14.9902L23.239 16.4613C23.4166 16.5025 23.5807 16.5882 23.7159 16.7103C23.8512 16.8324 23.9531 16.9869 24.0122 17.1593C24.1028 17.4142 24.1711 17.6764 24.2162 17.9432C24.2594 18.213 24.281 18.4859 24.2806 18.7592C24.2608 20.0637 23.7258 21.3073 22.7923 22.2186C21.8588 23.13 20.6027 23.635 19.2982 23.6235Z" fill="white"/>
  </g>
  <defs>
    <clipPath id="clip0_685_1292">
      <rect x="0.614258" width="25.7712" height="25.7712" rx="12.8856" fill="white"/>
    </clipPath>
  </defs>
</svg>