<svg width="50" height="60" viewBox="0 0 50 60" fill="none" xmlns="http://www.w3.org/2000/svg">
<path d="M44.4439 18.9275L47.2721 16.1303C47.8574 15.5451 48.1861 14.7513 48.1861 13.9237C48.1861 13.096 47.8574 12.3022 47.2721 11.717C46.6869 11.1318 45.8931 10.803 45.0655 10.803C44.2378 10.803 43.4441 11.1318 42.8588 11.717L40.0617 14.5452C35.706 11.1758 30.355 9.34761 24.8482 9.34761C19.3414 9.34761 13.9904 11.1758 9.63475 14.5452L6.80651 11.6859C6.21715 11.1007 5.41944 10.7735 4.58887 10.7764C3.7583 10.7794 2.96291 11.1121 2.37767 11.7015C1.79243 12.2908 1.46528 13.0885 1.4682 13.9191C1.47111 14.7497 1.80385 15.5451 2.39321 16.1303L5.25253 18.9585C1.84315 23.3021 -0.00678518 28.6658 8.15186e-05 34.1875C-0.0100681 38.1515 0.927693 42.0604 2.73516 45.5884C4.54262 49.1163 7.1674 52.1609 10.3906 54.4683C13.6138 56.7757 17.3419 58.2791 21.2641 58.8529C25.1864 59.4268 29.1889 59.0546 32.9381 57.7673C36.6872 56.48 40.0742 54.315 42.8166 51.4527C45.559 48.5905 47.5774 45.1141 48.7033 41.3134C49.8292 37.5127 50.0301 33.4979 49.2891 29.6037C48.5482 25.7096 46.8869 22.0491 44.4439 18.9275ZM24.8637 52.8353C21.1756 52.8353 17.5702 51.7416 14.5036 49.6926C11.437 47.6435 9.04688 44.7312 7.63547 41.3237C6.22407 37.9163 5.85478 34.1669 6.57431 30.5495C7.29384 26.9322 9.06986 23.6095 11.6778 21.0016C14.2857 18.3937 17.6084 16.6176 21.2257 15.8981C24.8431 15.1786 28.5925 15.5479 31.9999 16.9593C35.4074 18.3707 38.3197 20.7608 40.3688 23.8274C42.4178 26.894 43.5115 30.4994 43.5115 34.1875C43.5115 39.1332 41.5468 43.8764 38.0497 47.3735C34.5526 50.8706 29.8094 52.8353 24.8637 52.8353ZM18.6478 6.21592H31.0797C31.9039 6.21592 32.6945 5.88847 33.2773 5.30562C33.8602 4.72276 34.1876 3.93224 34.1876 3.10796C34.1876 2.28368 33.8602 1.49315 33.2773 0.9103C32.6945 0.327445 31.9039 0 31.0797 0H18.6478C17.8235 0 17.033 0.327445 16.4502 0.9103C15.8673 1.49315 15.5399 2.28368 15.5399 3.10796C15.5399 3.93224 15.8673 4.72276 16.4502 5.30562C17.033 5.88847 17.8235 6.21592 18.6478 6.21592ZM27.9717 24.8637C27.9717 24.0394 27.6443 23.2489 27.0614 22.666C26.4785 22.0832 25.688 21.7557 24.8637 21.7557C24.0395 21.7557 23.2489 22.0832 22.6661 22.666C22.0832 23.2489 21.7558 24.0394 21.7558 24.8637V30.7377C21.0521 31.3671 20.556 32.1954 20.3333 33.1129C20.1106 34.0305 20.1718 34.994 20.5087 35.876C20.8456 36.758 21.4424 37.5169 22.22 38.0523C22.9977 38.5878 23.9196 38.8744 24.8637 38.8744C25.8079 38.8744 26.7298 38.5878 27.5075 38.0523C28.2851 37.5169 28.8819 36.758 29.2188 35.876C29.5557 34.994 29.6168 34.0305 29.3942 33.1129C29.1715 32.1954 28.6754 31.3671 27.9717 30.7377V24.8637Z" fill="white"/>
</svg>
