<svg width="55" height="55" viewBox="0 0 55 55" fill="none" xmlns="http://www.w3.org/2000/svg">
<path d="M27.5 1.71875C22.401 1.71875 17.4164 3.23079 13.1767 6.06367C8.93701 8.89655 5.63256 12.923 3.68124 17.6339C1.72992 22.3448 1.21937 27.5286 2.21414 32.5297C3.20892 37.5307 5.66434 42.1245 9.26992 45.7301C12.8755 49.3357 17.4693 51.7911 22.4703 52.7859C27.4714 53.7806 32.6552 53.2701 37.3661 51.3188C42.077 49.3674 46.1035 46.063 48.9363 41.8233C51.7692 37.5836 53.2813 32.599 53.2813 27.5C53.2813 20.6624 50.565 14.1048 45.7301 9.2699C40.8952 4.43498 34.3376 1.71875 27.5 1.71875ZM27.5 46.4062C23.7607 46.4062 20.1054 45.2974 16.9963 43.22C13.8871 41.1425 11.4639 38.1898 10.0329 34.7351C8.60195 31.2804 8.22754 27.479 8.95704 23.8116C9.68654 20.1441 11.4872 16.7753 14.1313 14.1313C16.7754 11.4872 20.1441 9.68653 23.8116 8.95703C27.479 8.22753 31.2805 8.60193 34.7351 10.0329C38.1898 11.4639 41.1425 13.8871 43.22 16.9962C45.2974 20.1054 46.4063 23.7607 46.4063 27.5C46.4063 32.5142 44.4144 37.3231 40.8688 40.8687C37.3231 44.4143 32.5143 46.4062 27.5 46.4062Z" fill="white"/>
<path d="M33.6701 19.9201L25.781 27.792L23.0482 25.0591C22.4032 24.4141 21.5284 24.0518 20.6162 24.0518C19.704 24.0518 18.8292 24.4141 18.1841 25.0591C17.5391 25.7042 17.1768 26.579 17.1768 27.4912C17.1768 28.4034 17.5391 29.2782 18.1841 29.9232L23.3404 35.0795C23.6596 35.3991 24.0388 35.6526 24.4561 35.8256C24.8734 35.9986 25.3207 36.0876 25.7724 36.0876C26.2242 36.0876 26.6715 35.9986 27.0888 35.8256C27.5061 35.6526 27.8852 35.3991 28.2045 35.0795L38.517 24.767C39.162 24.1219 39.5243 23.2471 39.5243 22.3349C39.5243 21.4227 39.162 20.5479 38.517 19.9029C37.8719 19.2579 36.9971 18.8955 36.0849 18.8955C35.1727 18.8955 34.2979 19.2579 33.6529 19.9029L33.6701 19.9201Z" fill="white"/>
</svg>
