<svg width="24" height="25" viewBox="0 0 24 25" fill="none" xmlns="http://www.w3.org/2000/svg">
<g clip-path="url(#clip0_149_8830)">
<path d="M21 0.736145H3C1.3455 0.736145 0 2.08165 0 3.73615V21.7361C0 23.3906 1.3455 24.7361 3 24.7361H21C22.6545 24.7361 24 23.3906 24 21.7361V3.73615C24 2.08165 22.6545 0.736145 21 0.736145Z" fill="#1976D2"/>
<path fill-rule="evenodd" clip-rule="evenodd" d="M20.25 12.7361H16.5V9.73615C16.5 8.90814 17.172 8.98615 18 8.98615H19.5V5.23615H16.5C15.3065 5.23615 14.1619 5.71025 13.318 6.55416C12.4741 7.39808 12 8.54267 12 9.73615V12.7361H9V16.4861H12V24.7361H16.5V16.4861H18.75L20.25 12.7361Z" fill="#FAFAFA"/>
</g>
<defs>
<clipPath id="clip0_149_8830">
<rect width="24" height="24" fill="white" transform="translate(0 0.736145)"/>
</clipPath>
</defs>
</svg>
