
<svg width="204" height="274" viewBox="0 0 204 274" fill="none" xmlns="http://www.w3.org/2000/svg">
<path d="M75.5251 151.62L118.831 170.515V352.583L137.999 344.446V157.627L75.5251 130.759V151.62Z" stroke="#D6C486" stroke-width="0.819144" stroke-miterlimit="10"/>
<path d="M160.825 233.207V254.231L184.307 264.498V274.109V285.741V304.8L160.825 315.066V335.49L203.475 317.141V285.741V274.109V251.555L160.825 233.207Z" stroke="#D6C486" stroke-width="0.819144" stroke-miterlimit="10"/>
<path d="M52.9168 192.031V166.419L31.7283 157.19V182.747L52.9168 192.031Z" stroke="#D6C486" stroke-width="0.819144" stroke-miterlimit="10"/>
<path d="M75.525 345.484L-9.93896 380.434V404.462L96.2221 360.338V185.314L75.525 176.303V345.484Z" stroke="#D6C486" stroke-width="0.819144" stroke-miterlimit="10"/>
<path d="M3.00349 350.071L52.9167 330.302L52.7528 216.605L31.7281 207.485V314.957L9.33821 323.968L11.2495 31.424L31.7281 40.653V132.506L52.9167 141.79V28.5843L-7.69998 1.44336L-9.77515 355.204L3.00349 349.962V350.071Z" stroke="#D6C486" stroke-width="0.819144" stroke-miterlimit="10"/>
</svg>
