<svg xmlns="http://www.w3.org/2000/svg" width="23.641" height="23.636" viewBox="0 0 23.641 23.636">
  <path id="Icon_awesome-instagram" data-name="Icon awesome-instagram" d="M11.818,8a6.06,6.06,0,1,0,6.06,6.06A6.05,6.05,0,0,0,11.818,8Zm0,10a3.94,3.94,0,1,1,3.94-3.94A3.947,3.947,0,0,1,11.818,18ZM19.539,7.748a1.413,1.413,0,1,1-1.413-1.413A1.41,1.41,0,0,1,19.539,7.748Zm4.014,1.435A7,7,0,0,0,21.644,4.23a7.041,7.041,0,0,0-4.952-1.909c-1.951-.111-7.8-.111-9.752,0a7.031,7.031,0,0,0-4.952,1.9A7.018,7.018,0,0,0,.078,9.177c-.111,1.951-.111,7.8,0,9.752a7,7,0,0,0,1.909,4.952,7.05,7.05,0,0,0,4.952,1.909c1.951.111,7.8.111,9.752,0a7,7,0,0,0,4.952-1.909,7.041,7.041,0,0,0,1.909-4.952c.111-1.951.111-7.8,0-9.747Zm-2.521,11.84a3.989,3.989,0,0,1-2.247,2.247c-1.556.617-5.248.475-6.967.475s-5.417.137-6.967-.475A3.989,3.989,0,0,1,2.6,21.023c-.617-1.556-.475-5.248-.475-6.967S1.992,8.639,2.6,7.089A3.989,3.989,0,0,1,4.851,4.842c1.556-.617,5.248-.475,6.967-.475s5.417-.137,6.967.475a3.989,3.989,0,0,1,2.247,2.247c.617,1.556.475,5.248.475,6.967S21.649,19.472,21.032,21.023Z" transform="translate(0.005 -2.238)" fill="#fff"/>
</svg>
