<svg xmlns="http://www.w3.org/2000/svg" width="21.255" height="21.255" viewBox="0 0 21.255 21.255">
  <path id="Icon_material-language" data-name="Icon material-language" d="M13.617,3A10.627,10.627,0,1,0,24.255,13.627,10.622,10.622,0,0,0,13.617,3Zm7.365,6.376H17.847A16.631,16.631,0,0,0,16.38,5.593,8.533,8.533,0,0,1,20.982,9.376ZM13.627,5.168a14.97,14.97,0,0,1,2.03,4.208H11.6A14.971,14.971,0,0,1,13.627,5.168ZM5.4,15.753a8.313,8.313,0,0,1,0-4.251H8.994a17.552,17.552,0,0,0-.149,2.125,17.552,17.552,0,0,0,.149,2.125Zm.871,2.125H9.408a16.631,16.631,0,0,0,1.467,3.783A8.488,8.488,0,0,1,6.273,17.878Zm3.135-8.5H6.273a8.488,8.488,0,0,1,4.6-3.783A16.631,16.631,0,0,0,9.408,9.376Zm4.219,12.71a14.971,14.971,0,0,1-2.03-4.208h4.06A14.971,14.971,0,0,1,13.627,22.087Zm2.487-6.334H11.141a15.636,15.636,0,0,1-.17-2.125,15.5,15.5,0,0,1,.17-2.125h4.974a15.5,15.5,0,0,1,.17,2.125A15.636,15.636,0,0,1,16.114,15.753Zm.266,5.909a16.631,16.631,0,0,0,1.467-3.783h3.135a8.533,8.533,0,0,1-4.6,3.783Zm1.881-5.909a17.551,17.551,0,0,0,.149-2.125,17.552,17.552,0,0,0-.149-2.125h3.592a8.313,8.313,0,0,1,0,4.251Z" transform="translate(-3 -3)" fill="#fff"/>
</svg>
