<svg width="24" height="25" viewBox="0 0 24 25" fill="none" xmlns="http://www.w3.org/2000/svg">
<g clip-path="url(#clip0_149_8836)">
<path d="M18.6131 0.736145H5.38691C2.4118 0.736145 0 3.14795 0 6.12305V19.3492C0 22.3243 2.4118 24.7361 5.38691 24.7361H18.6131C21.5882 24.7361 24 22.3243 24 19.3492V6.12305C24 3.14795 21.5882 0.736145 18.6131 0.736145Z" fill="#0B86CA"/>
<path d="M6.65055 10.7119H9.14449V18.759H6.65055V10.7119ZM7.92246 6.71326C8.20819 6.71326 8.48752 6.79789 8.72521 6.95647C8.9629 7.11504 9.1483 7.34047 9.25802 7.60429C9.36774 7.86812 9.39687 8.15853 9.34173 8.43889C9.28659 8.71925 9.14965 8.977 8.94818 9.17962C8.74672 9.38225 8.48976 9.52066 8.20972 9.57741C7.92968 9.63416 7.6391 9.6067 7.37465 9.49849C7.1102 9.39028 6.88372 9.20618 6.72378 8.9694C6.56385 8.73262 6.47762 8.45378 6.47598 8.16805C6.47488 7.9774 6.51149 7.78841 6.58369 7.61195C6.65589 7.4355 6.76226 7.27506 6.89669 7.13986C7.03112 7.00466 7.19095 6.89737 7.36699 6.82415C7.54303 6.75094 7.7318 6.71325 7.92246 6.71326Z" fill="white"/>
<path d="M10.7406 10.7119H13.1431V11.8092C13.3836 11.3988 13.731 11.0614 14.1483 10.833C14.5656 10.6046 15.037 10.4938 15.5123 10.5124C18.0063 10.5124 18.5134 12.175 18.5134 14.3447V18.759H16.0194V14.8685C16.0194 13.9374 16.0194 12.732 14.7226 12.732C13.4258 12.732 13.2262 13.7462 13.2262 14.7936V18.7756H10.7323L10.7406 10.7119Z" fill="white"/>
</g>
<defs>
<clipPath id="clip0_149_8836">
<rect width="24" height="24" fill="white" transform="translate(0 0.736145)"/>
</clipPath>
</defs>
</svg>
