
<svg width="18" height="24" viewBox="0 0 18 24" fill="none" xmlns="http://www.w3.org/2000/svg">
<path d="M8.85883 0.322388C6.51014 0.325169 4.25839 1.31034 2.59761 3.06175C0.936824 4.81317 0.00263784 7.1878 0 9.66467C0 13.4658 2.61668 16.6223 5.38839 19.9634C6.26541 21.0214 7.17344 22.1156 7.98181 23.2227C8.08526 23.3642 8.21812 23.4788 8.37017 23.5576C8.52222 23.6365 8.68939 23.6775 8.85883 23.6775C9.02827 23.6775 9.19545 23.6365 9.3475 23.5576C9.49955 23.4788 9.63241 23.3642 9.73586 23.2227C10.5442 22.1156 11.4523 21.0214 12.3293 19.9634C15.101 16.6223 17.7177 13.4658 17.7177 9.66467C17.715 7.1878 16.7808 4.81317 15.1201 3.06175C13.4593 1.31034 11.2075 0.325169 8.85883 0.322388ZM8.85883 13.168C8.20179 13.168 7.55951 12.9626 7.0132 12.5776C6.46688 12.1927 6.04109 11.6455 5.78965 11.0054C5.53821 10.3652 5.47242 9.66079 5.6006 8.9812C5.72879 8.30162 6.04518 7.67738 6.50978 7.18743C6.97438 6.69747 7.56632 6.36381 8.21073 6.22863C8.85515 6.09345 9.5231 6.16283 10.1301 6.42799C10.7372 6.69315 11.256 7.14219 11.621 7.71831C11.9861 8.29444 12.1809 8.97178 12.1809 9.66467C12.1809 10.5938 11.8309 11.4849 11.2079 12.1419C10.5849 12.7989 9.7399 13.168 8.85883 13.168Z" fill="white"/>
</svg>
