<svg width="19" height="24" viewBox="0 0 19 24" fill="none" xmlns="http://www.w3.org/2000/svg">
<path d="M9.50807 0.322418C7.15937 0.3252 4.90762 1.31037 3.24684 3.06178C1.58605 4.8132 0.651869 7.18783 0.649231 9.6647C0.649231 13.4658 3.26591 16.6224 6.03762 19.9634C6.91464 21.0214 7.82267 22.1156 8.63104 23.2227C8.73449 23.3642 8.86735 23.4788 9.0194 23.5577C9.17145 23.6365 9.33863 23.6775 9.50807 23.6775C9.6775 23.6775 9.84468 23.6365 9.99673 23.5577C10.1488 23.4788 10.2816 23.3642 10.3851 23.2227C11.1935 22.1156 12.1015 21.0214 12.9785 19.9634C15.7502 16.6224 18.3669 13.4658 18.3669 9.6647C18.3643 7.18783 17.4301 4.8132 15.7693 3.06178C14.1085 1.31037 11.8568 0.3252 9.50807 0.322418ZM9.50807 13.1681C8.85102 13.1681 8.20874 12.9626 7.66243 12.5776C7.11612 12.1927 6.69032 11.6455 6.43888 11.0054C6.18744 10.3652 6.12165 9.66082 6.24983 8.98123C6.37802 8.30165 6.69441 7.67741 7.15901 7.18746C7.62361 6.6975 8.21555 6.36384 8.85996 6.22866C9.50438 6.09349 10.1723 6.16286 10.7794 6.42802C11.3864 6.69319 11.9052 7.14222 12.2703 7.71834C12.6353 8.29447 12.8301 8.97181 12.8301 9.6647C12.8301 10.5939 12.4801 11.4849 11.8571 12.142C11.2341 12.799 10.3891 13.1681 9.50807 13.1681Z" fill="black"/>
</svg>
