<svg width="148" height="142" viewBox="0 0 148 142" fill="none" xmlns="http://www.w3.org/2000/svg">
<path d="M93.9729 26.9306L106.874 32.4906V71.0331L102.934 72.7065V35.1357L93.9729 31.2491V26.9306Z" fill="#d6c485"/>
<path d="M116.429 58.9414H120.37V51.8699L111.571 48.0912V52.4097L116.429 54.569V58.9414Z" fill="#d6c485"/>
<path d="M116.429 56.5124V62.8822L111.571 64.9874V69.1979L120.37 65.4193V56.5124H116.429Z" fill="#d6c485"/>
<path d="M84.9581 32.3828L89.3306 34.3261V39.6162L84.9581 37.6729V32.3828Z" fill="#d6c485"/>
<path d="M93.9729 36.3232V71.249L76.3751 78.4824V83.4487L98.2374 74.3259V38.2126L93.9729 36.3232Z" fill="#d6c485"/>
<path d="M79.0203 67.3623L84.9582 64.9332V42.801L89.2767 44.6903L89.3306 68.1181L79.0203 72.2206V67.3623Z" fill="#d6c485"/>
<path d="M89.3306 29.1979L84.9581 27.3085V8.36119L80.6936 6.47185L80.3157 71.6809L76.3751 73.2464L76.807 0.264038L89.3306 5.87806V29.1979Z" fill="#d6c485"/>
<path d="M54.135 26.9306L41.2335 32.4906V71.0331L45.1741 72.7065V35.1357L54.135 31.2491V26.9306Z" fill="#d6c485"/>
<path d="M31.6788 58.9414H27.6842V51.8699L36.4831 48.0912V52.4097L31.6788 54.569V58.9414Z" fill="#d6c485"/>
<path d="M31.6788 56.5124V62.8822L36.4831 64.9874V69.1979L27.6842 65.4193V56.5124H31.6788Z" fill="#d6c485"/>
<path d="M63.1498 32.3828L58.7773 34.3261V39.6162L63.1498 37.6729V32.3828Z" fill="#d6c485"/>
<path d="M54.135 36.3232V71.249L71.7328 78.4824V83.4487L49.8165 74.3259V38.2126L54.135 36.3232Z" fill="#d6c485"/>
<path d="M69.0877 67.3623L63.1498 64.9332V42.801L58.8313 44.6903L58.7773 68.1181L69.0877 72.2206V67.3623Z" fill="#d6c485"/>
<path d="M58.7773 29.1979L63.1498 27.3085V8.36119L67.3603 6.47185L67.7921 71.6809L71.7328 73.2464L71.3009 0.264038L58.7773 5.87806V29.1979Z" fill="#d6c485"/>
<path d="M5.43041 139.736V133.062H8.06352C8.56754 133.062 8.9977 133.152 9.354 133.333C9.71247 133.511 9.98512 133.764 10.172 134.092C10.361 134.418 10.4555 134.801 10.4555 135.242C10.4555 135.686 10.3599 136.067 10.1687 136.386C9.97752 136.703 9.70052 136.947 9.33771 137.116C8.97707 137.286 8.54039 137.37 8.02767 137.37H6.26466V136.236H7.79955C8.06895 136.236 8.29272 136.199 8.47087 136.126C8.64901 136.052 8.78154 135.941 8.86844 135.793C8.95751 135.645 9.00205 135.462 9.00205 135.242C9.00205 135.021 8.95751 134.834 8.86844 134.682C8.78154 134.53 8.64793 134.415 8.46761 134.336C8.28946 134.256 8.0646 134.216 7.79304 134.216H6.84147V139.736H5.43041ZM9.03464 136.699L10.6934 139.736H9.13566L7.51278 136.699H9.03464ZM11.4527 139.736V133.062H15.9498V134.226H12.8637V135.816H15.7184V136.979H12.8637V138.573H15.9628V139.736H11.4527ZM18.222 139.736H16.7099L19.0139 133.062H20.8323L23.133 139.736H21.6209L19.9492 134.587H19.897L18.222 139.736ZM18.1275 137.113H21.6991V138.214H18.1275V137.113ZM23.9363 139.736V133.062H25.3474V138.573H28.2086V139.736H23.9363ZM31.267 139.736V133.062H35.7641V134.226H32.678V135.816H35.5327V136.979H32.678V138.573H35.7771V139.736H31.267ZM40.5065 134.982C40.4804 134.719 40.3685 134.515 40.1708 134.369C39.9731 134.223 39.7048 134.151 39.3659 134.151C39.1356 134.151 38.9412 134.183 38.7826 134.248C38.624 134.311 38.5023 134.399 38.4176 134.512C38.335 134.625 38.2937 134.754 38.2937 134.897C38.2894 135.016 38.3144 135.121 38.3687 135.21C38.4252 135.299 38.5023 135.376 38.6001 135.441C38.6978 135.504 38.8108 135.56 38.939 135.607C39.0672 135.653 39.204 135.692 39.3496 135.725L39.9492 135.868C40.2403 135.933 40.5076 136.02 40.7509 136.129C40.9942 136.237 41.2049 136.371 41.3831 136.53C41.5612 136.688 41.6992 136.875 41.797 137.09C41.8969 137.305 41.9479 137.552 41.9501 137.83C41.9479 138.238 41.8437 138.592 41.6373 138.892C41.4331 139.19 41.1376 139.421 40.7509 139.586C40.3663 139.749 39.9025 139.831 39.3594 139.831C38.8206 139.831 38.3513 139.748 37.9516 139.583C37.554 139.418 37.2433 139.174 37.0196 138.85C36.798 138.524 36.6817 138.121 36.6709 137.641H38.0363C38.0515 137.865 38.1156 138.051 38.2286 138.201C38.3437 138.349 38.4969 138.461 38.6881 138.537C38.8814 138.611 39.0998 138.648 39.3431 138.648C39.5821 138.648 39.7895 138.613 39.9655 138.544C40.1437 138.474 40.2816 138.377 40.3794 138.254C40.4771 138.13 40.526 137.987 40.526 137.827C40.526 137.677 40.4815 137.551 40.3924 137.449C40.3055 137.346 40.1773 137.26 40.0079 137.188C39.8406 137.116 39.6353 137.051 39.392 136.992L38.6653 136.81C38.1026 136.673 37.6583 136.459 37.3324 136.168C37.0065 135.877 36.8447 135.485 36.8468 134.991C36.8447 134.587 36.9522 134.234 37.1695 133.932C37.3889 133.63 37.6898 133.395 38.0722 133.225C38.4545 133.056 38.889 132.971 39.3757 132.971C39.871 132.971 40.3033 133.056 40.6727 133.225C41.0442 133.395 41.3331 133.63 41.5395 133.932C41.7459 134.234 41.8524 134.584 41.8589 134.982H40.5065ZM42.6451 134.226V133.062H48.1264V134.226H46.0831V139.736H44.6883V134.226H42.6451ZM49.3639 139.736H47.8518L50.1558 133.062H51.9742L54.2749 139.736H52.7628L51.091 134.587H51.0389L49.3639 139.736ZM49.2694 137.113H52.841V138.214H49.2694V137.113ZM54.0085 134.226V133.062H59.4898V134.226H57.4465V139.736H56.0518V134.226H54.0085ZM60.3925 139.736V133.062H64.8896V134.226H61.8035V135.816H64.6582V136.979H61.8035V138.573H64.9026V139.736H60.3925Z" fill="#DAC788"/>
<path d="M70.5013 139.736H68.1354V133.062H70.5208C71.1921 133.062 71.77 133.196 72.2545 133.463C72.739 133.728 73.1116 134.109 73.3723 134.607C73.6351 135.104 73.7666 135.7 73.7666 136.393C73.7666 137.088 73.6351 137.685 73.3723 138.185C73.1116 138.685 72.7368 139.068 72.248 139.335C71.7613 139.603 71.1791 139.736 70.5013 139.736ZM69.5464 138.527H70.4426C70.8597 138.527 71.2106 138.453 71.4952 138.306C71.782 138.156 71.997 137.924 72.1404 137.612C72.286 137.297 72.3588 136.89 72.3588 136.393C72.3588 135.9 72.286 135.497 72.1404 135.184C71.997 134.871 71.7831 134.641 71.4985 134.493C71.2138 134.345 70.863 134.271 70.4459 134.271H69.5464V138.527ZM74.8118 139.736V133.062H79.309V134.226H76.2229V135.816H79.0776V136.979H76.2229V138.573H79.322V139.736H74.8118ZM81.6366 133.062L83.2497 138.133H83.3116L84.928 133.062H86.4922L84.1915 139.736H82.3731L80.0691 133.062H81.6366ZM87.2955 139.736V133.062H91.7926V134.226H88.7065V135.816H91.5612V136.979H88.7065V138.573H91.8056V139.736H87.2955ZM92.9144 139.736V133.062H94.3255V138.573H97.1867V139.736H92.9144ZM103.994 136.399C103.994 137.127 103.856 137.746 103.58 138.257C103.307 138.767 102.933 139.157 102.459 139.427C101.988 139.694 101.458 139.828 100.869 139.828C100.276 139.828 99.7438 139.693 99.2724 139.423C98.8009 139.154 98.4283 138.764 98.1546 138.254C97.8809 137.743 97.744 137.125 97.744 136.399C97.744 135.671 97.8809 135.052 98.1546 134.542C98.4283 134.031 98.8009 133.642 99.2724 133.375C99.7438 133.106 100.276 132.971 100.869 132.971C101.458 132.971 101.988 133.106 102.459 133.375C102.933 133.642 103.307 134.031 103.58 134.542C103.856 135.052 103.994 135.671 103.994 136.399ZM102.564 136.399C102.564 135.928 102.493 135.53 102.352 135.207C102.213 134.883 102.016 134.637 101.762 134.47C101.508 134.303 101.21 134.219 100.869 134.219C100.528 134.219 100.23 134.303 99.9763 134.47C99.7221 134.637 99.5244 134.883 99.3832 135.207C99.2441 135.53 99.1746 135.928 99.1746 136.399C99.1746 136.871 99.2441 137.268 99.3832 137.592C99.5244 137.916 99.7221 138.161 99.9763 138.328C100.23 138.496 100.528 138.579 100.869 138.579C101.21 138.579 101.508 138.496 101.762 138.328C102.016 138.161 102.213 137.916 102.352 137.592C102.493 137.268 102.564 136.871 102.564 136.399ZM105.04 139.736V133.062H107.673C108.179 133.062 108.61 133.159 108.966 133.352C109.323 133.543 109.594 133.81 109.781 134.151C109.97 134.49 110.065 134.881 110.065 135.324C110.065 135.767 109.969 136.158 109.778 136.497C109.587 136.836 109.31 137.1 108.947 137.289C108.586 137.478 108.15 137.572 107.637 137.572H105.959V136.442H107.409C107.68 136.442 107.904 136.395 108.08 136.301C108.258 136.206 108.391 136.074 108.478 135.907C108.567 135.738 108.611 135.543 108.611 135.324C108.611 135.102 108.567 134.909 108.478 134.744C108.391 134.577 108.258 134.447 108.08 134.356C107.902 134.263 107.676 134.216 107.402 134.216H106.451V139.736H105.04ZM110.981 139.736V133.062H115.478V134.226H112.392V135.816H115.247V136.979H112.392V138.573H115.491V139.736H110.981ZM116.6 133.062H118.34L120.178 137.546H120.257L122.095 133.062H123.835V139.736H122.466V135.392H122.411L120.683 139.704H119.751L118.024 135.376H117.969V139.736H116.6V133.062ZM124.997 139.736V133.062H129.494V134.226H126.408V135.816H129.263V136.979H126.408V138.573H129.507V139.736H124.997ZM136.199 133.062V139.736H134.98L132.076 135.536H132.027V139.736H130.616V133.062H131.855L134.735 137.26H134.794V133.062H136.199ZM137.11 134.226V133.062H142.592V134.226H140.548V139.736H139.154V134.226H137.11Z" fill="#0F1E43"/>
<path d="M23.9596 104.015C23.2398 102.36 22.2322 100.921 20.9366 99.697C19.6411 98.4375 18.0936 97.4658 16.2943 96.782C14.4949 96.0983 12.5156 95.7564 10.3564 95.7564H0.0999756V115.244H4.90427V100.129H10.3024C11.7419 100.129 13.0554 100.363 14.243 100.831C15.4306 101.298 16.4382 101.946 17.2659 102.774C18.0936 103.602 18.7414 104.591 19.2092 105.743C19.6771 106.93 19.911 108.19 19.911 109.522V109.576C19.911 110.943 19.6771 112.203 19.2092 113.354C18.7414 114.506 18.0936 115.495 17.2659 116.323C16.4382 117.151 15.4306 117.799 14.243 118.266C13.0554 118.698 11.7419 118.914 10.3024 118.914H4.90427H0.0999756V123.287H10.3564C12.5156 123.287 14.4949 122.945 16.2943 122.261C18.0936 121.541 19.6411 120.57 20.9366 119.346C22.2322 118.087 23.2398 116.629 23.9596 114.974C24.6434 113.282 24.9852 111.465 24.9852 109.522V109.468C24.9852 107.524 24.6434 105.707 23.9596 104.015Z" fill="#0F1E43"/>
<path d="M45.1202 95.5405H40.6397L28.494 123.287H33.4603L42.799 101.317L52.1377 123.287H57.2659L45.1202 95.5405Z" fill="#0F1E43"/>
<path d="M77.9406 112.868C78.9122 112.616 79.7939 112.239 80.5856 111.735C81.3773 111.267 82.0611 110.673 82.6369 109.953C83.2127 109.27 83.6625 108.478 83.9864 107.578C84.3103 106.679 84.4722 105.653 84.4722 104.501V104.447C84.4722 103.224 84.2923 102.126 83.9324 101.155C83.5366 100.147 82.9608 99.2652 82.205 98.5094C81.3054 97.6457 80.1897 96.962 78.8582 96.4582C77.5267 95.9903 75.9972 95.7564 74.2698 95.7564H61.9622V123.287H66.7665V100.129H73.838C75.6733 100.129 77.0768 100.507 78.0485 101.262C79.0561 102.054 79.56 103.206 79.56 104.717V104.771C79.56 106.211 79.0561 107.344 78.0485 108.172C77.0049 109 75.6194 109.414 73.892 109.414H69.8974L72.8663 113.678L79.6679 123.287H85.3359L77.9406 112.868Z" fill="#0F1E43"/>
<path d="M114.432 95.7564H109.681V114.812L94.8907 95.7564H90.4642V123.287H95.2686V103.692L110.437 123.287H114.432V95.7564Z" fill="#0F1E43"/>
<path d="M135.808 95.5405H131.328L119.182 123.287H124.148L133.487 101.317L142.826 123.287H147.9L135.808 95.5405Z" fill="#0F1E43"/>
</svg>
