
<svg width="80" height="81" viewBox="0 0 80 81" fill="none" xmlns="http://www.w3.org/2000/svg">
<path opacity="0.3" d="M80 40.5C80 62.5914 62.0914 80.5 40 80.5C17.9086 80.5 0 62.5914 0 40.5C0 18.4086 17.9086 0.5 40 0.5C62.0914 0.5 80 18.4086 80 40.5ZM10.9071 40.5C10.9071 56.5675 23.9325 69.5929 40 69.5929C56.0675 69.5929 69.0929 56.5675 69.0929 40.5C69.0929 24.4325 56.0675 11.4071 40 11.4071C23.9325 11.4071 10.9071 24.4325 10.9071 40.5Z" fill="#0F1E43"/>
<ellipse cx="40" cy="40.5" rx="29" ry="29" fill="#0F1E43"/>
<path d="M40.4595 42.0994C41.3664 42.0994 42.1016 41.3642 42.1016 40.4573C42.1016 39.5504 41.3664 38.8152 40.4595 38.8152C39.5526 38.8152 38.8174 39.5504 38.8174 40.4573C38.8174 41.3642 39.5526 42.0994 40.4595 42.0994Z" fill="#D6C486"/>
<path d="M47.0276 42.0994C47.9345 42.0994 48.6697 41.3642 48.6697 40.4573C48.6697 39.5504 47.9345 38.8152 47.0276 38.8152C46.1207 38.8152 45.3855 39.5504 45.3855 40.4573C45.3855 41.3642 46.1207 42.0994 47.0276 42.0994Z" fill="#D6C486"/>
<path d="M33.8921 42.0994C34.799 42.0994 35.5342 41.3642 35.5342 40.4573C35.5342 39.5504 34.799 38.8152 33.8921 38.8152C32.9852 38.8152 32.25 39.5504 32.25 40.4573C32.25 41.3642 32.9852 42.0994 33.8921 42.0994Z" fill="#D6C486"/>
<path d="M52.0704 28.8475C49.376 26.1356 45.8199 24.4486 42.0151 24.0776C38.2103 23.7065 34.3952 24.6745 31.2277 26.8148C28.0601 28.955 25.7385 32.1334 24.6631 35.8019C23.5877 39.4704 23.826 43.3991 25.3368 46.9108C25.4942 47.2372 25.5459 47.6046 25.4845 47.9617L24.0395 54.9079C23.9838 55.1742 23.9952 55.4502 24.0726 55.711C24.15 55.9718 24.2909 56.2094 24.4829 56.4022C24.6402 56.5584 24.8275 56.6811 25.0335 56.7629C25.2395 56.8448 25.46 56.8841 25.6816 56.8784H26.01L33.0383 55.4662C33.3955 55.4233 33.7577 55.4742 34.0892 55.614C37.6009 57.1248 41.5296 57.363 45.1981 56.2876C48.8666 55.2123 52.0449 52.8907 54.1852 49.7231C56.3255 46.5555 57.2935 42.7405 56.9224 38.9356C56.5514 35.1308 54.8644 31.5747 52.1525 28.8804L52.0704 28.8475ZM53.4333 42.5756C53.1123 44.5363 52.3507 46.3985 51.2059 48.0223C50.0611 49.6461 48.5629 50.9891 46.8241 51.9502C45.0852 52.9113 43.1511 53.4655 41.1671 53.571C39.1831 53.6766 37.2011 53.3308 35.3701 52.5597C34.7207 52.2834 34.0231 52.1383 33.3174 52.1327C33.0092 52.1349 32.7016 52.1623 32.3978 52.2148L27.7671 53.1508L28.7031 48.5201C28.8895 47.5172 28.7693 46.4814 28.3582 45.5478C27.5871 43.7168 27.2413 41.7348 27.3469 39.7508C27.4524 37.7668 28.0066 35.8327 28.9677 34.0938C29.9288 32.355 31.2718 30.8568 32.8956 29.712C34.5194 28.5672 36.3816 27.8056 38.3423 27.4846C40.4003 27.1468 42.5092 27.3039 44.4944 27.9428C46.4797 28.5817 48.2843 29.6841 49.759 31.1589C51.2337 32.6336 52.3362 34.4382 52.9751 36.4234C53.614 38.4087 53.7711 40.5176 53.4333 42.5756Z" fill="#D6C486"/>
</svg>
