<svg width="21" height="22" viewBox="0 0 21 22" fill="none" xmlns="http://www.w3.org/2000/svg">
<path d="M6.70766 9.67542C7.97069 9.01823 7.98096 9.00797 8.11445 8.86421L8.11443 8.86419L6.70766 9.67542ZM6.70766 9.67542C7.7191 11.8943 9.49371 13.6762 11.7084 14.6967L6.70766 9.67542ZM15.8715 20.7685L15.8678 20.7685C11.8079 20.7633 7.91571 19.1481 5.0449 16.2773C2.17417 13.4066 0.559045 9.51457 0.553696 5.45475C0.55378 4.33473 0.998745 3.2606 1.79073 2.46861C2.58279 1.67655 3.65705 1.23158 4.77719 1.23159L4.781 1.23156C5.01349 1.22979 5.2456 1.25089 5.47396 1.29456L5.48428 1.29653L5.49467 1.29807C5.71421 1.33056 5.93002 1.38451 6.13902 1.45916L6.13901 1.45916L6.14165 1.46009C6.22819 1.49045 6.3053 1.54288 6.36536 1.61218C6.42542 1.68148 6.46635 1.76526 6.48411 1.85523L6.48554 1.8625L6.48719 1.86973L7.8938 8.03007C7.89382 8.03012 7.89383 8.03018 7.89384 8.03023C7.91325 8.11599 7.9109 8.20524 7.88699 8.28985L8.36814 8.42583L7.88699 8.28985C7.86306 8.37452 7.81831 8.45184 7.75682 8.51477L7.75671 8.51466L7.74805 8.52398C7.71469 8.55991 7.71141 8.56252 7.70451 8.56801L7.70436 8.56814C7.69313 8.57708 7.66426 8.5981 7.58386 8.64471C7.41926 8.74013 7.11418 8.90026 6.47687 9.23187L6.05584 9.45094L6.2527 9.8828C7.31384 12.2107 9.17564 14.0801 11.4992 15.1508L11.9307 15.3496L12.1513 14.9288C12.488 14.2865 12.6507 13.9786 12.7475 13.8125C12.7949 13.7312 12.8163 13.7018 12.8256 13.6901L12.8257 13.69C12.8315 13.6828 12.8341 13.6795 12.8701 13.646L12.8702 13.6462L12.8793 13.6373C12.9423 13.5758 13.0196 13.531 13.1042 13.5071L12.9683 13.026L13.1042 13.5071C13.1888 13.4832 13.278 13.4808 13.3637 13.5002C13.3638 13.5002 13.3639 13.5003 13.364 13.5003L19.5227 14.9065C19.5229 14.9066 19.5231 14.9066 19.5233 14.9067C19.6101 14.9269 19.6904 14.9689 19.7566 15.0287C19.823 15.0886 19.873 15.1644 19.902 15.249L19.902 15.249L19.9039 15.2544C19.9806 15.4701 20.0384 15.692 20.0767 15.9176C20.1134 16.1475 20.1318 16.38 20.1317 16.6128C20.1139 17.7269 19.6565 18.7888 18.8592 19.5673C18.061 20.3465 16.987 20.7784 15.8715 20.7685Z" stroke="white"/>
</svg>
