<svg width="27" height="31" viewBox="0 0 27 31" fill="none" xmlns="http://www.w3.org/2000/svg">
<path d="M4.40236 26.0274C4.25005 26.0274 4.08389 25.9858 3.94542 25.9166L0.87143 24.3796C0.52526 24.1996 0.303711 23.8396 0.303711 23.4519V19.6025C0.303711 19.0348 0.774502 18.564 1.34222 18.564C1.90994 18.564 2.38073 19.0348 2.38073 19.6025V22.8011L4.87315 24.0611C5.38549 24.3104 5.59319 24.9335 5.3301 25.4458C5.15009 25.8058 4.79007 26.0274 4.40236 26.0274Z" fill="white"/>
<path d="M13.6379 30.6381C13.5549 30.6381 13.4718 30.6243 13.4025 30.6104C13.3195 30.5966 13.2364 30.555 13.1533 30.5135L10.0932 28.9903C9.58083 28.7272 9.37313 28.1041 9.62237 27.5918C9.88546 27.0795 10.5086 26.8718 11.0209 27.121L12.5994 27.9103V25.7502C12.5994 25.1825 13.0702 24.7117 13.6379 24.7117C14.2057 24.7117 14.6765 25.1825 14.6765 25.7502V27.9103L16.255 27.121C16.7673 26.8718 17.3904 27.0795 17.6535 27.5918C17.9166 28.1041 17.7089 28.7272 17.1827 28.9903L14.1226 30.5135C14.0395 30.555 13.9564 30.5827 13.8733 30.6104C13.7903 30.6243 13.721 30.6381 13.6379 30.6381Z" fill="white"/>
<path d="M22.8736 26.0272C22.4997 26.0272 22.1259 25.8195 21.9459 25.4595C21.6828 24.9472 21.8905 24.3241 22.4167 24.061L24.9229 22.8148V19.6161C24.9229 19.0484 25.3937 18.5776 25.9614 18.5776C26.5292 18.5776 26.9999 19.0484 26.9999 19.6161V23.4656C26.9999 23.8533 26.7784 24.2133 26.4322 24.3933L23.3305 25.9164C23.1782 25.9857 23.0259 26.0272 22.8736 26.0272Z" fill="white"/>
<path d="M13.6379 19.104C13.0702 19.104 12.5994 18.6332 12.5994 18.0654V14.8668L10.0932 13.6206C9.58083 13.3575 9.37313 12.7344 9.62237 12.2221C9.88546 11.7098 10.5086 11.5021 11.0209 11.7513L13.6379 13.0529L16.255 11.7513C16.7673 11.5021 17.3904 11.6959 17.6535 12.2221C17.9166 12.7344 17.7089 13.3575 17.1827 13.6206L14.6765 14.8668V18.0654C14.6765 18.6332 14.2057 19.104 13.6379 19.104Z" fill="white"/>
<path d="M1.32806 12.9421C0.760342 12.9421 0.289551 12.4713 0.289551 11.9036V8.08184V8.06799C0.289551 7.98491 0.303398 7.90183 0.317245 7.8326C0.344938 7.70798 0.386479 7.61105 0.441866 7.51412C0.483406 7.44489 0.538793 7.3895 0.59418 7.33411C0.649568 7.27873 0.718802 7.22334 0.788036 7.1818C0.815729 7.16795 0.85727 7.14026 0.884963 7.12641L3.94511 5.58942C4.45744 5.34017 5.08054 5.54788 5.32979 6.06021C5.59287 6.57254 5.38517 7.19564 4.87284 7.44489L3.65432 8.05415L4.87284 8.6634C5.38517 8.92649 5.59287 9.5496 5.32979 10.0619C5.08054 10.5743 4.45744 10.782 3.94511 10.5327L2.36657 9.74345V11.9036C2.36657 12.4851 1.90963 12.9421 1.32806 12.9421Z" fill="white"/>
<path d="M16.7119 4.48173C16.5596 4.48173 16.3934 4.44019 16.2549 4.37096L13.6379 3.06936L11.0208 4.37096C10.5085 4.63405 9.8854 4.42635 9.63616 3.91402C9.37307 3.40168 9.58077 2.77858 10.0931 2.51549L13.1671 0.978494C13.4579 0.826179 13.804 0.826179 14.0948 0.978494L17.1688 2.51549C17.6812 2.77858 17.8889 3.40168 17.6396 3.91402C17.4596 4.27403 17.0996 4.48173 16.7119 4.48173Z" fill="white"/>
<path d="M25.9475 12.9421C25.3797 12.9421 24.9089 12.4713 24.9089 11.9036V9.74345L23.3304 10.5327C22.8181 10.782 22.195 10.5743 21.9457 10.0619C21.6826 9.5496 21.8903 8.92649 22.4165 8.6634L23.635 8.05415L22.4027 7.44489C21.8903 7.19564 21.6826 6.57254 21.9457 6.06021C22.2088 5.54788 22.8181 5.34017 23.3304 5.58942L26.3906 7.11256C26.4182 7.12641 26.4598 7.14026 26.4875 7.16795C26.5706 7.20949 26.6398 7.27872 26.709 7.34796C26.7506 7.40335 26.7921 7.45873 26.8337 7.51412C26.889 7.61105 26.9306 7.70798 26.9583 7.81875C26.9721 7.90183 26.986 7.98491 26.986 8.05415V8.06799V11.8897C26.986 12.4851 26.5152 12.9421 25.9475 12.9421Z" fill="white"/>
</svg>
