<svg width="25" height="25" viewBox="0 0 25 25" fill="none" xmlns="http://www.w3.org/2000/svg">
<path d="M17.9424 14.9266C17.7082 14.8095 16.1856 14.1068 15.9514 13.9896C15.7171 13.8725 15.4829 13.8725 15.2487 14.1068C15.0144 14.341 14.5459 15.0437 14.3117 15.278C14.1946 15.5122 13.9603 15.5122 13.7261 15.3951C12.9062 15.0437 12.0864 14.5752 11.3837 13.9896C10.7981 13.404 10.2125 12.7013 9.744 11.9986C9.62688 11.7644 9.744 11.5301 9.86112 11.413C9.97824 11.2959 10.0954 11.0616 10.3296 10.9445C10.4467 10.8274 10.5638 10.5932 10.5638 10.476C10.681 10.3589 10.681 10.1247 10.5638 10.0076C10.4467 9.89043 9.86112 8.48499 9.62688 7.89939C9.50976 7.07955 9.27552 7.07955 9.04128 7.07955C8.92416 7.07955 8.68992 7.07955 8.45568 7.07955C8.22144 7.07955 7.87008 7.31379 7.75296 7.43091C7.05024 8.13363 6.69888 8.95347 6.69888 9.89043C6.816 10.9445 7.16736 11.9986 7.87008 12.9356C9.1584 14.8095 10.7981 16.332 12.7891 17.269C13.3747 17.5032 13.8432 17.7375 14.4288 17.8546C15.0144 18.0888 15.6 18.0888 16.3027 17.9717C17.1226 17.8546 17.8253 17.269 18.2938 16.5663C18.528 16.0978 18.528 15.6293 18.4109 15.1608C18.4109 15.1608 18.1767 15.0437 17.9424 14.9266ZM20.8704 4.26866C16.3027 -0.299026 8.92416 -0.299026 4.35647 4.26866C0.608625 8.01651 -0.0940967 13.7554 2.48255 18.3231L0.842865 24.2962L7.05024 22.6565C8.80704 23.5935 10.681 24.062 12.5549 24.062C18.9965 24.062 24.1498 18.9087 24.1498 12.4671C24.2669 9.42195 22.9786 6.49395 20.8704 4.26866ZM17.7082 20.6655C16.1856 21.6025 14.4288 22.1881 12.5549 22.1881C10.7981 22.1881 9.1584 21.7196 7.63584 20.8997L7.28448 20.6655L3.65375 21.6025L4.59071 18.0888L4.35647 17.7375C1.54559 13.0527 2.95103 7.19667 7.51872 4.26866C12.0864 1.34066 17.9424 2.86322 20.7533 7.31379C23.5642 11.8815 22.2759 17.8546 17.7082 20.6655Z" fill="#fff"/>
</svg>
