<svg width="30" height="22" viewBox="0 0 30 22" fill="none" xmlns="http://www.w3.org/2000/svg">
<path fill-rule="evenodd" clip-rule="evenodd" d="M28.725 2.41114C27.9112 0.963645 27.0281 0.697395 25.23 0.596145C23.4338 0.47427 18.9169 0.423645 15.0037 0.423645C11.0831 0.423645 6.56437 0.47427 4.77 0.59427C2.97562 0.697395 2.09063 0.96177 1.26937 2.41114C0.43125 3.85677 0 6.34677 0 10.7305V10.7455C0 15.1105 0.43125 17.6193 1.26937 19.0499C2.09063 20.4974 2.97375 20.7599 4.76813 20.8818C6.56437 20.9868 11.0831 21.0486 15.0037 21.0486C18.9169 21.0486 23.4338 20.9868 25.2319 20.8836C27.03 20.7618 27.9131 20.4993 28.7269 19.0518C29.5725 17.6211 30 15.1124 30 10.7474V10.7324C30 6.34677 29.5725 3.85677 28.725 2.41114Z" fill="#F44336"/>
<path fill-rule="evenodd" clip-rule="evenodd" d="M11.25 16.3611V5.11115L20.625 10.7361L11.25 16.3611Z" fill="#FAFAFA"/>
</svg>
