<svg xmlns="http://www.w3.org/2000/svg" width="64" height="64" viewBox="0 0 64 64" fill="none">
  <path d="M28.6882 26.0288H20.8555V44.9209H28.6882V26.0288Z" fill="#D6C486"/>
  <path fill-rule="evenodd" clip-rule="evenodd" d="M27.0565 20.171L34.8896 12.7915V44.921H27.0565V20.171Z" fill="#D6C486"/>
  <path fill-rule="evenodd" clip-rule="evenodd" d="M33.502 26.8086L35.9233 23.847L38.3479 20.8628L40.7725 23.8465L43.1938 26.8081V44.9211H33.5022L33.502 26.8086Z" fill="#D6C486"/>
  <path fill-rule="evenodd" clip-rule="evenodd" d="M41.5701 33.9955H46.7195V31.709H50.9628V44.9208H41.5703L41.5701 33.9955Z" fill="#D6C486"/>
  <path fill-rule="evenodd" clip-rule="evenodd" d="M48.7598 28.7722H50.2284V26.8352H55.8802V28.7722H57.3489V44.9207H48.7598V28.7722Z" fill="#D6C486"/>
  <path fill-rule="evenodd" clip-rule="evenodd" d="M12.8596 33.1311H23.0808V34.7454H22.1016V44.9209H12.8596V34.7454H11.8805V33.1311H12.8596Z" fill="#D6C486"/>
  <path fill-rule="evenodd" clip-rule="evenodd" d="M7.393 23.3064H8.59405V21.5086H9.73629V20.2978H10.7583V13.5586H11.8598V20.2978H12.8819V21.5085H14.0241V23.3064H15.2252V44.921H7.39215L7.393 23.3064Z" fill="#D6C486"/>
  <path d="M28.6884 26.0288H27.0565V44.9209H28.6884V26.0288Z" fill="#D6C486"/>
  <path fill-rule="evenodd" clip-rule="evenodd" d="M34.8895 25.1121V44.921H33.5024V26.8085L34.8895 25.1121Z" fill="#D6C486"/>
  <path d="M43.1938 33.9954H41.5701V44.9208H43.1938V33.9954Z" fill="#D6C486"/>
  <path fill-rule="evenodd" clip-rule="evenodd" d="M48.7598 44.921V31.7092H50.9626V44.921H48.7598Z" fill="#D6C486"/>
  <path fill-rule="evenodd" clip-rule="evenodd" d="M12.8596 33.1311H15.2259V44.9209H12.8596V34.7454H11.8805V33.1311H12.8596Z" fill="#D6C486"/>
  <path fill-rule="evenodd" clip-rule="evenodd" d="M20.8554 33.1311H23.0806V34.7454H22.1014V44.9209H20.8553L20.8554 33.1311Z" fill="#D6C486"/>
  <path fill-rule="evenodd" clip-rule="evenodd" d="M11.7075 42.7778V51.2074H1.24873V42.7778H0.265428V42.1238H0.261093L3.36959 39.6388L6.47808 37.1538L9.58662 39.6388L12.6951 42.1238H12.6908V42.7778H11.7075Z" fill="#94763E"/>
  <path fill-rule="evenodd" clip-rule="evenodd" d="M10.2005 45.2519L18.1645 41.2628L22.0301 43.1887V41.1995H23.7051V44.0277L26.1287 45.2519V51.2073H10.2005V45.2519Z" fill="#94763E"/>
  <path fill-rule="evenodd" clip-rule="evenodd" d="M37.2313 51.2075H52.9409V42.4839H53.7394V41.8066L50.6739 38.2695H42.6575V36.8074H40.9819V38.2695H39.5197L36.4325 41.8073V42.4846H37.2309L37.2313 51.2075Z" fill="#94763E"/>
  <path fill-rule="evenodd" clip-rule="evenodd" d="M51.5479 46.0533L58.4488 39.4971V51.2075H51.5479V46.0533Z" fill="#94763E"/>
  <path fill-rule="evenodd" clip-rule="evenodd" d="M63.7391 46.2592L58.5062 41.2876V51.2081H63.7391V46.2592Z" fill="#94763E"/>
  <path fill-rule="evenodd" clip-rule="evenodd" d="M25.0239 51.2074H38.6083V36.1469L35.3383 32.1396L32.0677 36.1469V37.5159H28.099L25.0237 41.6721L25.0239 51.2074Z" fill="#94763E"/>
  <path fill-rule="evenodd" clip-rule="evenodd" d="M11.7075 44.4971V51.2076H10.2004V45.252L11.7075 44.4971Z" fill="#94763E"/>
  <path fill-rule="evenodd" clip-rule="evenodd" d="M25.0239 44.6938L26.1285 45.2519V51.2075H25.0239V44.6938Z" fill="#94763E"/>
  <path fill-rule="evenodd" clip-rule="evenodd" d="M51.5479 51.2075H52.9404V44.7297L51.5479 46.0527V51.2075Z" fill="#94763E"/>
  <path fill-rule="evenodd" clip-rule="evenodd" d="M37.2313 51.2077H38.6081V39.314L36.4323 41.807V42.4843H37.2309L37.2313 51.2077Z" fill="#94763E"/>
  <path fill-rule="evenodd" clip-rule="evenodd" d="M21.9563 25.7678H29.7893C29.8586 25.7678 29.925 25.7953 29.9739 25.8443C30.0229 25.8933 30.0504 25.9597 30.0504 26.0289V37.5162H29.5282V26.29H22.2174V41.1997H22.0294V43.1889L21.6952 43.0223V26.0289C21.6952 25.9597 21.7226 25.8933 21.7716 25.8443C21.8206 25.7953 21.887 25.7678 21.9563 25.7678Z" fill="#1A1818"/>
  <path fill-rule="evenodd" clip-rule="evenodd" d="M27.9921 19.9692L35.8121 12.602C35.8492 12.5674 35.8956 12.5444 35.9456 12.5358C35.9956 12.5272 36.047 12.5333 36.0936 12.5534C36.1401 12.5735 36.1798 12.6068 36.2078 12.6491C36.2358 12.6914 36.2508 12.741 36.2511 12.7917V33.2593L35.7289 32.6193V13.3952L28.418 20.2826V37.5153H28.0981L27.8958 37.7886V20.171C27.8959 20.1323 27.9046 20.0942 27.9212 20.0593C27.9379 20.0244 27.9621 19.9936 27.9921 19.9692Z" fill="#1A1818"/>
  <path fill-rule="evenodd" clip-rule="evenodd" d="M34.4068 26.6368L36.8229 23.6818L36.8344 23.6688L39.2473 20.699C39.272 20.6689 39.303 20.6447 39.3382 20.6281C39.3734 20.6115 39.4119 20.6031 39.4508 20.6033C39.4897 20.6035 39.5281 20.6124 39.5631 20.6294C39.5981 20.6463 39.6289 20.6709 39.6532 20.7013L42.0754 23.6822L44.4967 26.6436C44.5349 26.6903 44.5557 26.7487 44.5557 26.809V38.2696H44.0335V26.903L41.6714 24.0134L39.4501 21.276L37.2395 23.996C37.2356 24.0014 37.2316 24.0066 37.2273 24.0117L34.8651 26.9012V32.7196L34.3429 33.3595V26.8086C34.3428 26.7455 34.3655 26.6845 34.4068 26.6368Z" fill="#1A1818"/>
  <path fill-rule="evenodd" clip-rule="evenodd" d="M42.6714 33.7345H47.5598V31.7089C47.5598 31.6396 47.5873 31.5732 47.6363 31.5242C47.6852 31.4753 47.7516 31.4478 47.8209 31.4478H52.064C52.1332 31.4478 52.1996 31.4753 52.2486 31.5242C52.2976 31.5732 52.3251 31.6396 52.3251 31.7089V40.1745L51.8029 39.5719V31.9701H48.082V33.9956C48.082 34.0648 48.0545 34.1313 48.0055 34.1802C47.9566 34.2292 47.8901 34.2567 47.8209 34.2567H42.9325V38.2697H42.6575V36.8075H42.4103V33.9956C42.4103 33.9263 42.4378 33.8599 42.4868 33.811C42.5358 33.762 42.6022 33.7345 42.6714 33.7345Z" fill="#1A1818"/>
  <path fill-rule="evenodd" clip-rule="evenodd" d="M49.8612 28.5112H51.0687V26.8353C51.0687 26.7661 51.0962 26.6997 51.1451 26.6507C51.1941 26.6017 51.2605 26.5742 51.3298 26.5742H56.9814C57.0506 26.5742 57.1171 26.6017 57.166 26.6507C57.215 26.6997 57.2425 26.7661 57.2425 26.8353V28.5112H58.45C58.5193 28.5112 58.5857 28.5388 58.6347 28.5877C58.6836 28.6367 58.7111 28.7031 58.7111 28.7724V41.4819L58.5059 41.2868V46.8076C58.4875 46.8116 58.4688 46.8137 58.45 46.8136H58.4488V39.497L58.1889 39.7439V29.0336H56.9814C56.9121 29.0336 56.8457 29.0061 56.7968 28.9572C56.7478 28.9082 56.7203 28.8418 56.7203 28.7725V27.0964H51.5909V28.7725C51.5909 28.8418 51.5634 28.9082 51.5144 28.9572C51.4654 29.0061 51.399 29.0336 51.3298 29.0336H50.1221V38.2695H49.5999V28.7725C49.5998 28.7382 49.6066 28.7042 49.6197 28.6725C49.6328 28.6408 49.6521 28.612 49.6763 28.5877C49.7006 28.5635 49.7294 28.5442 49.7611 28.5311C49.7928 28.518 49.8269 28.5112 49.8612 28.5112Z" fill="#1A1818"/>
  <path fill-rule="evenodd" clip-rule="evenodd" d="M13.9609 32.8701H24.182C24.2513 32.8701 24.3177 32.8976 24.3667 32.9466C24.4157 32.9956 24.4431 33.062 24.4431 33.1312V34.7455C24.4431 34.8148 24.4157 34.8812 24.3667 34.9302C24.3177 34.9791 24.2513 35.0066 24.182 35.0066H23.464V41.1996H22.9418V34.7455C22.9418 34.6763 22.9693 34.6099 23.0183 34.5609C23.0673 34.5119 23.1337 34.4844 23.2029 34.4844H23.9209V33.3923H13.2431V34.4844H13.9609C14.0302 34.4844 14.0966 34.5119 14.1456 34.5609C14.1946 34.6099 14.222 34.6763 14.222 34.7455V43.2376L13.6998 43.4987V35.0066H12.9818C12.9126 35.0066 12.8462 34.9791 12.7972 34.9302C12.7482 34.8812 12.7207 34.8148 12.7207 34.7455V33.1312C12.7207 33.062 12.7482 32.9956 12.7972 32.9466C12.8462 32.8976 12.9126 32.8701 12.9818 32.8701H13.9609Z" fill="#1A1818"/>
  <path fill-rule="evenodd" clip-rule="evenodd" d="M8.49454 23.0454H9.43449V21.5088C9.43449 21.4395 9.46198 21.3731 9.51094 21.3241C9.55991 21.2752 9.62634 21.2476 9.69559 21.2476H10.5766V20.2979C10.5766 20.2287 10.604 20.1623 10.653 20.1133C10.702 20.0643 10.7684 20.0368 10.8377 20.0368H11.5987V13.5587C11.5987 13.4895 11.6262 13.423 11.6752 13.3741C11.7241 13.3251 11.7906 13.2976 11.8598 13.2976H12.9613C13.0305 13.2976 13.0969 13.3251 13.1459 13.3741C13.1949 13.423 13.2224 13.4895 13.2224 13.5587V20.0368H13.9834C14.0527 20.0368 14.1191 20.0643 14.168 20.1133C14.217 20.1623 14.2445 20.2287 14.2445 20.2979V21.2475H15.1255C15.1947 21.2475 15.2611 21.275 15.3101 21.324C15.3591 21.3729 15.3866 21.4393 15.3866 21.5086V23.0453H16.3265C16.3958 23.0453 16.4622 23.0728 16.5112 23.1217C16.5601 23.1707 16.5876 23.2371 16.5876 23.3064V42.0525L16.0654 42.3136V23.5678H15.1255C15.0562 23.5678 14.9898 23.5403 14.9408 23.4913C14.8919 23.4424 14.8644 23.376 14.8644 23.3067V21.7699H13.9839C13.9147 21.7699 13.8483 21.7423 13.7993 21.6934C13.7504 21.6444 13.7228 21.578 13.7228 21.5088V20.559H12.962C12.8927 20.559 12.8263 20.5315 12.7774 20.4826C12.7284 20.4336 12.7009 20.3672 12.7009 20.2979V13.8198H12.1214V20.2979C12.1214 20.3672 12.0939 20.4336 12.0449 20.4826C11.996 20.5315 11.9296 20.559 11.8603 20.559H11.0993V21.5088C11.0993 21.578 11.0718 21.6444 11.0228 21.6934C10.9739 21.7423 10.9074 21.7699 10.8382 21.7699H9.95721V23.3065C9.95721 23.3758 9.92972 23.4422 9.88075 23.4912C9.83179 23.5401 9.76535 23.5676 9.6961 23.5676H8.75615V38.9742L8.23395 38.5565V23.3065C8.23395 23.2374 8.26138 23.171 8.31023 23.1221C8.35908 23.0731 8.42538 23.0456 8.49454 23.0454Z" fill="#1A1818"/>
  <path fill-rule="evenodd" clip-rule="evenodd" d="M11.9686 43.039V51.2077C11.9686 51.277 11.9411 51.3434 11.8921 51.3923C11.8431 51.4413 11.7767 51.4688 11.7075 51.4688H1.24874C1.17949 51.4688 1.1131 51.4413 1.06413 51.3923C1.01517 51.3434 0.98764 51.277 0.98764 51.2077V43.039H0.265444C0.196195 43.039 0.129803 43.0115 0.0808366 42.9626C0.0318704 42.9136 0.00434175 42.8472 0.00434175 42.7779V42.172C-0.00504456 42.1211 0.000862454 42.0685 0.0213406 42.0209C0.0418187 41.9733 0.0759729 41.9328 0.119424 41.9046L3.20739 39.4358L6.31606 36.9508C6.36283 36.9135 6.42107 36.8935 6.4809 36.8941C6.54074 36.8947 6.5985 36.9159 6.64452 36.9541L9.74885 39.4358L12.8574 41.921C12.8933 41.9496 12.921 41.9872 12.9376 42.0301C12.9542 42.0729 12.9591 42.1193 12.9519 42.1647V42.7779C12.9519 42.8472 12.9244 42.9136 12.8754 42.9626C12.8264 43.0115 12.76 43.039 12.6908 43.039H11.9686ZM11.4464 50.9464V42.7779C11.4464 42.7087 11.4739 42.6423 11.5228 42.5933C11.5718 42.5443 11.6382 42.5168 11.7075 42.5168H12.4297V42.2442L9.42455 39.8421L6.4781 37.4863L3.53164 39.8416L0.526546 42.2437V42.5168H1.24874C1.31799 42.5168 1.38443 42.5443 1.43339 42.5933C1.48236 42.6423 1.50984 42.7087 1.50984 42.7779V50.9464H11.4464Z" fill="#1A1818"/>
  <path fill-rule="evenodd" clip-rule="evenodd" d="M10.1057 45.0086L18.0481 41.0303C18.0841 41.0123 18.1239 41.003 18.1642 41.003C18.2045 41.003 18.2442 41.0123 18.2803 41.0303L21.7686 42.7682V41.2006C21.7686 41.1313 21.7961 41.0649 21.8451 41.0159C21.8941 40.967 21.9605 40.9395 22.0297 40.9395H23.7048C23.774 40.9395 23.8405 40.967 23.8894 41.0159C23.9384 41.0649 23.9659 41.1313 23.9659 41.2006V43.8688L26.2462 45.0205C26.2892 45.0422 26.3254 45.0755 26.3506 45.1165C26.3759 45.1576 26.3894 45.2048 26.3894 45.253V51.2086C26.3894 51.2779 26.3619 51.3443 26.3129 51.3932C26.264 51.4422 26.1976 51.4697 26.1283 51.4697H10.2002C10.131 51.4697 10.0646 51.4422 10.0156 51.3932C9.96663 51.3443 9.9391 51.2779 9.9391 51.2086V45.252C9.93903 45.1993 9.95488 45.1479 9.98457 45.1044C10.0143 45.0609 10.0564 45.0274 10.1055 45.0083L10.1057 45.0086ZM18.1637 41.5539L10.4615 45.412V50.9463H25.8674V45.4118L23.6045 44.2689C23.5569 44.249 23.5162 44.2155 23.4875 44.1726C23.4589 44.1297 23.4436 44.0792 23.4437 44.0276V41.4606H22.2908V43.1888C22.2908 43.2332 22.2794 43.2769 22.2577 43.3157C22.2361 43.3545 22.2049 43.3871 22.1672 43.4105C22.1294 43.4339 22.0863 43.4472 22.0419 43.4493C21.9976 43.4514 21.9534 43.4421 21.9136 43.4224L18.1637 41.5539Z" fill="#1A1818"/>
  <path fill-rule="evenodd" clip-rule="evenodd" d="M37.4924 50.9463H52.6798V42.4836C52.6798 42.4144 52.7073 42.348 52.7563 42.299C52.8053 42.2501 52.8717 42.2225 52.9409 42.2225H53.4782V41.9026L50.5557 38.5306H42.6575C42.5883 38.5306 42.5218 38.503 42.4729 38.4541C42.4239 38.4051 42.3964 38.3387 42.3964 38.2695V37.0684H41.243V38.2695C41.243 38.3387 41.2155 38.4051 41.1665 38.4541C41.1176 38.503 41.0512 38.5306 40.9819 38.5306H39.6369L36.6934 41.9036V42.2232H37.2308C37.3 42.2232 37.3664 42.2507 37.4154 42.2997C37.4643 42.3487 37.4919 42.4151 37.4919 42.4843V50.947L37.4924 50.9463ZM52.9409 51.4685H37.2313C37.162 51.4685 37.0956 51.441 37.0467 51.392C36.9977 51.3431 36.9702 51.2767 36.9702 51.2074V42.7449H36.4328C36.3636 42.7449 36.2971 42.7174 36.2482 42.6684C36.1992 42.6195 36.1717 42.5531 36.1717 42.4838V41.8065C36.1716 41.7435 36.1945 41.6826 36.2361 41.6352L39.3086 38.1142C39.3329 38.0812 39.3646 38.0544 39.4011 38.0359C39.4377 38.0174 39.4781 38.0078 39.5191 38.0078H40.7201V36.8068C40.7201 36.7375 40.7476 36.6711 40.7966 36.6221C40.8456 36.5732 40.912 36.5457 40.9812 36.5457H42.6563C42.7255 36.5457 42.7919 36.5732 42.8409 36.6221C42.8898 36.6711 42.9174 36.7375 42.9174 36.8068V38.0078H50.6726C50.71 38.0078 50.7469 38.0158 50.7809 38.0314C50.8149 38.047 50.8451 38.0697 50.8695 38.098L53.9218 41.6203C53.9464 41.6445 53.9659 41.6734 53.9792 41.7052C53.9925 41.7371 53.9993 41.7713 53.9993 41.8058V42.4831C53.9993 42.5524 53.9717 42.6188 53.9228 42.6677C53.8738 42.7167 53.8074 42.7442 53.7382 42.7442H53.2015V51.2069C53.2016 51.2412 53.1949 51.2753 53.1818 51.307C53.1687 51.3388 53.1495 51.3677 53.1253 51.392C53.101 51.4163 53.0722 51.4356 53.0405 51.4488C53.0088 51.4619 52.9748 51.4687 52.9404 51.4687L52.9409 51.4685Z" fill="#1A1818"/>
  <path fill-rule="evenodd" clip-rule="evenodd" d="M51.3813 45.8522L58.2693 39.3083C58.3064 39.2734 58.3527 39.2501 58.4028 39.2413C58.4529 39.2324 58.5044 39.2384 58.5512 39.2584C58.5979 39.2785 58.6378 39.3117 58.6659 39.3541C58.694 39.3965 58.7091 39.4461 58.7093 39.497V51.2076C58.7093 51.2768 58.6819 51.3432 58.6329 51.3922C58.5839 51.4412 58.5175 51.4687 58.4482 51.4687H51.5479C51.4786 51.4687 51.4122 51.4412 51.3632 51.3922C51.3142 51.3432 51.2868 51.2768 51.2868 51.2076V46.0532C51.2868 46.0148 51.2952 45.9769 51.3116 45.9422C51.3279 45.9074 51.3517 45.8767 51.3813 45.8522ZM58.1874 40.1043L51.809 46.1645V50.9463H58.1877L58.1874 40.1043Z" fill="#1A1818"/>
  <path fill-rule="evenodd" clip-rule="evenodd" d="M63.4778 46.3698L58.7672 41.8945V50.946H63.4778V46.3698ZM58.6847 41.0983L63.9048 46.0575C63.9343 46.082 63.9581 46.1128 63.9744 46.1475C63.9907 46.1823 63.9992 46.2202 63.9992 46.2586V51.2077C63.9992 51.2769 63.9716 51.3433 63.9227 51.3923C63.8737 51.4413 63.8073 51.4688 63.7381 51.4688H58.5052C58.436 51.4688 58.3695 51.4413 58.3206 51.3923C58.2716 51.3433 58.2441 51.2769 58.2441 51.2077V41.287C58.2444 41.2362 58.2595 41.1865 58.2876 41.1441C58.3157 41.1018 58.3556 41.0685 58.4023 41.0485C58.449 41.0284 58.5006 41.0225 58.5506 41.0313C58.6007 41.0402 58.6471 41.0635 58.6842 41.0983H58.6847Z" fill="#1A1818"/>
  <path fill-rule="evenodd" clip-rule="evenodd" d="M25.2848 50.9465H38.347V36.239L35.3381 32.5515L32.3286 36.239V37.5163C32.3286 37.5855 32.3012 37.652 32.2522 37.7009C32.2032 37.7499 32.1368 37.7774 32.0675 37.7774H28.2297L25.2848 41.7571V50.9465ZM32.0675 51.4687H25.0237C24.9545 51.4687 24.888 51.4412 24.8391 51.3922C24.7901 51.3433 24.7626 51.2769 24.7626 51.2076V41.6725C24.7624 41.6166 24.7804 41.5622 24.8138 41.5174L27.8774 37.3777C27.9009 37.3403 27.9336 37.3095 27.9723 37.2882C28.0111 37.2669 28.0546 37.2558 28.0988 37.2559H31.8064V36.1478H31.8073C31.8071 36.0879 31.8277 36.0299 31.8656 35.9836L35.1346 31.9781C35.1462 31.9635 35.1594 31.9503 35.1739 31.9386C35.2275 31.8955 35.296 31.8752 35.3645 31.8822C35.4329 31.8893 35.4958 31.923 35.5395 31.9762L38.7963 35.9674C38.8427 36.016 38.8686 36.0806 38.8686 36.1478V51.2085C38.8686 51.2777 38.8411 51.3442 38.7921 51.3931C38.7431 51.4421 38.6767 51.4696 38.6075 51.4696H32.0669L32.0675 51.4687Z" fill="#1A1818"/>
</svg>