<svg xmlns="http://www.w3.org/2000/svg" width="63" height="63" viewBox="0 0 63 63" fill="none">
  <path d="M55.125 55.125H20.475C16.0646 55.125 13.8594 55.125 12.1748 54.2666C10.693 53.5117 9.48833 52.3071 8.73332 50.8252C7.875 49.1405 7.875 46.9355 7.875 42.525V7.875M37.8751 26.25L33.6402 21.6895C32.571 20.5379 32.0363 19.9621 31.4105 19.7485C30.8608 19.5608 30.2642 19.5608 29.7145 19.7485C29.0887 19.9621 28.5542 20.5379 27.4848 21.6895L19.4973 30.2915C19.0825 30.7382 18.8751 30.9613 18.727 31.2178C18.5958 31.4449 18.4993 31.6906 18.4409 31.9465C18.375 32.235 18.375 32.5398 18.375 33.1493V40.425C18.375 41.8953 18.375 42.6303 18.6611 43.1918C18.9128 43.6858 19.3144 44.0871 19.8083 44.3389C20.3698 44.625 21.1049 44.625 22.575 44.625H48.3C49.7703 44.625 50.5053 44.625 51.0668 44.3389C51.5608 44.0871 51.9621 43.6858 52.2139 43.1918C52.5 42.6303 52.5 41.8953 52.5 40.425V33.1493C52.5 32.5398 52.5 32.235 52.4341 31.9465C52.3756 31.6906 52.2792 31.4449 52.148 31.2178C51.9999 30.9613 51.7926 30.7382 51.3778 30.2915L47.6251 26.25C47.151 25.7396 46.914 25.4844 46.6757 25.3202C45.7792 24.7036 44.5956 24.7036 43.6994 25.3202C43.4611 25.4844 43.224 25.7396 42.75 26.25C42.2761 26.7603 42.0391 27.0157 41.8005 27.1798C40.9043 27.7964 39.7207 27.7964 38.8245 27.1798C38.5859 27.0157 38.3489 26.7603 37.8751 26.25Z" stroke="#94763E" stroke-width="5.25" stroke-linecap="round" stroke-linejoin="round"/>
</svg>