<svg width="64" height="64" viewBox="0 0 64 64" fill="none" xmlns="http://www.w3.org/2000/svg">
<g clip-path="url(#clip0_26_1299)">
<path d="M50.176 34.1455C42.54 34.1455 36.3483 40.3392 36.3483 47.9734C36.3483 55.6056 42.54 61.7955 50.176 61.7955C57.8083 61.7955 64 55.6057 64 47.9734C64 40.3391 57.8083 34.1455 50.176 34.1455ZM51.0632 58.1926V56.9988C51.0632 56.505 50.665 56.106 50.176 56.106C49.6822 56.106 49.2849 56.5061 49.2849 56.9988V58.1926C44.3343 57.7669 40.3795 53.8113 39.9538 48.8614H41.1513C41.6404 48.8614 42.0404 48.4631 42.0404 47.9742C42.0404 47.4766 41.6404 47.0831 41.1513 47.0831H39.9538C40.3794 42.1314 44.3351 38.1796 49.2849 37.752V38.9476C49.2849 39.4395 49.6833 39.8387 50.176 39.8387C50.6651 39.8387 51.0632 39.4386 51.0632 38.9476V37.752C56.0158 38.1796 59.9706 42.1314 60.3944 47.0831H59.1969C58.7051 47.0831 58.3078 47.4775 58.3078 47.9742C58.3078 48.4643 58.706 48.8614 59.1969 48.8614H60.3944C59.9716 53.8112 56.0158 57.7659 51.0632 58.1926Z" fill="black"/>
<path d="M55.3271 46.6366H52.1197C51.6921 46.0199 50.9818 45.6104 50.1759 45.6104C50.1636 45.6104 50.1504 45.6142 50.1361 45.6142L47.2135 41.4996C46.7879 40.9008 45.9536 40.7618 45.3529 41.1855C44.7541 41.6131 44.6103 42.4492 45.0388 43.0499L47.9635 47.1663C47.8737 47.4188 47.816 47.6875 47.816 47.9741C47.816 49.2776 48.8707 50.3322 50.1759 50.3322C50.9818 50.3322 51.6959 49.9265 52.1197 49.3078H55.3271C56.063 49.3078 56.6618 48.713 56.6618 47.9751C56.6618 47.2335 56.0631 46.6366 55.3271 46.6366Z" fill="black"/>
<path d="M13.3067 20.4539C15.7263 20.4539 17.6842 18.4941 17.6842 16.0774V6.58068C17.6842 4.163 15.7263 2.2041 13.3067 2.2041C10.889 2.2041 8.93201 4.163 8.93201 6.58068V16.0783C8.93201 18.4941 10.8889 20.4539 13.3067 20.4539Z" fill="black"/>
<path d="M40.1127 20.4539C42.5323 20.4539 44.4902 18.4941 44.4902 16.0774V6.58068C44.4902 4.163 42.5322 2.2041 40.1127 2.2041C37.6969 2.2041 35.7381 4.163 35.7381 6.58068V16.0783C35.7371 18.4941 37.697 20.4539 40.1127 20.4539Z" fill="black"/>
<path d="M19.2374 32.6058C19.2374 31.3563 18.2272 30.3442 16.9748 30.3442H12.7808C11.5313 30.3442 10.5164 31.3563 10.5164 32.6058V36.798C10.5164 38.0493 11.5313 39.0643 12.7808 39.0643H16.9748C18.2261 39.0643 19.2374 38.0493 19.2374 36.798V32.6058Z" fill="black"/>
<path d="M31.0721 32.6083C31.0721 31.3588 30.0591 30.3477 28.8125 30.3477H24.6165C23.367 30.3477 22.3558 31.3588 22.3558 32.6083V36.8014C22.3558 38.049 23.3669 39.064 24.6165 39.064H28.8125C30.06 39.064 31.0721 38.049 31.0721 36.8014V32.6083Z" fill="black"/>
<path d="M36.4495 30.3442C35.198 30.3442 34.185 31.3563 34.185 32.6058V36.798C34.185 37.9301 35.0287 38.8231 36.1109 38.9924C37.7698 36.4082 40.1194 34.3159 42.9013 32.9633V32.6058C42.9013 31.3563 41.8902 30.3442 40.6387 30.3442H36.4495Z" fill="black"/>
<path d="M12.7817 41.708C11.5322 41.708 10.5172 42.7191 10.5172 43.9686V48.1626C10.5172 49.4121 11.5322 50.4232 12.7817 50.4232H16.9777C18.2271 50.4232 19.2373 49.4121 19.2373 48.1626V43.9686C19.2373 42.7191 18.2271 41.708 16.9777 41.708H12.7817Z" fill="black"/>
<path d="M28.8076 41.7095H24.6155C23.3661 41.7095 22.3549 42.7226 22.3549 43.9721V48.1623C22.3549 49.4117 23.3661 50.4229 24.6155 50.4229H28.8076C30.0552 50.4229 31.0683 49.4117 31.0683 48.1623V43.9721C31.0683 42.7225 30.0552 41.7095 28.8076 41.7095Z" fill="black"/>
<path d="M34.9217 54.7545H13.6443C9.98191 54.7545 7.00141 51.7741 7.00141 48.1154V25.892H46.4219V31.7072C47.6298 31.4291 48.8813 31.2664 50.176 31.2664C51.2865 31.2664 52.3704 31.3809 53.4213 31.5899V10.688H47.1161V16.0776C47.1161 19.9386 43.9767 23.079 40.1127 23.079C36.2508 23.079 33.1114 19.9387 33.1114 16.0776V10.688H20.3099V16.0776C20.3099 19.9386 17.1685 23.079 13.3066 23.079C9.44638 23.079 6.30515 19.9387 6.30515 16.0776V10.688H0V48.1145C0 55.6475 6.10844 61.7588 13.6443 61.7588H39.7761C40.0864 61.7588 40.3928 61.7333 40.6974 61.7133C38.187 59.9785 36.1816 57.5712 34.9217 54.7545Z" fill="black"/>
</g>
<defs>
<clipPath id="clip0_26_1299">
<rect width="64" height="64" fill="white"/>
</clipPath>
</defs>
</svg>
