<svg width="48" height="60" viewBox="0 0 48 60" fill="none" xmlns="http://www.w3.org/2000/svg">
<path d="M23.9931 58.75L23.9931 58.7501L24.0069 58.75C24.381 58.7465 24.7449 58.6272 25.0485 58.4085L25.0582 58.4015L25.0676 58.3942C25.5195 58.0462 30.9152 53.8835 36.2043 47.6201C41.4726 41.3813 46.75 32.9247 46.75 24C46.75 17.9663 44.3531 12.1798 40.0867 7.91332C35.8202 3.64687 30.0337 1.25 24 1.25C17.9663 1.25 12.1798 3.64687 7.91332 7.91332C3.64687 12.1798 1.25 17.9663 1.25 24C1.25 32.9247 6.52737 41.3813 11.7957 47.6201C17.0848 53.8835 22.4805 58.0462 22.9324 58.3942L22.9418 58.4015L22.9515 58.4085C23.2551 58.6272 23.619 58.7465 23.9931 58.75ZM10.3882 10.3882C13.9983 6.77812 18.8946 4.75 24 4.75C29.1054 4.75 34.0017 6.77812 37.6118 10.3882C41.2219 13.9983 43.25 18.8946 43.25 24C43.25 31.0896 39.2355 38.1709 34.6917 43.8857C30.5299 49.1201 26.0069 53.1055 24 54.7547C21.9929 53.1057 17.47 49.1226 13.3083 43.8894C8.76455 38.176 4.75 31.0946 4.75 24C4.75 18.8946 6.77812 13.9983 10.3882 10.3882Z" fill="black" stroke="black" stroke-width="1.5"/>
<path d="M17.2198 34.49C17.008 34.4908 16.8014 34.4242 16.6298 34.3C16.4893 34.1984 16.3776 34.062 16.3058 33.9042C16.2339 33.7464 16.2043 33.5727 16.2198 33.4L16.8798 26.4L12.2298 21.18C12.1142 21.0498 12.0346 20.8917 11.9988 20.7213C11.9631 20.5509 11.9725 20.3742 12.026 20.2085C12.0795 20.0428 12.1754 19.894 12.3041 19.7768C12.4328 19.6595 12.5899 19.5779 12.7598 19.54L19.5898 18L23.1198 12C23.2071 11.8489 23.3323 11.7232 23.4832 11.6355C23.6341 11.5478 23.8053 11.5011 23.9798 11.5C24.1533 11.5 24.3239 11.5452 24.4747 11.6311C24.6255 11.717 24.7513 11.8407 24.8398 11.99L28.3998 17.99L35.2298 19.49C35.3999 19.5262 35.5576 19.6061 35.6874 19.7218C35.8171 19.8376 35.9145 19.9851 35.9698 20.15C36.0292 20.3193 36.042 20.5015 36.0069 20.6774C35.9717 20.8534 35.8898 21.0166 35.7698 21.15L31.1398 26.4L31.8398 33.4C31.8571 33.5743 31.8284 33.7501 31.7565 33.9098C31.6845 34.0695 31.5719 34.2075 31.4298 34.31C31.2877 34.4151 31.1203 34.4806 30.9446 34.4999C30.769 34.5192 30.5913 34.4917 30.4298 34.42L23.9998 31.6L17.5898 34.41C17.472 34.4578 17.3468 34.4849 17.2198 34.49ZM14.8598 21.15L18.6698 25.43C18.7615 25.5326 18.8311 25.6531 18.8741 25.7839C18.9171 25.9147 18.9327 26.0529 18.9198 26.19L18.3798 31.89L23.6198 29.59C23.746 29.5349 23.8821 29.5065 24.0198 29.5065C24.1575 29.5065 24.2936 29.5349 24.4198 29.59L29.6798 31.87L29.1098 26.16C29.0956 26.0236 29.1095 25.8858 29.1508 25.7551C29.1921 25.6243 29.2598 25.5035 29.3498 25.4L33.1398 21.11L27.5498 19.88C27.4157 19.8519 27.2889 19.7966 27.177 19.7175C27.0652 19.6384 26.9709 19.5371 26.8998 19.42L23.9998 14.49L21.0998 19.43C21.0309 19.5479 20.9385 19.6504 20.8285 19.7312C20.7184 19.8121 20.5929 19.8695 20.4598 19.9L14.8598 21.15Z" fill="#979797" fill-opacity="0.6"/>
<path d="M17.2307 34.99L17.2216 34.99C16.9039 34.9911 16.5941 34.8914 16.3368 34.7052C16.3367 34.7051 16.3367 34.7051 16.3366 34.705L16.6298 34.3C16.4893 34.1984 16.3776 34.062 16.3058 33.9042C16.2339 33.7464 16.2043 33.5727 16.2198 33.4L17.2307 34.99ZM17.2307 34.99L17.2398 34.9896C17.4246 34.9822 17.6067 34.9428 17.778 34.8732L17.7781 34.8734L17.7905 34.8679L23.9998 32.146L30.2271 34.877C30.2274 34.8772 30.2278 34.8774 30.2281 34.8775C30.4702 34.9847 30.7362 35.0259 30.9993 34.9969C31.2618 34.968 31.5121 34.8703 31.7247 34.7137C31.9367 34.5602 32.1048 34.3538 32.2123 34.1152C32.3202 33.8756 32.3634 33.6119 32.3373 33.3505L32.3373 33.3503L31.659 26.5672L36.1416 21.4844C36.1422 21.4837 36.1428 21.483 36.1434 21.4823C36.3224 21.2826 36.4445 21.0385 36.4971 20.7755C36.5497 20.5127 36.5309 20.2407 36.4427 19.9876C36.3596 19.7417 36.214 19.5215 36.0202 19.3487C35.826 19.1755 35.5901 19.0558 35.3357 19.0013C35.3351 19.0012 35.3344 19.0011 35.3338 19.0009L28.7191 17.5482L25.2699 11.735C25.2699 11.735 25.2698 11.7349 25.2698 11.7349C25.1371 11.511 24.9483 11.3255 24.7222 11.1967C24.496 11.0678 24.2402 11 23.9799 11L23.9768 11C23.715 11.0016 23.4582 11.0716 23.2319 11.2032C23.0062 11.3344 22.8187 11.5222 22.6879 11.7481L19.2686 17.5599L12.6509 19.052C12.6507 19.052 12.6505 19.0521 12.6503 19.0521C12.3957 19.1091 12.1603 19.2314 11.9674 19.4072C11.7743 19.583 11.6305 19.8062 11.5502 20.0547C11.4699 20.3032 11.4559 20.5684 11.5095 20.824C11.5631 21.0796 11.6825 21.3167 11.8559 21.512L11.8565 21.5126L16.3616 26.5699L17.2307 34.99ZM21.5314 19.6824L24.0002 15.4769L26.4688 19.6735L26.4688 19.6735L26.4723 19.6794C26.5789 19.855 26.7205 20.0069 26.8882 20.1256C27.0551 20.2438 27.2445 20.3265 27.4446 20.3688C27.4455 20.369 27.4464 20.3692 27.4473 20.3694L32.2025 21.4157L28.9751 25.069L28.9751 25.0689L28.9725 25.0719C28.8376 25.2271 28.736 25.4084 28.674 25.6045C28.6122 25.8002 28.5912 26.0065 28.6124 26.2106C28.6124 26.2111 28.6125 26.2115 28.6125 26.2119L29.0977 31.0727L24.6198 29.1317C24.6195 29.1316 24.6192 29.1315 24.6188 29.1313C24.4299 29.049 24.2259 29.0065 24.0198 29.0065C23.8133 29.0065 23.6091 29.0491 23.4198 29.1317L23.4188 29.1322L18.9578 31.0903L19.4176 26.2372L19.4176 26.2368C19.4369 26.0312 19.4136 25.8238 19.3491 25.6277C19.2846 25.4318 19.1805 25.2513 19.0432 25.0975C19.043 25.0972 19.0428 25.097 19.0426 25.0968L15.7987 21.4527L20.5687 20.388L20.5687 20.388L20.5714 20.3874C20.7711 20.3416 20.9593 20.2555 21.1244 20.1342C21.2894 20.0131 21.4278 19.8594 21.5312 19.6827C21.5313 19.6826 21.5314 19.6825 21.5314 19.6824Z" stroke="#979797" stroke-opacity="0.6"/>
</svg>
