<svg xmlns="http://www.w3.org/2000/svg" width="48" height="60" viewBox="0 0 48 60" fill="none">
  <path d="M23.9931 58.75L23.9931 58.7501L24.0069 58.75C24.381 58.7465 24.7449 58.6272 25.0485 58.4085L25.0582 58.4015L25.0676 58.3942C25.5195 58.0462 30.9152 53.8835 36.2043 47.6201C41.4726 41.3813 46.75 32.9247 46.75 24C46.75 17.9663 44.3531 12.1798 40.0867 7.91332C35.8202 3.64687 30.0337 1.25 24 1.25C17.9663 1.25 12.1798 3.64687 7.91332 7.91332C3.64687 12.1798 1.25 17.9663 1.25 24C1.25 32.9247 6.52737 41.3813 11.7957 47.6201C17.0848 53.8835 22.4805 58.0462 22.9324 58.3942L22.9418 58.4015L22.9515 58.4085C23.2551 58.6272 23.619 58.7465 23.9931 58.75ZM10.3882 10.3882C13.9983 6.77812 18.8946 4.75 24 4.75C29.1054 4.75 34.0017 6.77812 37.6118 10.3882C41.2219 13.9983 43.25 18.8946 43.25 24C43.25 31.0896 39.2355 38.1709 34.6917 43.8857C30.5299 49.1201 26.0069 53.1055 24 54.7547C21.9929 53.1057 17.47 49.1226 13.3083 43.8894C8.76455 38.176 4.75 31.0946 4.75 24C4.75 18.8946 6.77812 13.9983 10.3882 10.3882Z" fill="#94763E" stroke="#94763E" stroke-width="1.5"/>
  <path d="M17.2307 34.99L17.2216 34.99C16.9039 34.9911 16.5941 34.8914 16.3368 34.7052C16.3367 34.7051 16.3367 34.7051 16.3366 34.705L16.6298 34.3C16.4893 34.1984 16.3776 34.062 16.3058 33.9042C16.2339 33.7464 16.2043 33.5727 16.2198 33.4L17.2307 34.99ZM17.2307 34.99L17.2398 34.9896C17.4246 34.9822 17.6067 34.9428 17.778 34.8732L17.7781 34.8734L17.7905 34.8679L23.9998 32.146L30.2271 34.877C30.2274 34.8772 30.2278 34.8774 30.2281 34.8775C30.4702 34.9847 30.7362 35.0259 30.9993 34.9969C31.2619 34.968 31.5121 34.8703 31.7248 34.7137C31.9367 34.5602 32.1048 34.3538 32.2123 34.1152C32.3202 33.8756 32.3634 33.6119 32.3373 33.3505L32.3373 33.3503L31.659 26.5672L36.1416 21.4844C36.1422 21.4837 36.1428 21.483 36.1434 21.4823C36.3224 21.2826 36.4445 21.0385 36.4971 20.7755C36.5497 20.5127 36.5309 20.2406 36.4427 19.9876C36.3595 19.7417 36.214 19.5215 36.0202 19.3487C35.826 19.1755 35.59 19.0558 35.3356 19.0013C35.335 19.0012 35.3344 19.0011 35.3338 19.0009L28.7191 17.5482L25.2699 11.735C25.2699 11.735 25.2698 11.7349 25.2698 11.7349C25.1371 11.511 24.9483 11.3255 24.7222 11.1967C24.496 11.0678 24.2402 11 23.9799 11L23.9768 11C23.715 11.0016 23.4582 11.0716 23.2319 11.2032C23.0062 11.3344 22.8187 11.5222 22.6879 11.7481L19.2686 17.5599L12.6509 19.052C12.6507 19.0521 12.6504 19.0521 12.6502 19.0522C12.3956 19.1091 12.1602 19.2315 11.9674 19.4072C11.7743 19.583 11.6305 19.8062 11.5502 20.0547C11.4699 20.3032 11.4559 20.5684 11.5095 20.824C11.5631 21.0796 11.6825 21.3167 11.8559 21.512L11.8565 21.5126L16.3616 26.5699L17.2307 34.99ZM24.0002 15.4769L21.5314 19.6824C21.5314 19.6824 21.5314 19.6825 21.5313 19.6826C21.4279 19.8593 21.2895 20.013 21.1244 20.1342C20.9593 20.2555 20.7711 20.3416 20.5714 20.3874L20.5687 20.388L20.5687 20.388L15.7987 21.4527L19.0426 25.0968C19.0428 25.097 19.043 25.0973 19.0432 25.0975L19.0433 25.0975L24.0002 15.4769ZM24.0002 15.4769L26.4688 19.6735L26.4688 19.6735L26.4723 19.6794C26.5789 19.855 26.7205 20.0069 26.8882 20.1256C27.0552 20.2438 27.2445 20.3265 27.4446 20.3688C27.4455 20.369 27.4464 20.3692 27.4473 20.3694L32.2025 21.4157L28.9751 25.069L28.9751 25.0689L28.9725 25.0719C28.8376 25.2271 28.736 25.4084 28.674 25.6045C28.6122 25.8002 28.5912 26.0065 28.6124 26.2106C28.6124 26.211 28.6125 26.2115 28.6125 26.2119L29.0977 31.0727L24.6198 29.1317L24.0002 15.4769ZM23.4188 29.1322L18.9578 31.0903L24.6187 29.1312C24.4297 29.049 24.2259 29.0065 24.0198 29.0065C23.8133 29.0065 23.6091 29.0491 23.4198 29.1317L23.4188 29.1322Z" fill="#D6C486" stroke="#D6C486"/>
</svg>