<svg xmlns="http://www.w3.org/2000/svg" width="64" height="64" viewBox="0 0 64 64" fill="none">
  <path d="M18.9 34.2999C18.8 34.1999 18.6 34.1 18.5 34C18.2 33.8 17.9 33.7 17.5 33.7C17 33.7 16.5 33.7 16 33.7C15.9 33.7 15.9 33.7 15.8 33.7C15.5 33.7 15.3 33.7 15 33.9C14.8 34 14.5 34.0999 14.4 34.2999C14.3 34.3999 14.2 34.6 14.1 34.7C13.9 35 13.8 35.3 13.8 35.7C13.8 36.2 13.8 36.7 13.8 37.2C13.8 37.3 13.8 37.3 13.8 37.4C13.8 37.7 13.8 37.9 14 38.2C14.1 38.4 14.2 38.6999 14.4 38.7999C14.5 38.8999 14.7 38.9999 14.8 39.0999C15.1 39.2999 15.4 39.4 15.8 39.4C16.3 39.4 16.8 39.4 17.3 39.4C17.4 39.4 17.4 39.4 17.5 39.4C17.7 39.4 17.8 39.3999 18 39.2999C18 39.2999 18 39.2999 18.1 39.2999C18.3 39.1999 18.5 39.1999 18.6 39.0999C18.7 38.9999 18.9 38.8999 19 38.7999C19.1 38.6999 19.2 38.6 19.3 38.4C19.3 38.3 19.4 38.2 19.4 38.2C19.4 38.1 19.5 38 19.5 37.9C19.5 37.7 19.6 37.6 19.6 37.4C19.6 36.9 19.6 36.4 19.6 35.9C19.6 35.8 19.6 35.8 19.6 35.7C19.6 35.4 19.6 35.2 19.4 34.9C19.2 34.7 19.1 34.3999 18.9 34.2999Z" fill="#94763E"/>
  <path d="M27 34.2999C26.9 34.1999 26.7 34.1 26.6 34C26.3 33.8 26 33.7 25.6 33.7C25.1 33.7 24.6 33.7 24.1 33.7C24 33.7 24 33.7 23.9 33.7C23.6 33.7 23.4 33.7 23.1 33.9C22.9 34 22.6 34.0999 22.5 34.2999C22.4 34.3999 22.3 34.6 22.2 34.7C22 35 21.9 35.3 21.9 35.7C21.9 36.2 21.9 36.7 21.9 37.2C21.9 37.3 21.9 37.3 21.9 37.4C21.9 37.7 21.9 37.9 22.1 38.2C22.2 38.4 22.3 38.6999 22.5 38.7999C22.6 38.8999 22.8 38.9999 22.9 39.0999C23.2 39.2999 23.5 39.4 23.9 39.4C24.4 39.4 24.9 39.4 25.4 39.4C25.5 39.4 25.5 39.4 25.6 39.4C25.8 39.4 25.9 39.3999 26.1 39.2999C26.1 39.2999 26.1 39.2999 26.2 39.2999C26.4 39.1999 26.6 39.1999 26.7 39.0999C26.8 38.9999 27 38.8999 27.1 38.7999C27.2 38.6999 27.3 38.6 27.4 38.4C27.4 38.3 27.5 38.2 27.5 38.2C27.5 38.1 27.6 38 27.6 37.9C27.6 37.7 27.7 37.6 27.7 37.4C27.7 36.9 27.7 36.4 27.7 35.9C27.7 35.8 27.7 35.8 27.7 35.7C27.7 35.4 27.7 35.2 27.5 34.9C27.3 34.7 27.2 34.3999 27 34.2999Z" fill="#94763E"/>
  <path d="M41.3 41.2999C41.2 41.1999 41 41.1 40.9 41C40.6 40.8 40.3 40.7 39.9 40.7C39.4 40.7 38.9 40.7 38.4 40.7C38.3 40.7 38.3 40.7 38.2 40.7C37.9 40.7 37.7 40.7 37.4 40.9C37.2 41 36.9 41.0999 36.8 41.2999C36.7 41.3999 36.6 41.6 36.5 41.7C36.3 42 36.2 42.3 36.2 42.7C36.2 43.2 36.2 43.7 36.2 44.2C36.2 44.3 36.2 44.3 36.2 44.4C36.2 44.7 36.2 44.9 36.4 45.2C36.5 45.4 36.6 45.6999 36.8 45.7999C36.9 45.8999 37.1 45.9999 37.2 46.0999C37.5 46.2999 37.8 46.4 38.2 46.4C38.7 46.4 39.2 46.4 39.7 46.4C39.8 46.4 39.8 46.4 39.9 46.4C40.1 46.4 40.2 46.3999 40.4 46.2999C40.4 46.2999 40.4 46.2999 40.5 46.2999C40.7 46.1999 40.9 46.1999 41 46.0999C41.1 45.9999 41.3 45.8999 41.4 45.7999C41.5 45.6999 41.6 45.6 41.7 45.4C41.7 45.3 41.8 45.2 41.8 45.2C41.8 45.1 41.9 45 41.9 44.9C41.9 44.7 42 44.6 42 44.4C42 43.9 42 43.4 42 42.9C42 42.8 42 42.8 42 42.7C42 42.4 42 42.2 41.8 41.9C41.6 41.7 41.5 41.4999 41.3 41.2999Z" fill="#94763E"/>
  <path d="M49.8 41.2999C49.7 41.1999 49.5 41.1 49.4 41C49.1 40.8 48.8 40.7 48.4 40.7C47.9 40.7 47.4 40.7 46.9 40.7C46.8 40.7 46.8 40.7 46.7 40.7C46.4 40.7 46.2 40.7 45.9 40.9C45.7 41 45.4 41.0999 45.3 41.2999C45.2 41.3999 45.1 41.6 45 41.7C44.8 42 44.7 42.3 44.7 42.7C44.7 43.2 44.7 43.7 44.7 44.2C44.7 44.3 44.7 44.3 44.7 44.4C44.7 44.7 44.7 44.9 44.9 45.2C45 45.4 45.1 45.6999 45.3 45.7999C45.4 45.8999 45.6 45.9999 45.7 46.0999C46 46.2999 46.3 46.4 46.7 46.4C47.2 46.4 47.7 46.4 48.2 46.4C48.3 46.4 48.3 46.4 48.4 46.4C48.6 46.4 48.7 46.3999 48.9 46.2999C48.9 46.2999 48.9 46.2999 49 46.2999C49.2 46.1999 49.4 46.1999 49.5 46.0999C49.6 45.9999 49.8 45.8999 49.9 45.7999C50 45.6999 50.1 45.6 50.2 45.4C50.2 45.3 50.3 45.2 50.3 45.2C50.3 45.1 50.4 45 50.4 44.9C50.4 44.7 50.5 44.6 50.5 44.4C50.5 43.9 50.5 43.4 50.5 42.9C50.5 42.8 50.5 42.8 50.5 42.7C50.5 42.4 50.5 42.2 50.3 41.9C50.1 41.7 50 41.4999 49.8 41.2999Z" fill="#94763E"/>
  <path d="M49.8 48.4001C49.7 48.3001 49.5 48.2 49.4 48.1C49.1 47.9 48.8 47.8 48.4 47.8C47.9 47.8 47.4 47.8 46.9 47.8C46.8 47.8 46.8 47.8 46.7 47.8C46.4 47.8 46.2 47.8 45.9 48C45.7 48.1 45.4 48.2001 45.3 48.4001C45.2 48.5001 45.1 48.7 45 48.8C44.8 49.1 44.7 49.4 44.7 49.8C44.7 50.3 44.7 50.8 44.7 51.3C44.7 51.4 44.7 51.4 44.7 51.5C44.7 51.8 44.7 52 44.9 52.3C45 52.5 45.1 52.8001 45.3 52.9001C45.4 53.0001 45.6 53.1001 45.7 53.2001C46 53.4001 46.3 53.5 46.7 53.5C47.2 53.5 47.7 53.5 48.2 53.5C48.3 53.5 48.3 53.5 48.4 53.5C48.6 53.5 48.7 53.5001 48.9 53.4001C48.9 53.4001 48.9 53.4001 49 53.4001C49.2 53.3001 49.4 53.3001 49.5 53.2001C49.6 53.1001 49.8 53.0001 49.9 52.9001C50 52.8001 50.1 52.7 50.2 52.5C50.2 52.4 50.3 52.3 50.3 52.3C50.3 52.2 50.4 52.1 50.4 52C50.4 51.8 50.5 51.7 50.5 51.5C50.5 51 50.5 50.5 50.5 50C50.5 49.9 50.5 49.9 50.5 49.8C50.5 49.5 50.5 49.3 50.3 49C50.1 48.8 50 48.6001 49.8 48.4001Z" fill="#94763E"/>
  <path d="M41.2 48.2001C41.1 48.1001 40.9 48.0001 40.8 47.9001C40.5 47.7001 40.2 47.6001 39.8 47.6001C39.3 47.6001 38.8 47.6001 38.3 47.6001C38.2 47.6001 38.2 47.6001 38.1 47.6001C37.8 47.6001 37.6 47.6001 37.3 47.8001C37.1 47.9001 36.8 48.0001 36.7 48.2001C36.6 48.3001 36.5 48.5001 36.4 48.6001C36.2 48.9001 36.1 49.2001 36.1 49.6001C36.1 50.1001 36.1 50.6001 36.1 51.1001C36.1 51.2001 36.1 51.2001 36.1 51.3001C36.1 51.6001 36.1 51.8001 36.3 52.1001C36.4 52.3001 36.5 52.6001 36.7 52.7001C36.8 52.8001 37 52.9001 37.1 53.0001C37.4 53.2001 37.7 53.3001 38.1 53.3001C38.6 53.3001 39.1 53.3001 39.6 53.3001C39.7 53.3001 39.7 53.3001 39.8 53.3001C40 53.3001 40.1 53.3001 40.3 53.2001C40.3 53.2001 40.3 53.2001 40.4 53.2001C40.6 53.1001 40.8 53.1001 40.9 53.0001C41 52.9001 41.2 52.8001 41.3 52.7001C41.4 52.6001 41.5 52.5001 41.6 52.3001C41.6 52.2001 41.7 52.1001 41.7 52.1001C41.7 52.0001 41.8 51.9001 41.8 51.8001C41.8 51.6001 41.9 51.5001 41.9 51.3001C41.9 50.8001 41.9 50.3001 41.9 49.8001C41.9 49.7001 41.9 49.7001 41.9 49.6001C41.9 49.3001 41.9 49.1001 41.7 48.8001C41.5 48.6001 41.4 48.4001 41.2 48.2001Z" fill="#94763E"/>
  <path d="M37.1 26.6C37.2 26.7 37.4 26.8 37.5 26.9C37.8 27.1 38.1 27.2 38.5 27.2C39 27.2 39.5 27.2 40 27.2C40.1 27.2 40.1 27.2 40.2 27.2C40.4 27.2 40.5 27.2 40.7 27.1C40.7 27.1 40.7 27.1 40.8 27.1C41 27 41.2 27 41.3 26.9C41.4 26.8 41.6 26.7 41.7 26.6C41.8 26.5 41.9 26.4 42 26.2C42 26.1 42.1 26 42.1 26C42.1 25.9 42.2 25.8 42.2 25.7C42.2 25.5 42.3 25.4 42.3 25.2C42.3 24.7 42.3 24.2 42.3 23.7C42.3 23.6 42.3 23.6 42.3 23.5C42.3 23.2 42.3 23 42.1 22.7C42 22.5 41.9 22.2 41.7 22.1C41.6 22 41.4 21.9 41.3 21.8C41 21.6 40.7 21.5 40.3 21.5C39.8 21.5 39.3 21.5 38.8 21.5C38.7 21.5 38.7 21.5 38.6 21.5C38.3 21.5 38.1 21.5 37.8 21.7C37.6 21.8 37.3 21.9 37.2 22.1C37.1 22.2 37 22.4 36.9 22.5C36.7 22.8 36.6 23.1 36.6 23.5C36.6 24 36.6 24.5 36.6 25C36.6 25.1 36.6 25.1 36.6 25.2C36.6 25.5 36.6 25.7 36.8 26C36.8 26.2 36.9 26.4 37.1 26.6Z" fill="#94763E"/>
  <path d="M28.8 26.6C28.9 26.7 29.1 26.8 29.2 26.9C29.5 27.1 29.8 27.2 30.2 27.2C30.7 27.2 31.2 27.2 31.7 27.2C31.8 27.2 31.8 27.2 31.9 27.2C32.1 27.2 32.2 27.2 32.4 27.1C32.4 27.1 32.4 27.1 32.5 27.1C32.7 27 32.9 27 33 26.9C33.1 26.8 33.3 26.7 33.4 26.6C33.5 26.5 33.6 26.4 33.7 26.2C33.7 26.1 33.8 26 33.8 26C33.8 25.9 33.9 25.8 33.9 25.7C33.9 25.5 34 25.4 34 25.2C34 24.7 34 24.2 34 23.7C34 23.6 34 23.6 34 23.5C34 23.2 34 23 33.8 22.7C33.7 22.5 33.6 22.2 33.4 22.1C33.3 22 33.1 21.9 33 21.8C32.7 21.6 32.4 21.5 32 21.5C31.5 21.5 31 21.5 30.5 21.5C30.4 21.5 30.4 21.5 30.3 21.5C30 21.5 29.8 21.5 29.5 21.7C29.3 21.8 29 21.9 28.9 22.1C28.8 22.2 28.7 22.4 28.6 22.5C28.4 22.8 28.3 23.1 28.3 23.5C28.3 24 28.3 24.5 28.3 25C28.3 25.1 28.3 25.1 28.3 25.2C28.3 25.5 28.3 25.7 28.5 26C28.4 26.2 28.6 26.5 28.8 26.6Z" fill="#94763E"/>
  <path d="M27 41.2999C26.9 41.1999 26.7 41.1 26.6 41C26.3 40.8 26 40.7 25.6 40.7C25.1 40.7 24.6 40.7 24.1 40.7C24 40.7 24 40.7 23.9 40.7C23.6 40.7 23.4 40.7 23.1 40.9C22.9 41 22.6 41.0999 22.5 41.2999C22.4 41.3999 22.3 41.6 22.2 41.7C22 42 21.9 42.3 21.9 42.7C21.9 43.2 21.9 43.7 21.9 44.2C21.9 44.3 21.9 44.3 21.9 44.4C21.9 44.7 21.9 44.9 22.1 45.2C22.2 45.4 22.3 45.6999 22.5 45.7999C22.6 45.8999 22.8 45.9999 22.9 46.0999C23.2 46.2999 23.5 46.4 23.9 46.4C24.4 46.4 24.9 46.4 25.4 46.4C25.5 46.4 25.5 46.4 25.6 46.4C25.8 46.4 25.9 46.3999 26.1 46.2999C26.1 46.2999 26.1 46.2999 26.2 46.2999C26.4 46.1999 26.6 46.1999 26.7 46.0999C26.8 45.9999 27 45.8999 27.1 45.7999C27.2 45.6999 27.3 45.6 27.4 45.4C27.4 45.3 27.5 45.2 27.5 45.2C27.5 45.1 27.6 45 27.6 44.9C27.6 44.7 27.7 44.6 27.7 44.4C27.7 43.9 27.7 43.4 27.7 42.9C27.7 42.8 27.7 42.8 27.7 42.7C27.7 42.4 27.7 42.2 27.5 41.9C27.3 41.7 27.2 41.4999 27 41.2999Z" fill="#94763E"/>
  <path d="M26.9 48.4001C26.8 48.3001 26.6 48.2 26.5 48.1C26.2 47.9 25.9 47.8 25.5 47.8C25 47.8 24.5 47.8 24 47.8C23.9 47.8 23.9 47.8 23.8 47.8C23.5 47.8 23.3 47.8 23 48C22.8 48.1 22.5 48.2001 22.4 48.4001C22.3 48.5001 22.2 48.7 22.1 48.8C21.9 49.1 21.8 49.4 21.8 49.8C21.8 50.3 21.8 50.8 21.8 51.3C21.8 51.4 21.8 51.4 21.8 51.5C21.8 51.8 21.8 52 22 52.3C22.1 52.5 22.2 52.8001 22.4 52.9001C22.5 53.0001 22.7 53.1001 22.8 53.2001C23.1 53.4001 23.4 53.5 23.8 53.5C24.3 53.5 24.8 53.5 25.3 53.5C25.4 53.5 25.4 53.5 25.5 53.5C25.7 53.5 25.8 53.5001 26 53.4001C26 53.4001 26 53.4001 26.1 53.4001C26.3 53.3001 26.5 53.3001 26.6 53.2001C26.7 53.1001 26.9 53.0001 27 52.9001C27.1 52.8001 27.2 52.7 27.3 52.5C27.3 52.4 27.4 52.3 27.4 52.3C27.4 52.2 27.5 52.1 27.5 52C27.5 51.8 27.6 51.7 27.6 51.5C27.6 51 27.6 50.5 27.6 50C27.6 49.9 27.6 49.9 27.6 49.8C27.6 49.5 27.6 49.3 27.4 49C27.2 48.8 27.1 48.6001 26.9 48.4001Z" fill="#94763E"/>
  <path d="M18.9 48.4999C18.8 48.3999 18.6 48.2999 18.5 48.1999C18.2 47.9999 17.9 47.8999 17.5 47.8999C17 47.8999 16.5 47.8999 16 47.8999C15.9 47.8999 15.9 47.8999 15.8 47.8999C15.5 47.8999 15.3 47.8999 15 48.0999C14.8 48.1999 14.5 48.2999 14.4 48.4999C14.3 48.5999 14.2 48.7999 14.1 48.8999C13.9 49.1999 13.8 49.4999 13.8 49.8999C13.8 50.3999 13.8 50.8999 13.8 51.3999C13.8 51.4999 13.8 51.4999 13.8 51.5999C13.8 51.8999 13.8 52.0999 14 52.3999C14.1 52.5999 14.2 52.8999 14.4 52.9999C14.5 53.0999 14.7 53.1999 14.8 53.2999C15.1 53.4999 15.4 53.5999 15.8 53.5999C16.3 53.5999 16.8 53.5999 17.3 53.5999C17.4 53.5999 17.4 53.5999 17.5 53.5999C17.7 53.5999 17.8 53.5999 18 53.4999C18 53.4999 18 53.4999 18.1 53.4999C18.3 53.3999 18.5 53.3999 18.6 53.2999C18.7 53.1999 18.9 53.0999 19 52.9999C19.1 52.8999 19.2 52.7999 19.3 52.5999C19.3 52.4999 19.4 52.3999 19.4 52.3999C19.4 52.2999 19.5 52.1999 19.5 52.0999C19.5 51.8999 19.6 51.7999 19.6 51.5999C19.6 51.0999 19.6 50.5999 19.6 50.0999C19.6 49.9999 19.6 49.9999 19.6 49.8999C19.6 49.5999 19.6 49.3999 19.4 49.0999C19.2 48.8999 19.1 48.5999 18.9 48.4999Z" fill="#94763E"/>
  <path d="M18.9 41.2999C18.8 41.1999 18.6 41.1 18.5 41C18.2 40.8 17.9 40.7 17.5 40.7C17 40.7 16.5 40.7 16 40.7C15.9 40.7 15.9 40.7 15.8 40.7C15.5 40.7 15.3 40.7 15 40.9C14.8 41 14.5 41.0999 14.4 41.2999C14.3 41.3999 14.2 41.6 14.1 41.7C13.9 42 13.8 42.3 13.8 42.7C13.8 43.2 13.8 43.7 13.8 44.2C13.8 44.3 13.8 44.3 13.8 44.4C13.8 44.7 13.8 44.9 14 45.2C14.1 45.4 14.2 45.6999 14.4 45.7999C14.5 45.8999 14.7 45.9999 14.8 46.0999C15.1 46.2999 15.4 46.4 15.8 46.4C16.3 46.4 16.8 46.4 17.3 46.4C17.4 46.4 17.4 46.4 17.5 46.4C17.7 46.4 17.8 46.3999 18 46.2999C18 46.2999 18 46.2999 18.1 46.2999C18.3 46.1999 18.5 46.1999 18.6 46.0999C18.7 45.9999 18.9 45.8999 19 45.7999C19.1 45.6999 19.2 45.6 19.3 45.4C19.3 45.3 19.4 45.2 19.4 45.2C19.4 45.1 19.5 45 19.5 44.9C19.5 44.7 19.6 44.6 19.6 44.4C19.6 43.9 19.6 43.4 19.6 42.9C19.6 42.8 19.6 42.8 19.6 42.7C19.6 42.4 19.6 42.2 19.4 41.9C19.2 41.7 19.1 41.4999 18.9 41.2999Z" fill="#94763E"/>
  <path d="M57.4 54.4C57.1 54.4 56.9 54.4 56.6 54.4C56.6 50.2 56.6 46 56.6 41.9C56.6 40.3 56.7 38.6 56.6 37C56.5 35 55.3 33.2 53.3 32.7C52.6 32.5 51.9 32.6 51.2 32.6C50.3 32.6 49.5 32.6 48.6 32.6C48.6 29.6 48.6 26.6 48.6 23.6C48.6 22 48.5 20.6 47.3 19.3C46.2 18.1 45 17 43.8 15.8C42.2 14.2 40.7 12.7 39.1 11.1C37.8 9.80002 36.6 8.20002 34.5 8.70002C33.2 9.00002 32 10.6 31 11.6C29.4 13.2 27.8 14.8 26.2 16.4C25.1 17.5 23.8 18.6 22.8 19.8C22.2 20.4 22 21.2 21.9 22.1C19.1 20.9 16.8 24.1 15.1 25.8C13 27.9 10.9 30 8.8 32.1C7.9 33 7.2 33.9 7.2 35.2C7.2 35.8 7.2 36.5 7.2 37.1C7.2 42.8 7.2 48.6 7.2 54.3V54.4C6.9 54.4 6.5 54.4 6.2 54.4C3.6 54.4 3.6 58.4 6.2 58.4C12 58.4 17.7 58.4 23.5 58.4C32.7 58.4 41.9 58.4 51 58.4C53.1 58.4 55.3 58.4 57.4 58.4C60 58.4 60 54.4 57.4 54.4ZM35.8 12.5C36 12.2 36.2 12.4 35.8 12.5V12.5ZM26.5 21.8C27.1 21.2 27.6 20.7 28.2 20.1C29.7 18.6 31.2 17.1 32.7 15.6C33.3 15 34 14.3 34.6 13.7C34.8 13.5 35.1 13.3 35.3 13C35.6 13.3 35.9 13.5 36.1 13.7C37.5 15.1 39 16.6 40.4 18C41.6 19.2 42.9 20.5 44.1 21.7C44.2 21.8 44.4 21.9 44.5 22.1C44.6 22.2 44.6 22.2 44.6 22.2C44.7 22.5 44.6 23 44.6 23.3C44.6 26.4 44.6 29.5 44.6 32.6C41.9 32.6 39.2 32.6 36.5 32.6C35.3 32.6 34.1 32.6 33.1 32.9C33 32.8 33 32.7 32.9 32.6C31.2 30.8 29.4 29.1 27.6 27.3C27.1 26.8 26.5 26.2 26 25.7C26 25.1 26 24.5 26 23.9C26 23.5 26 23 26 22.6C26 22.6 26 22.6 26 22.5C26.2 22.2 26.4 21.9 26.5 21.8ZM29.9 35.2C29.8 35 30 35 29.9 35.2V35.2ZM11.2 35.3C11.2 35.1 11.3 35.2 11.2 35.3V35.3ZM12.6 54.4C12.1 54.4 11.7 54.4 11.2 54.4V54.3C11.2 49.5 11.2 44.7 11.2 39.8C11.2 38.6 11.2 37.5 11.2 36.3C11.2 36 11.2 35.7 11.2 35.4V35.3C11.7 34.9 12.2 34.3 12.6 33.9C13.7 32.8 14.7 31.8 15.8 30.7C16.8 29.7 17.9 28.6 18.9 27.6C19.3 27.2 19.7 26.8 20.1 26.4C20.2 26.3 20.4 26.1 20.6 25.9C20.7 26 20.8 26.1 20.9 26.1C21.8 27 22.7 27.9 23.7 28.9C25.7 30.9 27.6 32.8 29.6 34.8C29.7 34.9 29.8 35 29.9 35.1C29.9 35.1 29.9 35.1 29.9 35.2C29.8 35.8 29.8 36.4 29.9 37.1C29.8 38.1 29.9 39.2 29.9 40.1C29.9 44.8 29.9 49.5 29.9 54.3V54.4C24.1 54.4 18.4 54.4 12.6 54.4ZM40.1 54.4C38 54.4 36 54.4 33.9 54.4V54.3C33.9 50.5 33.9 46.7 33.9 42.9C33.9 41.5 33.9 40.1 33.9 38.8C33.9 38.2 33.9 37.6 33.9 36.9C34.1 36.3 34.8 36.5 35.5 36.5C40.2 36.5 44.9 36.5 49.6 36.5C50.2 36.5 52.3 36.1 52.5 36.9C52.6 37.3 52.5 37.8 52.5 38.1C52.5 39.1 52.5 40 52.5 41C52.5 45.5 52.5 49.9 52.5 54.4C48.4 54.4 44.3 54.4 40.1 54.4Z" fill="#94763E"/>
</svg>