<svg width="64" height="64" viewBox="0 0 64 64" fill="none" xmlns="http://www.w3.org/2000/svg">
<path opacity="0.5" d="M32 42.8474L21.9428 53.2604C20.5025 54.7519 19.7823 55.4975 19.1724 55.7556C17.7827 56.3436 16.2411 55.8404 15.5101 54.5602C15.1892 53.9983 15.0893 52.985 14.8893 50.9583C14.7764 49.814 14.72 49.2418 14.5486 48.7626C14.1651 47.6898 13.3591 46.8554 12.3229 46.458C11.8601 46.2807 11.3075 46.2223 10.2024 46.1052C8.24504 45.8983 7.26627 45.7948 6.72365 45.4626C5.48723 44.7058 5.00125 43.1095 5.56912 41.6706C5.81832 41.0391 6.53848 40.2935 7.9788 38.8023L14.5486 31.9996L17.8505 28.6978L32 42.8474L46.1493 28.6978L49.4512 31.9996L56.021 38.8023C57.4616 40.2935 58.1816 41.0391 58.4309 41.6706C58.9986 43.1095 58.5128 44.7058 57.2762 45.4626C56.7336 45.7948 55.7549 45.8983 53.7976 46.1052C52.6925 46.2223 52.14 46.2807 51.677 46.458C50.6408 46.8554 49.8349 47.6898 49.4512 48.7626C49.28 49.2418 49.2234 49.814 49.1106 50.9583C48.9106 52.985 48.8106 53.9983 48.4898 54.5602C47.7589 55.8404 46.2173 56.3436 44.8274 55.7556C44.2176 55.4975 43.4976 54.7519 42.0573 53.2604L32 42.8474Z" fill="black"/>
<path fill-rule="evenodd" clip-rule="evenodd" d="M32 42.6668C42.3093 42.6668 50.6666 34.3095 50.6666 24.0002C50.6666 13.6909 42.3093 5.3335 32 5.3335C21.6907 5.3335 13.3333 13.6909 13.3333 24.0002C13.3333 34.3095 21.6907 42.6668 32 42.6668ZM32 16.0002C31.2424 16.0002 30.7357 16.9091 29.7224 18.7269L29.4602 19.1971C29.1725 19.7137 29.0285 19.972 28.804 20.1424C28.5794 20.3128 28.3 20.3761 27.7408 20.5026L27.2317 20.6178C25.2639 21.063 24.28 21.2856 24.0459 22.0383C23.8118 22.7911 24.4826 23.5754 25.8241 25.1441L26.1711 25.5499C26.5523 25.9957 26.7429 26.2186 26.8288 26.4943C26.9144 26.77 26.8856 27.0674 26.828 27.6623L26.7754 28.2036C26.5727 30.2967 26.4713 31.3431 27.084 31.8084C27.697 32.2735 28.6181 31.8495 30.4605 31.0012L30.937 30.7818C31.4608 30.5407 31.7224 30.4202 32 30.4202C32.2776 30.4202 32.5392 30.5407 33.0629 30.7818L33.5394 31.0012C35.3818 31.8495 36.3029 32.2735 36.916 31.8084C37.5288 31.3431 37.4272 30.2967 37.2245 28.2036L37.172 27.6623C37.1144 27.0674 37.0856 26.77 37.1712 26.4943C37.257 26.2186 37.4477 25.9957 37.8288 25.55L38.176 25.1441C39.5173 23.5754 40.1882 22.7911 39.9541 22.0383C39.72 21.2856 38.736 21.063 36.7682 20.6178L36.2592 20.5026C35.7 20.3761 35.4205 20.3128 35.196 20.1424C34.9714 19.972 34.8274 19.7137 34.5397 19.1971L34.2776 18.7269C33.2642 16.9091 32.7576 16.0002 32 16.0002Z" fill="black"/>
</svg>
