<svg xmlns="http://www.w3.org/2000/svg" width="64" height="64" viewBox="0 0 64 64" fill="none">
  <path d="M11.4369 9.13741H48.0081V34.2799H52.58V4.56616H6.8656V59.423H32.0006V54.8518H11.4369V9.13741Z" fill="#94763E"/>
  <path d="M16.0081 13.7087H43.4369V18.28H16.0081V13.7087ZM16.0081 22.8519H38.865V27.4231H16.0081V22.8519ZM16.0081 31.9944H29.7225V36.5656H16.0081V31.9944ZM45.7225 36.5662C39.4106 36.5662 34.2937 41.6831 34.2937 47.995C34.2937 54.3069 39.4106 59.4237 45.7225 59.4237C52.0344 59.4237 57.1512 54.3069 57.1512 47.995C57.1512 41.6831 52.0344 36.5662 45.7225 36.5662ZM45.7225 54.8519C41.9412 54.8519 38.8656 51.7756 38.8656 47.995C38.8656 44.2137 41.9419 41.1381 45.7225 41.1381C49.5037 41.1381 52.5794 44.2144 52.5794 47.995C52.5794 51.7756 49.5031 54.8519 45.7225 54.8519Z" fill="#94763E"/>
  <path d="M47.135 46.5106L45.7225 43.6519L44.3094 46.5106L41.1506 46.9694L43.4369 49.195L42.8969 52.3375L45.7225 50.8537L48.5475 52.3375L48.0081 49.195L50.2938 46.9694L47.135 46.5106Z" fill="#94763E"/>
</svg>