<svg width="64" height="64" viewBox="0 0 64 64" fill="none" xmlns="http://www.w3.org/2000/svg">
<path d="M53.3334 8H21.3334C20.6261 8 19.9479 8.28095 19.4478 8.78105C18.9477 9.28115 18.6667 9.95942 18.6667 10.6667V19.2L29.3334 29.8667V37.3333H21.8667L18.6667 34.1333V53.3333C18.6667 54.0406 18.9477 54.7189 19.4478 55.219C19.9479 55.7191 20.6261 56 21.3334 56H53.3334C54.0406 56 54.7189 55.7191 55.219 55.219C55.7191 54.7189 56 54.0406 56 53.3333V10.6667C56 9.95942 55.7191 9.28115 55.219 8.78105C54.7189 8.28095 54.0406 8 53.3334 8Z" fill="#979797" fill-opacity="0.6"/>
<path d="M18.6667 34.6667V53.3333C18.6667 54.0406 18.9477 54.7189 19.4478 55.219C19.9479 55.7191 20.6261 56 21.3334 56H53.3334C54.0406 56 54.7189 55.7191 55.219 55.219C55.7191 54.7189 56 54.0406 56 53.3333V10.6667C56 9.95942 55.7191 9.28115 55.219 8.78105C54.7189 8.28095 54.0406 8 53.3334 8H21.3334C20.6261 8 19.9479 8.28095 19.4478 8.78105C18.9477 9.28115 18.6667 9.95942 18.6667 10.6667V18.6667" stroke="black" stroke-width="5.33333" stroke-linecap="round" stroke-linejoin="round"/>
<path d="M45.3334 45.3335H37.3334M8.77336 20.5068L12.5067 16.7735C13.0052 16.2849 13.6754 16.0112 14.3734 16.0112C15.0714 16.0112 15.7416 16.2849 16.24 16.7735L29.3334 29.8668V37.3335H21.8667L8.77336 24.2402C8.28476 23.7417 8.01108 23.0715 8.01108 22.3735C8.01108 21.6755 8.28476 21.0053 8.77336 20.5068Z" stroke="black" stroke-width="5.33333" stroke-linecap="round" stroke-linejoin="round"/>
</svg>
