<svg width="64" height="64" viewBox="0 0 64 64" fill="none" xmlns="http://www.w3.org/2000/svg">
<path d="M11.4369 9.13766H48.0081V34.2802H52.58V4.56641H6.86562V59.4233H32.0006V54.852H11.4369V9.13766Z" fill="black"/>
<path d="M16.0081 13.709H43.4369V18.2802H16.0081V13.709ZM16.0081 22.8521H38.865V27.4234H16.0081V22.8521ZM16.0081 31.9946H29.7225V36.5659H16.0081V31.9946ZM45.7225 36.5665C39.4106 36.5665 34.2938 41.6834 34.2938 47.9952C34.2938 54.3071 39.4106 59.424 45.7225 59.424C52.0344 59.424 57.1512 54.3071 57.1512 47.9952C57.1512 41.6834 52.0344 36.5665 45.7225 36.5665ZM45.7225 54.8521C41.9412 54.8521 38.8656 51.7759 38.8656 47.9952C38.8656 44.214 41.9419 41.1384 45.7225 41.1384C49.5037 41.1384 52.5794 44.2146 52.5794 47.9952C52.5794 51.7759 49.5031 54.8521 45.7225 54.8521Z" fill="black"/>
<path d="M47.135 46.5106L45.7225 43.6519L44.3094 46.5106L41.1506 46.9694L43.4369 49.195L42.8969 52.3375L45.7225 50.8537L48.5475 52.3375L48.0081 49.195L50.2937 46.9694L47.135 46.5106Z" fill="black"/>
</svg>
