<svg width="64" height="64" viewBox="0 0 64 64" fill="none" xmlns="http://www.w3.org/2000/svg">
<path d="M28.6882 26.0293H20.8555V44.9214H28.6882V26.0293Z" fill="#979797" fill-opacity="0.6"/>
<path fill-rule="evenodd" clip-rule="evenodd" d="M27.0565 20.1714L34.8895 12.792V44.9215H27.0565V20.1714Z" fill="#979797" fill-opacity="0.6"/>
<path fill-rule="evenodd" clip-rule="evenodd" d="M33.502 26.8091L35.9233 23.8475L38.3479 20.8633L40.7725 23.847L43.1938 26.8086V44.9216H33.5022L33.502 26.8091Z" fill="#979797" fill-opacity="0.6"/>
<path fill-rule="evenodd" clip-rule="evenodd" d="M41.5701 33.996H46.7195V31.7095H50.9628V44.9212H41.5702L41.5701 33.996Z" fill="#979797" fill-opacity="0.6"/>
<path fill-rule="evenodd" clip-rule="evenodd" d="M48.7598 28.773H50.2284V26.8359H55.8803V28.773H57.3489V44.9214H48.7598V28.773Z" fill="#979797" fill-opacity="0.6"/>
<path fill-rule="evenodd" clip-rule="evenodd" d="M12.8596 33.1318H23.0807V34.7461H22.1016V44.9216H12.8596V34.7461H11.8805V33.1318H12.8596Z" fill="#979797" fill-opacity="0.6"/>
<path fill-rule="evenodd" clip-rule="evenodd" d="M7.393 23.3069H8.59405V21.5091H9.73629V20.2983H10.7583V13.5591H11.8598V20.2983H12.8819V21.509H14.0241V23.3069H15.2252V44.9215H7.39215L7.393 23.3069Z" fill="#979797" fill-opacity="0.6"/>
<path d="M28.6883 26.0293H27.0565V44.9214H28.6883V26.0293Z" fill="#979797" fill-opacity="0.6"/>
<path fill-rule="evenodd" clip-rule="evenodd" d="M34.8895 25.1123V44.9213H33.5024V26.8088L34.8895 25.1123Z" fill="#979797" fill-opacity="0.6"/>
<path d="M43.1938 33.9961H41.5701V44.9215H43.1938V33.9961Z" fill="#979797" fill-opacity="0.6"/>
<path fill-rule="evenodd" clip-rule="evenodd" d="M48.7598 44.9217V31.71H50.9627V44.9217H48.7598Z" fill="#979797" fill-opacity="0.6"/>
<path fill-rule="evenodd" clip-rule="evenodd" d="M12.8596 33.1318H15.2259V44.9216H12.8596V34.7461H11.8805V33.1318H12.8596Z" fill="#979797" fill-opacity="0.6"/>
<path fill-rule="evenodd" clip-rule="evenodd" d="M20.8555 33.1318H23.0806V34.7461H22.1014V44.9216H20.8553L20.8555 33.1318Z" fill="#979797" fill-opacity="0.6"/>
<path fill-rule="evenodd" clip-rule="evenodd" d="M11.7075 42.7783V51.2079H1.24874V42.7783H0.265443V42.1243H0.261108L3.3696 39.6393L6.4781 37.1543L9.58663 39.6393L12.6951 42.1243H12.6908V42.7783H11.7075Z" fill="black"/>
<path fill-rule="evenodd" clip-rule="evenodd" d="M10.2006 45.2527L18.1646 41.2636L22.0301 43.1894V41.2002H23.7051V44.0285L26.1287 45.2527V51.2081H10.2006V45.2527Z" fill="black"/>
<path fill-rule="evenodd" clip-rule="evenodd" d="M37.2313 51.2078H52.9409V42.4842H53.7394V41.8069L50.6739 38.2698H42.6575V36.8076H40.9819V38.2698H39.5197L36.4325 41.8076V42.4849H37.2309L37.2313 51.2078Z" fill="black"/>
<path fill-rule="evenodd" clip-rule="evenodd" d="M51.5479 46.0538L58.4488 39.4976V51.208H51.5479V46.0538Z" fill="black"/>
<path fill-rule="evenodd" clip-rule="evenodd" d="M63.7391 46.2596L58.5062 41.2881V51.2086H63.7391V46.2596Z" fill="black"/>
<path fill-rule="evenodd" clip-rule="evenodd" d="M25.0239 51.2079H38.6084V36.1474L35.3383 32.1401L32.0677 36.1474V37.5164H28.099L25.0237 41.6726L25.0239 51.2079Z" fill="black"/>
<path fill-rule="evenodd" clip-rule="evenodd" d="M11.7075 44.4976V51.2081H10.2004V45.2525L11.7075 44.4976Z" fill="black"/>
<path fill-rule="evenodd" clip-rule="evenodd" d="M25.0239 44.6943L26.1285 45.2524V51.208H25.0239V44.6943Z" fill="black"/>
<path fill-rule="evenodd" clip-rule="evenodd" d="M51.5479 51.2082H52.9404V44.7305L51.5479 46.0534V51.2082Z" fill="black"/>
<path fill-rule="evenodd" clip-rule="evenodd" d="M37.2312 51.2082H38.6081V39.3145L36.4323 41.8075V42.4848H37.2309L37.2312 51.2082Z" fill="black"/>
<path fill-rule="evenodd" clip-rule="evenodd" d="M21.9562 25.7681H29.7893C29.8585 25.7681 29.9249 25.7956 29.9739 25.8445C30.0229 25.8935 30.0504 25.9599 30.0504 26.0292V37.5165H29.5282V26.2903H22.2173V41.1999H22.0293V43.1892L21.6951 43.0226V26.0292C21.6951 25.9599 21.7226 25.8935 21.7716 25.8445C21.8205 25.7956 21.887 25.7681 21.9562 25.7681Z" fill="#1A1818"/>
<path fill-rule="evenodd" clip-rule="evenodd" d="M27.9921 19.9695L35.812 12.6022C35.8492 12.5676 35.8956 12.5447 35.9456 12.536C35.9956 12.5274 36.047 12.5335 36.0935 12.5537C36.1401 12.5738 36.1798 12.607 36.2078 12.6494C36.2358 12.6917 36.2508 12.7412 36.2511 12.7919V33.2596L35.7289 32.6195V13.3954L28.418 20.2828V37.5155H28.0981L27.8958 37.7888V20.1712C27.8959 20.1326 27.9046 20.0944 27.9212 20.0595C27.9379 20.0246 27.9621 19.9939 27.9921 19.9695Z" fill="#1A1818"/>
<path fill-rule="evenodd" clip-rule="evenodd" d="M34.4068 26.6371L36.8229 23.6821L36.8344 23.669L39.2473 20.6992C39.272 20.6691 39.303 20.6449 39.3382 20.6283C39.3734 20.6118 39.4119 20.6033 39.4509 20.6035C39.4898 20.6037 39.5281 20.6126 39.5631 20.6296C39.5982 20.6466 39.629 20.6711 39.6533 20.7015L42.0754 23.6824L44.4967 26.6438C44.5349 26.6905 44.5557 26.7489 44.5557 26.8092V38.2699H44.0335V26.9032L41.6714 24.0137L39.4501 21.2763L37.2395 23.9963C37.2356 24.0017 37.2316 24.0069 37.2273 24.0119L34.8652 26.9015V32.7199L34.343 33.3597V26.8089C34.3428 26.7457 34.3655 26.6847 34.4068 26.6371Z" fill="#1A1818"/>
<path fill-rule="evenodd" clip-rule="evenodd" d="M42.6714 33.7345H47.5598V31.7089C47.5598 31.6396 47.5873 31.5732 47.6363 31.5242C47.6853 31.4753 47.7517 31.4478 47.8209 31.4478H52.064C52.1332 31.4478 52.1997 31.4753 52.2486 31.5242C52.2976 31.5732 52.3251 31.6396 52.3251 31.7089V40.1745L51.8029 39.5719V31.9701H48.082V33.9956C48.082 34.0648 48.0545 34.1313 48.0056 34.1802C47.9566 34.2292 47.8902 34.2567 47.8209 34.2567H42.9325V38.2697H42.6575V36.8075H42.4103V33.9956C42.4103 33.9263 42.4379 33.8599 42.4868 33.811C42.5358 33.762 42.6022 33.7345 42.6714 33.7345Z" fill="#1A1818"/>
<path fill-rule="evenodd" clip-rule="evenodd" d="M49.8612 28.5117H51.0687V26.8358C51.0687 26.7666 51.0962 26.7001 51.1451 26.6512C51.1941 26.6022 51.2605 26.5747 51.3298 26.5747H56.9814C57.0506 26.5747 57.1171 26.6022 57.166 26.6512C57.215 26.7001 57.2425 26.7666 57.2425 26.8358V28.5117H58.45C58.5193 28.5117 58.5857 28.5392 58.6347 28.5882C58.6836 28.6372 58.7111 28.7036 58.7111 28.7728V41.4824L58.5059 41.2873V46.808C58.4875 46.8121 58.4688 46.8141 58.45 46.8141H58.4488V39.4975L58.1889 39.7444V29.0341H56.9814C56.9121 29.0341 56.8457 29.0066 56.7968 28.9576C56.7478 28.9087 56.7203 28.8423 56.7203 28.773V27.0969H51.5909V28.773C51.5909 28.8423 51.5634 28.9087 51.5144 28.9576C51.4654 29.0066 51.399 29.0341 51.3298 29.0341H50.1221V38.27H49.5999V28.773C49.5998 28.7387 49.6066 28.7047 49.6197 28.673C49.6328 28.6413 49.6521 28.6125 49.6763 28.5882C49.7006 28.5639 49.7294 28.5447 49.7611 28.5316C49.7928 28.5185 49.8269 28.5117 49.8612 28.5117Z" fill="#1A1818"/>
<path fill-rule="evenodd" clip-rule="evenodd" d="M13.9609 32.8706H24.182C24.2513 32.8706 24.3177 32.8981 24.3667 32.9471C24.4157 32.996 24.4431 33.0625 24.4431 33.1317V34.746C24.4431 34.8153 24.4157 34.8817 24.3667 34.9306C24.3177 34.9796 24.2513 35.0071 24.182 35.0071H23.464V41.2001H22.9418V34.746C22.9418 34.6768 22.9693 34.6104 23.0183 34.5614C23.0673 34.5124 23.1337 34.4849 23.2029 34.4849H23.9209V33.3928H13.2431V34.4849H13.9609C14.0302 34.4849 14.0966 34.5124 14.1456 34.5614C14.1946 34.6104 14.222 34.6768 14.222 34.746V43.2381L13.6998 43.4992V35.0071H12.9818C12.9126 35.0071 12.8462 34.9796 12.7972 34.9306C12.7482 34.8817 12.7207 34.8153 12.7207 34.746V33.1317C12.7207 33.0625 12.7482 32.996 12.7972 32.9471C12.8462 32.8981 12.9126 32.8706 12.9818 32.8706H13.9609Z" fill="#1A1818"/>
<path fill-rule="evenodd" clip-rule="evenodd" d="M8.49454 23.0457H9.43449V21.509C9.43449 21.4397 9.46198 21.3733 9.51094 21.3244C9.55991 21.2754 9.62634 21.2479 9.69559 21.2479H10.5766V20.2982C10.5766 20.2289 10.604 20.1625 10.653 20.1136C10.702 20.0646 10.7684 20.0371 10.8377 20.0371H11.5987V13.559C11.5987 13.4897 11.6262 13.4233 11.6752 13.3743C11.7241 13.3254 11.7906 13.2979 11.8598 13.2979H12.9613C13.0305 13.2979 13.0969 13.3254 13.1459 13.3743C13.1949 13.4233 13.2224 13.4897 13.2224 13.559V20.0371H13.9834C14.0527 20.0371 14.1191 20.0646 14.168 20.1136C14.217 20.1625 14.2445 20.2289 14.2445 20.2982V21.2477H15.1255C15.1947 21.2477 15.2611 21.2752 15.3101 21.3242C15.3591 21.3732 15.3866 21.4396 15.3866 21.5088V23.0455H16.3265C16.3958 23.0455 16.4622 23.073 16.5112 23.122C16.5601 23.1709 16.5876 23.2374 16.5876 23.3066V42.0527L16.0654 42.3138V23.568H15.1255C15.0562 23.568 14.9898 23.5405 14.9408 23.4916C14.8919 23.4426 14.8644 23.3762 14.8644 23.3069V21.7701H13.9839C13.9147 21.7701 13.8483 21.7426 13.7993 21.6936C13.7504 21.6447 13.7228 21.5782 13.7228 21.509V20.5593H12.962C12.8927 20.5593 12.8263 20.5318 12.7774 20.4828C12.7284 20.4338 12.7009 20.3674 12.7009 20.2982V13.8201H12.1214V20.2982C12.1214 20.3674 12.0939 20.4338 12.0449 20.4828C11.996 20.5318 11.9296 20.5593 11.8603 20.5593H11.0993V21.509C11.0993 21.5782 11.0718 21.6447 11.0228 21.6936C10.9739 21.7426 10.9074 21.7701 10.8382 21.7701H9.95721V23.3068C9.95721 23.376 9.92972 23.4424 9.88075 23.4914C9.83179 23.5404 9.76535 23.5679 9.6961 23.5679H8.75615V38.9745L8.23395 38.5567V23.3068C8.23395 23.2376 8.26138 23.1713 8.31023 23.1223C8.35908 23.0734 8.42538 23.0458 8.49454 23.0457Z" fill="#1A1818"/>
<path fill-rule="evenodd" clip-rule="evenodd" d="M11.9686 43.039V51.2077C11.9686 51.277 11.9411 51.3434 11.8921 51.3923C11.8431 51.4413 11.7767 51.4688 11.7075 51.4688H1.24874C1.17949 51.4688 1.1131 51.4413 1.06413 51.3923C1.01517 51.3434 0.98764 51.277 0.98764 51.2077V43.039H0.265444C0.196195 43.039 0.129803 43.0115 0.0808366 42.9626C0.0318704 42.9136 0.00434175 42.8472 0.00434175 42.7779V42.172C-0.00504456 42.1211 0.000862454 42.0685 0.0213406 42.0209C0.0418187 41.9733 0.0759729 41.9328 0.119424 41.9046L3.20739 39.4358L6.31606 36.9508C6.36283 36.9135 6.42107 36.8935 6.4809 36.8941C6.54074 36.8947 6.5985 36.9159 6.64452 36.9541L9.74885 39.4358L12.8574 41.921C12.8933 41.9496 12.921 41.9872 12.9376 42.0301C12.9542 42.0729 12.9591 42.1193 12.9519 42.1647V42.7779C12.9519 42.8472 12.9244 42.9136 12.8754 42.9626C12.8264 43.0115 12.76 43.039 12.6908 43.039H11.9686ZM11.4464 50.9464V42.7779C11.4464 42.7087 11.4739 42.6423 11.5228 42.5933C11.5718 42.5443 11.6382 42.5168 11.7075 42.5168H12.4297V42.2442L9.42455 39.8421L6.4781 37.4863L3.53164 39.8416L0.526546 42.2437V42.5168H1.24874C1.31799 42.5168 1.38443 42.5443 1.43339 42.5933C1.48236 42.6423 1.50984 42.7087 1.50984 42.7779V50.9464H11.4464Z" fill="#1A1818"/>
<path fill-rule="evenodd" clip-rule="evenodd" d="M10.1057 45.0091L18.048 41.0308C18.0841 41.0128 18.1239 41.0034 18.1641 41.0034C18.2044 41.0034 18.2442 41.0128 18.2803 41.0308L21.7686 42.7687V41.201C21.7686 41.1318 21.7961 41.0654 21.8451 41.0164C21.894 40.9675 21.9604 40.9399 22.0297 40.9399H23.7048C23.774 40.9399 23.8404 40.9675 23.8894 41.0164C23.9384 41.0654 23.9659 41.1318 23.9659 41.201V43.8693L26.2462 45.021C26.2892 45.0427 26.3253 45.076 26.3506 45.117C26.3759 45.1581 26.3893 45.2053 26.3894 45.2535V51.2091C26.3894 51.2783 26.3619 51.3448 26.3129 51.3937C26.264 51.4427 26.1976 51.4702 26.1283 51.4702H10.2002C10.1309 51.4702 10.0645 51.4427 10.0156 51.3937C9.96662 51.3448 9.93909 51.2783 9.93909 51.2091V45.2525C9.93901 45.1998 9.95486 45.1484 9.98456 45.1049C10.0143 45.0614 10.0564 45.0279 10.1055 45.0088L10.1057 45.0091ZM18.1636 41.5544L10.4615 45.4124V50.9468H25.8674V45.4123L23.6045 44.2693C23.5569 44.2495 23.5161 44.216 23.4875 44.1731C23.4589 44.1302 23.4436 44.0797 23.4437 44.0281V41.4611H22.2908V43.1892C22.2907 43.2337 22.2794 43.2773 22.2577 43.3161C22.2361 43.3549 22.2049 43.3876 22.1672 43.411C22.1294 43.4344 22.0863 43.4477 22.0419 43.4498C21.9976 43.4519 21.9534 43.4426 21.9136 43.4229L18.1636 41.5544Z" fill="#1A1818"/>
<path fill-rule="evenodd" clip-rule="evenodd" d="M37.4923 50.9466H52.6798V42.4839C52.6798 42.4146 52.7073 42.3482 52.7563 42.2993C52.8052 42.2503 52.8716 42.2228 52.9409 42.2228H53.4782V41.9028L50.5556 38.5308H42.6575C42.5882 38.5308 42.5218 38.5033 42.4728 38.4543C42.4239 38.4054 42.3964 38.3389 42.3964 38.2697V37.0686H41.243V38.2697C41.243 38.3389 41.2155 38.4054 41.1665 38.4543C41.1175 38.5033 41.0511 38.5308 40.9819 38.5308H39.6369L36.6933 41.9039V42.2235H37.2307C37.3 42.2235 37.3664 42.251 37.4153 42.3C37.4643 42.3489 37.4918 42.4153 37.4918 42.4846V50.9473L37.4923 50.9466ZM52.9409 51.4688H37.2312C37.162 51.4688 37.0956 51.4413 37.0466 51.3923C36.9977 51.3433 36.9701 51.2769 36.9701 51.2077V42.7452H36.4328C36.3635 42.7452 36.2971 42.7177 36.2481 42.6687C36.1992 42.6197 36.1717 42.5533 36.1717 42.4841V41.8068C36.1716 41.7437 36.1945 41.6828 36.2361 41.6355L39.3086 38.1144C39.3329 38.0814 39.3645 38.0546 39.4011 38.0361C39.4376 38.0177 39.4781 38.0081 39.519 38.0081H40.7201V36.807C40.7201 36.7378 40.7476 36.6713 40.7966 36.6224C40.8455 36.5734 40.9119 36.5459 40.9812 36.5459H42.6562C42.7255 36.5459 42.7919 36.5734 42.8408 36.6224C42.8898 36.6713 42.9173 36.7378 42.9173 36.807V38.0081H50.6726C50.71 38.008 50.7469 38.0161 50.7809 38.0316C50.8149 38.0472 50.8451 38.0699 50.8695 38.0982L53.9218 41.6205C53.9463 41.6447 53.9659 41.6736 53.9792 41.7055C53.9925 41.7374 53.9993 41.7715 53.9992 41.8061V42.4834C53.9992 42.5526 53.9717 42.619 53.9227 42.668C53.8738 42.717 53.8074 42.7445 53.7381 42.7445H53.2015V51.2071C53.2016 51.2415 53.1949 51.2755 53.1818 51.3073C53.1687 51.339 53.1495 51.3679 53.1252 51.3922C53.101 51.4165 53.0722 51.4358 53.0405 51.449C53.0087 51.4622 52.9747 51.4689 52.9404 51.4689L52.9409 51.4688Z" fill="#1A1818"/>
<path fill-rule="evenodd" clip-rule="evenodd" d="M51.3813 45.8527L58.2693 39.3088C58.3063 39.2739 58.3527 39.2506 58.4028 39.2418C58.4529 39.2329 58.5044 39.2389 58.5512 39.2589C58.5979 39.279 58.6378 39.3122 58.6659 39.3546C58.694 39.397 58.709 39.4466 58.7093 39.4974V51.2081C58.7093 51.2773 58.6818 51.3437 58.6329 51.3927C58.5839 51.4417 58.5175 51.4692 58.4482 51.4692H51.5478C51.4786 51.4692 51.4122 51.4417 51.3632 51.3927C51.3142 51.3437 51.2867 51.2773 51.2867 51.2081V46.0537C51.2867 46.0153 51.2952 45.9774 51.3116 45.9426C51.3279 45.9079 51.3517 45.8772 51.3813 45.8527ZM58.1873 40.1048L51.8089 46.165V50.9468H58.1877L58.1873 40.1048Z" fill="#1A1818"/>
<path fill-rule="evenodd" clip-rule="evenodd" d="M63.4778 46.3703L58.7671 41.895V50.9465H63.4778V46.3703ZM58.6846 41.0988L63.9048 46.058C63.9343 46.0825 63.9581 46.1132 63.9744 46.148C63.9907 46.1827 63.9991 46.2207 63.9991 46.259V51.2082C63.9991 51.2774 63.9716 51.3438 63.9226 51.3928C63.8737 51.4417 63.8073 51.4693 63.738 51.4693H58.5052C58.4359 51.4693 58.3695 51.4417 58.3205 51.3928C58.2716 51.3438 58.2441 51.2774 58.2441 51.2082V41.2875C58.2444 41.2366 58.2595 41.187 58.2876 41.1446C58.3157 41.1022 58.3555 41.069 58.4023 41.049C58.449 41.0289 58.5005 41.023 58.5506 41.0318C58.6007 41.0407 58.6471 41.0639 58.6841 41.0988H58.6846Z" fill="#1A1818"/>
<path fill-rule="evenodd" clip-rule="evenodd" d="M25.2848 50.9465H38.3471V36.239L35.3381 32.5515L32.3287 36.239V37.5163C32.3287 37.5855 32.3012 37.652 32.2522 37.7009C32.2032 37.7499 32.1368 37.7774 32.0675 37.7774H28.2297L25.2848 41.7571V50.9465ZM32.0675 51.4687H25.0237C24.9545 51.4687 24.8881 51.4412 24.8391 51.3922C24.7901 51.3433 24.7626 51.2769 24.7626 51.2076V41.6725C24.7625 41.6166 24.7804 41.5622 24.8138 41.5174L27.8774 37.3777C27.901 37.3403 27.9336 37.3095 27.9724 37.2882C28.0111 37.2669 28.0546 37.2558 28.0988 37.2559H31.8064V36.1478H31.8073C31.8071 36.0879 31.8277 36.0299 31.8656 35.9836L35.1347 31.9781C35.1462 31.9635 35.1594 31.9503 35.174 31.9386C35.2276 31.8955 35.296 31.8752 35.3645 31.8822C35.4329 31.8893 35.4958 31.923 35.5395 31.9762L38.7963 35.9674C38.8427 36.016 38.8686 36.0806 38.8686 36.1478V51.2085C38.8686 51.2777 38.8411 51.3442 38.7921 51.3931C38.7432 51.4421 38.6767 51.4696 38.6075 51.4696H32.0669L32.0675 51.4687Z" fill="#1A1818"/>
</svg>
