<svg xmlns="http://www.w3.org/2000/svg" width="64" height="64" viewBox="0 0 64 64" fill="none">
  <g clip-path="url(#clip0_163_10823)">
    <path d="M50.176 34.1458C42.5399 34.1458 36.3482 40.3394 36.3482 47.9736C36.3482 55.6058 42.5399 61.7957 50.176 61.7957C57.8083 61.7957 64 55.6059 64 47.9736C64 40.3393 57.8083 34.1458 50.176 34.1458ZM51.0632 58.1928V56.9991C51.0632 56.5053 50.665 56.1062 50.176 56.1062C49.6822 56.1062 49.2849 56.5063 49.2849 56.9991V58.1928C44.3342 57.7672 40.3795 53.8115 39.9538 48.8617H41.1513C41.6404 48.8617 42.0404 48.4633 42.0404 47.9745C42.0404 47.4769 41.6404 47.0834 41.1513 47.0834H39.9538C40.3794 42.1316 44.3351 38.1798 49.2849 37.7522V38.9478C49.2849 39.4398 49.6833 39.8389 50.176 39.8389C50.6651 39.8389 51.0632 39.4388 51.0632 38.9478V37.7522C56.0158 38.1798 59.9706 42.1316 60.3944 47.0834H59.1969C58.7051 47.0834 58.3078 47.4777 58.3078 47.9745C58.3078 48.4645 58.706 48.8617 59.1969 48.8617H60.3944C59.9716 53.8114 56.0158 57.7661 51.0632 58.1928Z" fill="#94763E"/>
    <path d="M55.3272 46.6369H52.1197C51.6921 46.0202 50.9819 45.6107 50.1759 45.6107C50.1637 45.6107 50.1504 45.6144 50.1362 45.6144L47.2135 41.4998C46.7879 40.901 45.9536 40.762 45.3529 41.1858C44.7541 41.6134 44.6103 42.4495 45.0388 43.0502L47.9635 47.1665C47.8737 47.4191 47.816 47.6877 47.816 47.9744C47.816 49.2778 48.8707 50.3325 50.1759 50.3325C50.9819 50.3325 51.6959 49.9267 52.1197 49.308H55.3272C56.0631 49.308 56.6618 48.7132 56.6618 47.9753C56.6618 47.2338 56.0632 46.6369 55.3272 46.6369Z" fill="#94763E"/>
    <path d="M13.3067 20.4542C15.7262 20.4542 17.6842 18.4943 17.6842 16.0776V6.58092C17.6842 4.16325 15.7262 2.20435 13.3067 2.20435C10.889 2.20435 8.93199 4.16325 8.93199 6.58092V16.0785C8.93199 18.4943 10.8889 20.4542 13.3067 20.4542Z" fill="#94763E"/>
    <path d="M40.1127 20.4542C42.5324 20.4542 44.4902 18.4943 44.4902 16.0776V6.58092C44.4902 4.16325 42.5323 2.20435 40.1127 2.20435C37.6969 2.20435 35.7381 4.16325 35.7381 6.58092V16.0785C35.7371 18.4943 37.697 20.4542 40.1127 20.4542Z" fill="#94763E"/>
    <path d="M19.2373 32.6058C19.2373 31.3563 18.2271 30.3442 16.9748 30.3442H12.7808C11.5313 30.3442 10.5164 31.3563 10.5164 32.6058V36.798C10.5164 38.0493 11.5313 39.0643 12.7808 39.0643H16.9748C18.2261 39.0643 19.2373 38.0493 19.2373 36.798V32.6058Z" fill="#94763E"/>
    <path d="M31.0721 32.6087C31.0721 31.3593 30.0591 30.3481 28.8125 30.3481H24.6165C23.367 30.3481 22.3558 31.3593 22.3558 32.6087V36.8019C22.3558 38.0495 23.3669 39.0645 24.6165 39.0645H28.8125C30.06 39.0645 31.0721 38.0495 31.0721 36.8019V32.6087Z" fill="#94763E"/>
    <path d="M36.4495 30.3442C35.198 30.3442 34.185 31.3563 34.185 32.6058V36.798C34.185 37.9301 35.0287 38.8231 36.1109 38.9924C37.7698 36.4082 40.1194 34.3159 42.9013 32.9633V32.6058C42.9013 31.3563 41.8902 30.3442 40.6387 30.3442H36.4495Z" fill="#94763E"/>
    <path d="M12.7817 41.708C11.5322 41.708 10.5172 42.7191 10.5172 43.9686V48.1626C10.5172 49.4121 11.5322 50.4232 12.7817 50.4232H16.9777C18.2271 50.4232 19.2373 49.4121 19.2373 48.1626V43.9686C19.2373 42.7191 18.2271 41.708 16.9777 41.708H12.7817Z" fill="#94763E"/>
    <path d="M28.8076 41.71H24.6155C23.3661 41.71 22.3549 42.7231 22.3549 43.9725V48.1628C22.3549 49.4122 23.3661 50.4234 24.6155 50.4234H28.8076C30.0552 50.4234 31.0683 49.4122 31.0683 48.1628V43.9725C31.0683 42.723 30.0552 41.71 28.8076 41.71Z" fill="#94763E"/>
    <path d="M34.9217 54.7545H13.6443C9.98191 54.7545 7.00141 51.7741 7.00141 48.1154V25.892H46.4219V31.7072C47.6298 31.4291 48.8813 31.2664 50.176 31.2664C51.2865 31.2664 52.3704 31.3809 53.4213 31.5899V10.688H47.1161V16.0776C47.1161 19.9386 43.9767 23.079 40.1127 23.079C36.2508 23.079 33.1114 19.9387 33.1114 16.0776V10.688H20.3099V16.0776C20.3099 19.9386 17.1685 23.079 13.3066 23.079C9.44638 23.079 6.30515 19.9387 6.30515 16.0776V10.688H0V48.1145C0 55.6475 6.10844 61.7588 13.6443 61.7588H39.7761C40.0864 61.7588 40.3928 61.7333 40.6974 61.7133C38.187 59.9785 36.1816 57.5712 34.9217 54.7545Z" fill="#94763E"/>
  </g>
  <defs>
    <clipPath id="clip0_163_10823">
      <rect width="64" height="64" fill="white"/>
    </clipPath>
  </defs>
</svg>