<svg xmlns="http://www.w3.org/2000/svg" width="64" height="64" viewBox="0 0 64 64" fill="none">
  <path opacity="0.5" d="M32 42.8474L21.9428 53.2604C20.5025 54.7519 19.7823 55.4975 19.1725 55.7556C17.7827 56.3436 16.2411 55.8404 15.5101 54.5602C15.1893 53.9983 15.0893 52.985 14.8893 50.9583C14.7765 49.814 14.72 49.2418 14.5487 48.7626C14.1651 47.6898 13.3591 46.8554 12.3229 46.458C11.8601 46.2807 11.3075 46.2223 10.2025 46.1052C8.24507 45.8983 7.2663 45.7948 6.72368 45.4626C5.48726 44.7058 5.00128 43.1095 5.56915 41.6706C5.81835 41.0391 6.53851 40.2935 7.97883 38.8023L14.5487 31.9996L17.8506 28.6978L32 42.8474L46.1493 28.6978L49.4512 31.9996L56.0211 38.8023C57.4616 40.2935 58.1816 41.0391 58.4309 41.6706C58.9987 43.1095 58.5128 44.7058 57.2763 45.4626C56.7336 45.7948 55.7549 45.8983 53.7976 46.1052C52.6925 46.2223 52.14 46.2807 51.6771 46.458C50.6408 46.8554 49.8349 47.6898 49.4512 48.7626C49.28 49.2418 49.2235 49.814 49.1107 50.9583C48.9107 52.985 48.8107 53.9983 48.4899 54.5602C47.7589 55.8404 46.2173 56.3436 44.8275 55.7556C44.2176 55.4975 43.4976 54.7519 42.0573 53.2604L32 42.8474Z" fill="#94763E"/>
  <path fill-rule="evenodd" clip-rule="evenodd" d="M32 42.6666C42.3093 42.6666 50.6667 34.3092 50.6667 23.9999C50.6667 13.6906 42.3093 5.33325 32 5.33325C21.6907 5.33325 13.3333 13.6906 13.3333 23.9999C13.3333 34.3092 21.6907 42.6666 32 42.6666ZM32 15.9999C31.2424 15.9999 30.7357 16.9088 29.7224 18.7266L29.4603 19.1969C29.1725 19.7135 29.0285 19.9718 28.804 20.1422C28.5795 20.3126 28.3 20.3758 27.7408 20.5023L27.2317 20.6175C25.2639 21.0628 24.28 21.2854 24.0459 22.0381C23.8119 22.7908 24.4826 23.5752 25.8241 25.1439L26.1711 25.5497C26.5523 25.9955 26.7429 26.2183 26.8288 26.4941C26.9144 26.7698 26.8856 27.0671 26.828 27.6621L26.7755 28.2034C26.5727 30.2964 26.4713 31.3428 27.084 31.8082C27.6971 32.2732 28.6181 31.8492 30.4605 31.001L30.9371 30.7815C31.4608 30.5405 31.7224 30.4199 32 30.4199C32.2776 30.4199 32.5392 30.5405 33.0629 30.7815L33.5395 31.001C35.3819 31.8492 36.3029 32.2732 36.916 31.8082C37.5288 31.3428 37.4272 30.2964 37.2245 28.2034L37.172 27.6621C37.1144 27.0671 37.0856 26.7698 37.1712 26.4941C37.2571 26.2183 37.4477 25.9955 37.8288 25.5497L38.176 25.1439C39.5173 23.5752 40.1883 22.7908 39.9541 22.0381C39.72 21.2854 38.736 21.0628 36.7683 20.6175L36.2592 20.5023C35.7 20.3758 35.4205 20.3126 35.196 20.1422C34.9715 19.9718 34.8275 19.7135 34.5397 19.1969L34.2776 18.7266C33.2643 16.9088 32.7576 15.9999 32 15.9999Z" fill="#94763E"/>
</svg>