<svg width="64" height="64" viewBox="0 0 64 64" fill="none" xmlns="http://www.w3.org/2000/svg">
<path d="M18.9 34.2997C18.8 34.1997 18.6 34.0997 18.5 33.9997C18.2 33.7997 17.9 33.6997 17.5 33.6997C17 33.6997 16.5 33.6997 16 33.6997C15.9 33.6997 15.9 33.6997 15.8 33.6997C15.5 33.6997 15.3 33.6997 15 33.8997C14.8 33.9997 14.5 34.0997 14.4 34.2997C14.3 34.3997 14.2 34.5997 14.1 34.6997C13.9 34.9997 13.8 35.2997 13.8 35.6997C13.8 36.1997 13.8 36.6997 13.8 37.1997C13.8 37.2997 13.8 37.2997 13.8 37.3997C13.8 37.6997 13.8 37.8997 14 38.1997C14.1 38.3997 14.2 38.6997 14.4 38.7997C14.5 38.8997 14.7 38.9997 14.8 39.0997C15.1 39.2997 15.4 39.3997 15.8 39.3997C16.3 39.3997 16.8 39.3997 17.3 39.3997C17.4 39.3997 17.4 39.3997 17.5 39.3997C17.7 39.3997 17.8 39.3997 18 39.2997C18 39.2997 18 39.2997 18.1 39.2997C18.3 39.1997 18.5 39.1997 18.6 39.0997C18.7 38.9997 18.9 38.8997 19 38.7997C19.1 38.6997 19.2 38.5997 19.3 38.3997C19.3 38.2997 19.4 38.1997 19.4 38.1997C19.4 38.0997 19.5 37.9997 19.5 37.8997C19.5 37.6997 19.6 37.5997 19.6 37.3997C19.6 36.8997 19.6 36.3997 19.6 35.8997C19.6 35.7997 19.6 35.7997 19.6 35.6997C19.6 35.3997 19.6 35.1997 19.4 34.8997C19.2 34.6997 19.1 34.3997 18.9 34.2997Z" fill="black"/>
<path d="M27 34.2997C26.9 34.1997 26.7 34.0997 26.6 33.9997C26.3 33.7997 26 33.6997 25.6 33.6997C25.1 33.6997 24.6 33.6997 24.1 33.6997C24 33.6997 24 33.6997 23.9 33.6997C23.6 33.6997 23.4 33.6997 23.1 33.8997C22.9 33.9997 22.6 34.0997 22.5 34.2997C22.4 34.3997 22.3 34.5997 22.2 34.6997C22 34.9997 21.9 35.2997 21.9 35.6997C21.9 36.1997 21.9 36.6997 21.9 37.1997C21.9 37.2997 21.9 37.2997 21.9 37.3997C21.9 37.6997 21.9 37.8997 22.1 38.1997C22.2 38.3997 22.3 38.6997 22.5 38.7997C22.6 38.8997 22.8 38.9997 22.9 39.0997C23.2 39.2997 23.5 39.3997 23.9 39.3997C24.4 39.3997 24.9 39.3997 25.4 39.3997C25.5 39.3997 25.5 39.3997 25.6 39.3997C25.8 39.3997 25.9 39.3997 26.1 39.2997C26.1 39.2997 26.1 39.2997 26.2 39.2997C26.4 39.1997 26.6 39.1997 26.7 39.0997C26.8 38.9997 27 38.8997 27.1 38.7997C27.2 38.6997 27.3 38.5997 27.4 38.3997C27.4 38.2997 27.5 38.1997 27.5 38.1997C27.5 38.0997 27.6 37.9997 27.6 37.8997C27.6 37.6997 27.7 37.5997 27.7 37.3997C27.7 36.8997 27.7 36.3997 27.7 35.8997C27.7 35.7997 27.7 35.7997 27.7 35.6997C27.7 35.3997 27.7 35.1997 27.5 34.8997C27.3 34.6997 27.2 34.3997 27 34.2997Z" fill="black"/>
<path d="M41.3 41.2997C41.2 41.1997 41 41.0997 40.9 40.9997C40.6 40.7997 40.3 40.6997 39.9 40.6997C39.4 40.6997 38.9 40.6997 38.4 40.6997C38.3 40.6997 38.3 40.6997 38.2 40.6997C37.9 40.6997 37.7 40.6997 37.4 40.8997C37.2 40.9997 36.9 41.0997 36.8 41.2997C36.7 41.3997 36.6 41.5997 36.5 41.6997C36.3 41.9997 36.2 42.2997 36.2 42.6997C36.2 43.1997 36.2 43.6997 36.2 44.1997C36.2 44.2997 36.2 44.2997 36.2 44.3997C36.2 44.6997 36.2 44.8997 36.4 45.1997C36.5 45.3997 36.6 45.6997 36.8 45.7997C36.9 45.8997 37.1 45.9997 37.2 46.0997C37.5 46.2997 37.8 46.3997 38.2 46.3997C38.7 46.3997 39.2 46.3997 39.7 46.3997C39.8 46.3997 39.8 46.3997 39.9 46.3997C40.1 46.3997 40.2 46.3997 40.4 46.2997C40.4 46.2997 40.4 46.2997 40.5 46.2997C40.7 46.1997 40.9 46.1997 41 46.0997C41.1 45.9997 41.3 45.8997 41.4 45.7997C41.5 45.6997 41.6 45.5997 41.7 45.3997C41.7 45.2997 41.8 45.1997 41.8 45.1997C41.8 45.0997 41.9 44.9997 41.9 44.8997C41.9 44.6997 42 44.5997 42 44.3997C42 43.8997 42 43.3997 42 42.8997C42 42.7997 42 42.7997 42 42.6997C42 42.3997 42 42.1997 41.8 41.8997C41.6 41.6997 41.5 41.4997 41.3 41.2997Z" fill="black"/>
<path d="M49.8 41.2997C49.7 41.1997 49.5 41.0997 49.4 40.9997C49.1 40.7997 48.8 40.6997 48.4 40.6997C47.9 40.6997 47.4 40.6997 46.9 40.6997C46.8 40.6997 46.8 40.6997 46.7 40.6997C46.4 40.6997 46.2 40.6997 45.9 40.8997C45.7 40.9997 45.4 41.0997 45.3 41.2997C45.2 41.3997 45.1 41.5997 45 41.6997C44.8 41.9997 44.7 42.2997 44.7 42.6997C44.7 43.1997 44.7 43.6997 44.7 44.1997C44.7 44.2997 44.7 44.2997 44.7 44.3997C44.7 44.6997 44.7 44.8997 44.9 45.1997C45 45.3997 45.1 45.6997 45.3 45.7997C45.4 45.8997 45.6 45.9997 45.7 46.0997C46 46.2997 46.3 46.3997 46.7 46.3997C47.2 46.3997 47.7 46.3997 48.2 46.3997C48.3 46.3997 48.3 46.3997 48.4 46.3997C48.6 46.3997 48.7 46.3997 48.9 46.2997C48.9 46.2997 48.9 46.2997 49 46.2997C49.2 46.1997 49.4 46.1997 49.5 46.0997C49.6 45.9997 49.8 45.8997 49.9 45.7997C50 45.6997 50.1 45.5997 50.2 45.3997C50.2 45.2997 50.3 45.1997 50.3 45.1997C50.3 45.0997 50.4 44.9997 50.4 44.8997C50.4 44.6997 50.5 44.5997 50.5 44.3997C50.5 43.8997 50.5 43.3997 50.5 42.8997C50.5 42.7997 50.5 42.7997 50.5 42.6997C50.5 42.3997 50.5 42.1997 50.3 41.8997C50.1 41.6997 50 41.4997 49.8 41.2997Z" fill="black"/>
<path d="M49.8 48.3998C49.7 48.2998 49.5 48.1998 49.4 48.0998C49.1 47.8998 48.8 47.7998 48.4 47.7998C47.9 47.7998 47.4 47.7998 46.9 47.7998C46.8 47.7998 46.8 47.7998 46.7 47.7998C46.4 47.7998 46.2 47.7998 45.9 47.9998C45.7 48.0998 45.4 48.1998 45.3 48.3998C45.2 48.4998 45.1 48.6998 45 48.7998C44.8 49.0998 44.7 49.3998 44.7 49.7998C44.7 50.2998 44.7 50.7998 44.7 51.2998C44.7 51.3998 44.7 51.3998 44.7 51.4998C44.7 51.7998 44.7 51.9998 44.9 52.2998C45 52.4998 45.1 52.7998 45.3 52.8998C45.4 52.9998 45.6 53.0998 45.7 53.1998C46 53.3998 46.3 53.4998 46.7 53.4998C47.2 53.4998 47.7 53.4998 48.2 53.4998C48.3 53.4998 48.3 53.4998 48.4 53.4998C48.6 53.4998 48.7 53.4998 48.9 53.3998C48.9 53.3998 48.9 53.3998 49 53.3998C49.2 53.2998 49.4 53.2998 49.5 53.1998C49.6 53.0998 49.8 52.9998 49.9 52.8998C50 52.7998 50.1 52.6998 50.2 52.4998C50.2 52.3998 50.3 52.2998 50.3 52.2998C50.3 52.1998 50.4 52.0998 50.4 51.9998C50.4 51.7998 50.5 51.6998 50.5 51.4998C50.5 50.9998 50.5 50.4998 50.5 49.9998C50.5 49.8998 50.5 49.8998 50.5 49.7998C50.5 49.4998 50.5 49.2998 50.3 48.9998C50.1 48.7998 50 48.5998 49.8 48.3998Z" fill="black"/>
<path d="M41.2 48.1996C41.1 48.0996 40.9 47.9996 40.8 47.8996C40.5 47.6996 40.2 47.5996 39.8 47.5996C39.3 47.5996 38.8 47.5996 38.3 47.5996C38.2 47.5996 38.2 47.5996 38.1 47.5996C37.8 47.5996 37.6 47.5996 37.3 47.7996C37.1 47.8996 36.8 47.9996 36.7 48.1996C36.6 48.2996 36.5 48.4996 36.4 48.5996C36.2 48.8996 36.1 49.1996 36.1 49.5996C36.1 50.0996 36.1 50.5996 36.1 51.0996C36.1 51.1996 36.1 51.1996 36.1 51.2996C36.1 51.5996 36.1 51.7996 36.3 52.0996C36.4 52.2996 36.5 52.5996 36.7 52.6996C36.8 52.7996 37 52.8996 37.1 52.9996C37.4 53.1996 37.7 53.2996 38.1 53.2996C38.6 53.2996 39.1 53.2996 39.6 53.2996C39.7 53.2996 39.7 53.2996 39.8 53.2996C40 53.2996 40.1 53.2996 40.3 53.1996C40.3 53.1996 40.3 53.1996 40.4 53.1996C40.6 53.0996 40.8 53.0996 40.9 52.9996C41 52.8996 41.2 52.7996 41.3 52.6996C41.4 52.5996 41.5 52.4996 41.6 52.2996C41.6 52.1996 41.7 52.0996 41.7 52.0996C41.7 51.9996 41.8 51.8996 41.8 51.7996C41.8 51.5996 41.9 51.4996 41.9 51.2996C41.9 50.7996 41.9 50.2996 41.9 49.7996C41.9 49.6996 41.9 49.6996 41.9 49.5996C41.9 49.2996 41.9 49.0996 41.7 48.7996C41.5 48.5996 41.4 48.3996 41.2 48.1996Z" fill="black"/>
<path d="M37.1 26.6C37.2 26.7 37.4 26.8 37.5 26.9C37.8 27.1 38.1 27.2 38.5 27.2C39 27.2 39.5 27.2 40 27.2C40.1 27.2 40.1 27.2 40.2 27.2C40.4 27.2 40.5 27.2 40.7 27.1C40.7 27.1 40.7 27.1 40.8 27.1C41 27 41.2 27 41.3 26.9C41.4 26.8 41.6 26.7 41.7 26.6C41.8 26.5 41.9 26.4 42 26.2C42 26.1 42.1 26 42.1 26C42.1 25.9 42.2 25.8 42.2 25.7C42.2 25.5 42.3 25.4 42.3 25.2C42.3 24.7 42.3 24.2 42.3 23.7C42.3 23.6 42.3 23.6 42.3 23.5C42.3 23.2 42.3 23 42.1 22.7C42 22.5 41.9 22.2 41.7 22.1C41.6 22 41.4 21.9 41.3 21.8C41 21.6 40.7 21.5 40.3 21.5C39.8 21.5 39.3 21.5 38.8 21.5C38.7 21.5 38.7 21.5 38.6 21.5C38.3 21.5 38.1 21.5 37.8 21.7C37.6 21.8 37.3 21.9 37.2 22.1C37.1 22.2 37 22.4 36.9 22.5C36.7 22.8 36.6 23.1 36.6 23.5C36.6 24 36.6 24.5 36.6 25C36.6 25.1 36.6 25.1 36.6 25.2C36.6 25.5 36.6 25.7 36.8 26C36.8 26.2 36.9 26.4 37.1 26.6Z" fill="black"/>
<path d="M28.8 26.6C28.9 26.7 29.1 26.8 29.2 26.9C29.5 27.1 29.8 27.2 30.2 27.2C30.7 27.2 31.2 27.2 31.7 27.2C31.8 27.2 31.8 27.2 31.9 27.2C32.1 27.2 32.2 27.2 32.4 27.1C32.4 27.1 32.4 27.1 32.5 27.1C32.7 27 32.9 27 33 26.9C33.1 26.8 33.3 26.7 33.4 26.6C33.5 26.5 33.6 26.4 33.7 26.2C33.7 26.1 33.8 26 33.8 26C33.8 25.9 33.9 25.8 33.9 25.7C33.9 25.5 34 25.4 34 25.2C34 24.7 34 24.2 34 23.7C34 23.6 34 23.6 34 23.5C34 23.2 34 23 33.8 22.7C33.7 22.5 33.6 22.2 33.4 22.1C33.3 22 33.1 21.9 33 21.8C32.7 21.6 32.4 21.5 32 21.5C31.5 21.5 31 21.5 30.5 21.5C30.4 21.5 30.4 21.5 30.3 21.5C30 21.5 29.8 21.5 29.5 21.7C29.3 21.8 29 21.9 28.9 22.1C28.8 22.2 28.7 22.4 28.6 22.5C28.4 22.8 28.3 23.1 28.3 23.5C28.3 24 28.3 24.5 28.3 25C28.3 25.1 28.3 25.1 28.3 25.2C28.3 25.5 28.3 25.7 28.5 26C28.4 26.2 28.6 26.5 28.8 26.6Z" fill="black"/>
<path d="M27 41.2997C26.9 41.1997 26.7 41.0997 26.6 40.9997C26.3 40.7997 26 40.6997 25.6 40.6997C25.1 40.6997 24.6 40.6997 24.1 40.6997C24 40.6997 24 40.6997 23.9 40.6997C23.6 40.6997 23.4 40.6997 23.1 40.8997C22.9 40.9997 22.6 41.0997 22.5 41.2997C22.4 41.3997 22.3 41.5997 22.2 41.6997C22 41.9997 21.9 42.2997 21.9 42.6997C21.9 43.1997 21.9 43.6997 21.9 44.1997C21.9 44.2997 21.9 44.2997 21.9 44.3997C21.9 44.6997 21.9 44.8997 22.1 45.1997C22.2 45.3997 22.3 45.6997 22.5 45.7997C22.6 45.8997 22.8 45.9997 22.9 46.0997C23.2 46.2997 23.5 46.3997 23.9 46.3997C24.4 46.3997 24.9 46.3997 25.4 46.3997C25.5 46.3997 25.5 46.3997 25.6 46.3997C25.8 46.3997 25.9 46.3997 26.1 46.2997C26.1 46.2997 26.1 46.2997 26.2 46.2997C26.4 46.1997 26.6 46.1997 26.7 46.0997C26.8 45.9997 27 45.8997 27.1 45.7997C27.2 45.6997 27.3 45.5997 27.4 45.3997C27.4 45.2997 27.5 45.1997 27.5 45.1997C27.5 45.0997 27.6 44.9997 27.6 44.8997C27.6 44.6997 27.7 44.5997 27.7 44.3997C27.7 43.8997 27.7 43.3997 27.7 42.8997C27.7 42.7997 27.7 42.7997 27.7 42.6997C27.7 42.3997 27.7 42.1997 27.5 41.8997C27.3 41.6997 27.2 41.4997 27 41.2997Z" fill="black"/>
<path d="M26.9 48.3998C26.8 48.2998 26.6 48.1998 26.5 48.0998C26.2 47.8998 25.9 47.7998 25.5 47.7998C25 47.7998 24.5 47.7998 24 47.7998C23.9 47.7998 23.9 47.7998 23.8 47.7998C23.5 47.7998 23.3 47.7998 23 47.9998C22.8 48.0998 22.5 48.1998 22.4 48.3998C22.3 48.4998 22.2 48.6998 22.1 48.7998C21.9 49.0998 21.8 49.3998 21.8 49.7998C21.8 50.2998 21.8 50.7998 21.8 51.2998C21.8 51.3998 21.8 51.3998 21.8 51.4998C21.8 51.7998 21.8 51.9998 22 52.2998C22.1 52.4998 22.2 52.7998 22.4 52.8998C22.5 52.9998 22.7 53.0998 22.8 53.1998C23.1 53.3998 23.4 53.4998 23.8 53.4998C24.3 53.4998 24.8 53.4998 25.3 53.4998C25.4 53.4998 25.4 53.4998 25.5 53.4998C25.7 53.4998 25.8 53.4998 26 53.3998C26 53.3998 26 53.3998 26.1 53.3998C26.3 53.2998 26.5 53.2998 26.6 53.1998C26.7 53.0998 26.9 52.9998 27 52.8998C27.1 52.7998 27.2 52.6998 27.3 52.4998C27.3 52.3998 27.4 52.2998 27.4 52.2998C27.4 52.1998 27.5 52.0998 27.5 51.9998C27.5 51.7998 27.6 51.6998 27.6 51.4998C27.6 50.9998 27.6 50.4998 27.6 49.9998C27.6 49.8998 27.6 49.8998 27.6 49.7998C27.6 49.4998 27.6 49.2998 27.4 48.9998C27.2 48.7998 27.1 48.5998 26.9 48.3998Z" fill="black"/>
<path d="M18.9 48.4999C18.8 48.3999 18.6 48.2999 18.5 48.1999C18.2 47.9999 17.9 47.8999 17.5 47.8999C17 47.8999 16.5 47.8999 16 47.8999C15.9 47.8999 15.9 47.8999 15.8 47.8999C15.5 47.8999 15.3 47.8999 15 48.0999C14.8 48.1999 14.5 48.2999 14.4 48.4999C14.3 48.5999 14.2 48.7999 14.1 48.8999C13.9 49.1999 13.8 49.4999 13.8 49.8999C13.8 50.3999 13.8 50.8999 13.8 51.3999C13.8 51.4999 13.8 51.4999 13.8 51.5999C13.8 51.8999 13.8 52.0999 14 52.3999C14.1 52.5999 14.2 52.8999 14.4 52.9999C14.5 53.0999 14.7 53.1999 14.8 53.2999C15.1 53.4999 15.4 53.5999 15.8 53.5999C16.3 53.5999 16.8 53.5999 17.3 53.5999C17.4 53.5999 17.4 53.5999 17.5 53.5999C17.7 53.5999 17.8 53.5999 18 53.4999C18 53.4999 18 53.4999 18.1 53.4999C18.3 53.3999 18.5 53.3999 18.6 53.2999C18.7 53.1999 18.9 53.0999 19 52.9999C19.1 52.8999 19.2 52.7999 19.3 52.5999C19.3 52.4999 19.4 52.3999 19.4 52.3999C19.4 52.2999 19.5 52.1999 19.5 52.0999C19.5 51.8999 19.6 51.7999 19.6 51.5999C19.6 51.0999 19.6 50.5999 19.6 50.0999C19.6 49.9999 19.6 49.9999 19.6 49.8999C19.6 49.5999 19.6 49.3999 19.4 49.0999C19.2 48.8999 19.1 48.5999 18.9 48.4999Z" fill="black"/>
<path d="M18.9 41.2997C18.8 41.1997 18.6 41.0997 18.5 40.9997C18.2 40.7997 17.9 40.6997 17.5 40.6997C17 40.6997 16.5 40.6997 16 40.6997C15.9 40.6997 15.9 40.6997 15.8 40.6997C15.5 40.6997 15.3 40.6997 15 40.8997C14.8 40.9997 14.5 41.0997 14.4 41.2997C14.3 41.3997 14.2 41.5997 14.1 41.6997C13.9 41.9997 13.8 42.2997 13.8 42.6997C13.8 43.1997 13.8 43.6997 13.8 44.1997C13.8 44.2997 13.8 44.2997 13.8 44.3997C13.8 44.6997 13.8 44.8997 14 45.1997C14.1 45.3997 14.2 45.6997 14.4 45.7997C14.5 45.8997 14.7 45.9997 14.8 46.0997C15.1 46.2997 15.4 46.3997 15.8 46.3997C16.3 46.3997 16.8 46.3997 17.3 46.3997C17.4 46.3997 17.4 46.3997 17.5 46.3997C17.7 46.3997 17.8 46.3997 18 46.2997C18 46.2997 18 46.2997 18.1 46.2997C18.3 46.1997 18.5 46.1997 18.6 46.0997C18.7 45.9997 18.9 45.8997 19 45.7997C19.1 45.6997 19.2 45.5997 19.3 45.3997C19.3 45.2997 19.4 45.1997 19.4 45.1997C19.4 45.0997 19.5 44.9997 19.5 44.8997C19.5 44.6997 19.6 44.5997 19.6 44.3997C19.6 43.8997 19.6 43.3997 19.6 42.8997C19.6 42.7997 19.6 42.7997 19.6 42.6997C19.6 42.3997 19.6 42.1997 19.4 41.8997C19.2 41.6997 19.1 41.4997 18.9 41.2997Z" fill="black"/>
<path d="M57.4 54.3998C57.1 54.3998 56.9 54.3998 56.6 54.3998C56.6 50.1998 56.6 45.9998 56.6 41.8998C56.6 40.2998 56.7 38.5998 56.6 36.9998C56.5 34.9998 55.3 33.1998 53.3 32.6998C52.6 32.4998 51.9 32.5998 51.2 32.5998C50.3 32.5998 49.5 32.5998 48.6 32.5998C48.6 29.5998 48.6 26.5998 48.6 23.5998C48.6 21.9998 48.5 20.5998 47.3 19.2998C46.2 18.0998 45 16.9998 43.8 15.7998C42.2 14.1998 40.7 12.6998 39.1 11.0998C37.8 9.79977 36.6 8.19977 34.5 8.69977C33.2 8.99977 32 10.5998 31 11.5998C29.4 13.1998 27.8 14.7998 26.2 16.3998C25.1 17.4998 23.8 18.5998 22.8 19.7998C22.2 20.3998 22 21.1998 21.9 22.0998C19.1 20.8998 16.8 24.0998 15.1 25.7998C13 27.8998 10.9 29.9998 8.8 32.0998C7.9 32.9998 7.2 33.8998 7.2 35.1998C7.2 35.7998 7.2 36.4998 7.2 37.0998C7.2 42.7998 7.2 48.5998 7.2 54.2998V54.3998C6.9 54.3998 6.5 54.3998 6.2 54.3998C3.6 54.3998 3.6 58.3998 6.2 58.3998C12 58.3998 17.7 58.3998 23.5 58.3998C32.7 58.3998 41.9 58.3998 51 58.3998C53.1 58.3998 55.3 58.3998 57.4 58.3998C60 58.3998 60 54.3998 57.4 54.3998ZM35.8 12.4998C36 12.1998 36.2 12.3998 35.8 12.4998V12.4998ZM26.5 21.7998C27.1 21.1998 27.6 20.6998 28.2 20.0998C29.7 18.5998 31.2 17.0998 32.7 15.5998C33.3 14.9998 34 14.2998 34.6 13.6998C34.8 13.4998 35.1 13.2998 35.3 12.9998C35.6 13.2998 35.9 13.4998 36.1 13.6998C37.5 15.0998 39 16.5998 40.4 17.9998C41.6 19.1998 42.9 20.4998 44.1 21.6998C44.2 21.7998 44.4 21.8998 44.5 22.0998C44.6 22.1998 44.6 22.1998 44.6 22.1998C44.7 22.4998 44.6 22.9998 44.6 23.2998C44.6 26.3998 44.6 29.4998 44.6 32.5998C41.9 32.5998 39.2 32.5998 36.5 32.5998C35.3 32.5998 34.1 32.5998 33.1 32.8998C33 32.7998 33 32.6998 32.9 32.5998C31.2 30.7998 29.4 29.0998 27.6 27.2998C27.1 26.7998 26.5 26.1998 26 25.6998C26 25.0998 26 24.4998 26 23.8998C26 23.4998 26 22.9998 26 22.5998C26 22.5998 26 22.5998 26 22.4998C26.2 22.1998 26.4 21.8998 26.5 21.7998ZM29.9 35.1998C29.8 34.9998 30 34.9998 29.9 35.1998V35.1998ZM11.2 35.2998C11.2 35.0998 11.3 35.1998 11.2 35.2998V35.2998ZM12.6 54.3998C12.1 54.3998 11.7 54.3998 11.2 54.3998V54.2998C11.2 49.4998 11.2 44.6998 11.2 39.7998C11.2 38.5998 11.2 37.4998 11.2 36.2998C11.2 35.9998 11.2 35.6998 11.2 35.3998V35.2998C11.7 34.8998 12.2 34.2998 12.6 33.8998C13.7 32.7998 14.7 31.7998 15.8 30.6998C16.8 29.6998 17.9 28.5998 18.9 27.5998C19.3 27.1998 19.7 26.7998 20.1 26.3998C20.2 26.2998 20.4 26.0998 20.6 25.8998C20.7 25.9998 20.8 26.0998 20.9 26.0998C21.8 26.9998 22.7 27.8998 23.7 28.8998C25.7 30.8998 27.6 32.7998 29.6 34.7998C29.7 34.8998 29.8 34.9998 29.9 35.0998C29.9 35.0998 29.9 35.0998 29.9 35.1998C29.8 35.7998 29.8 36.3998 29.9 37.0998C29.8 38.0998 29.9 39.1998 29.9 40.0998C29.9 44.7998 29.9 49.4998 29.9 54.2998V54.3998C24.1 54.3998 18.4 54.3998 12.6 54.3998ZM40.1 54.3998C38 54.3998 36 54.3998 33.9 54.3998V54.2998C33.9 50.4998 33.9 46.6998 33.9 42.8998C33.9 41.4998 33.9 40.0998 33.9 38.7998C33.9 38.1998 33.9 37.5998 33.9 36.8998C34.1 36.2998 34.8 36.4998 35.5 36.4998C40.2 36.4998 44.9 36.4998 49.6 36.4998C50.2 36.4998 52.3 36.0998 52.5 36.8998C52.6 37.2998 52.5 37.7998 52.5 38.0998C52.5 39.0998 52.5 39.9998 52.5 40.9998C52.5 45.4998 52.5 49.8998 52.5 54.3998C48.4 54.3998 44.3 54.3998 40.1 54.3998Z" fill="black"/>
</svg>
